<svg xmlns="http://www.w3.org/2000/svg" xmlns:xlink="http://www.w3.org/1999/xlink" width="77.102" height="77.101" viewBox="0 0 77.102 77.101">
  <defs>
    <clipPath id="clip-path">
      <rect id="Rectangle_63" data-name="Rectangle 63" width="77.102" height="77.101" transform="translate(0 0)" fill="none"/>
    </clipPath>
  </defs>
  <g id="Group_1150" data-name="Group 1150" transform="translate(0 0)">
    <g id="Group_1149" data-name="Group 1149" clip-path="url(#clip-path)">
      <path id="Path_2037" data-name="Path 2037" d="M77.1,38.551A38.551,38.551,0,1,1,38.551,0,38.552,38.552,0,0,1,77.1,38.551" fill="#ff9d8a"/>
      <path id="Path_2038" data-name="Path 2038" d="M17.81,38.235l-.142-.168a8.4,8.4,0,0,0,.655-.692,6.973,6.973,0,0,1,.987-2.846,1.277,1.277,0,0,1,.361-.845A9.023,9.023,0,0,1,21.863,30.5c.172-.242.513-.281.661-.553a1.392,1.392,0,0,0,.848-.783,3.853,3.853,0,0,1,2.184-1.1c.5-.02.95-.452,1.5-.42.126-.03.215-.13.335-.171,1.068-.7,2.334-.671,3.509-.982.672-.178,1.284-.59,2.026-.379.236.025.437.186.682.176.11-.078.275-.246.32-.218.578.353,1.25.219,1.86.385a1.559,1.559,0,0,0,1.185.289.543.543,0,0,1,.434.127c.21.277.186.509-.122.679.011,0,.032,0,.043,0a1.769,1.769,0,0,1,2.052.653c.233.324.6.054.763.354.132.134.1.348.234.478.15.07.311.108.461.17a2.19,2.19,0,0,1,.832.093,1.867,1.867,0,0,1,1.247,1.731,1.145,1.145,0,0,1-.168.584c-.295.4-.193.964-.544,1.343-.39.352-.884.517-1.022-.114A8.384,8.384,0,0,0,40.3,30.99c-.519-.806-1.341-.523-2.067-.58a1.417,1.417,0,0,0-.747.116.635.635,0,0,0-.311.384,14.182,14.182,0,0,1-.833,1.431,4.939,4.939,0,0,0-.488,1.705,11.991,11.991,0,0,0-.525,3.421A9.435,9.435,0,0,0,35.2,38.8c-.017.618.209,1.212.189,1.831a4.038,4.038,0,0,0,.291.953,2.053,2.053,0,0,1,.026.341c0,.153,0,.306.006.459a2,2,0,0,0,.136.662c.022.112.027.227.041.34a2.175,2.175,0,0,1,.137.907c-.282.609-.174,1.343-.608,1.9a1.229,1.229,0,0,1-.646.341.416.416,0,0,1-.3-.187c-.1-.581-.037-1.174-.12-1.757-.04-.218-.213-.364-.308-.552a1.139,1.139,0,0,0-.553-.627c-.343-.376-.854-.191-1.254-.37-.321-.146-.531.049-.742.243a2.287,2.287,0,0,0-.939,1.01c-.069.135-.2.2-.3.307-.125.134-.128.321-.2.476a5.6,5.6,0,0,0-.572,1.172,3.715,3.715,0,0,0-.215,1.37.848.848,0,0,1-.062.352,5.375,5.375,0,0,0-.379,1.32,2.04,2.04,0,0,1-.03.22.828.828,0,0,0-.059.625,24.326,24.326,0,0,1-.051,2.618c.014.154.08.3.08.456a3.7,3.7,0,0,0-.1,1.253,6.127,6.127,0,0,0,.587,2.191.8.8,0,0,1-.053.231c-.26.423-.406,1-1.1.853A16,16,0,0,1,25.261,56.7c-.181-.063-.36-.129-.54-.193-.458-.461-.776-1.05-1.587-1.1-.355-.021-.709-.458-1.031-.748-.135-.085-.326-.113-.358-.308-.117-.7-.656-.963-1.229-1.19l-.183-.33c-.027-.816-.672-1.376-.894-2.126a5.914,5.914,0,0,0-.445-1.066,10.327,10.327,0,0,1-1.515-4.631,12.519,12.519,0,0,1,.075-4.439,6.046,6.046,0,0,0,.1-1.18,1.383,1.383,0,0,0,.158-1.151" fill="#f8e2cb"/>
      <path id="Path_2039" data-name="Path 2039" d="M36.786,59.167c-.245.059-.326-.171-.48-.273a2.6,2.6,0,0,0-.512.16l.007,0a2.869,2.869,0,0,1-1.332-.138c-.206-.268-.429-.362-.689-.067a1.518,1.518,0,0,1-.164.028c-.132.111-.281.013-.421.033a1.615,1.615,0,0,0-.757.021c-.218.045-.444.111-.512-.209-.588-.076-.728-.317-.286-.774.291-.233.67-.2.995-.326a3.99,3.99,0,0,1,.859-.222c.273-.1.412-.437.744-.442.071-.01.143-.018.215-.025a1.05,1.05,0,0,0,.567-.271,2.027,2.027,0,0,0,.636-.423.68.68,0,0,1,.212-.088c.338.056.522-.144.667-.4a2.165,2.165,0,0,0,.826-.558c.639-.585,1.627-.53,2.215-1.211a3.107,3.107,0,0,1,.331-.328c.218-.068.4-.211.627-.271a2.481,2.481,0,0,0,.647-.42,1.474,1.474,0,0,1,.287-.174c.241-.054.514-.041.645-.318.182-.392.676-.458.869-.837.185-.249.514-.31.708-.546a4.935,4.935,0,0,0,.933-1.351,2.237,2.237,0,0,0,.236-.706,1.208,1.208,0,0,0,.121-.716.837.837,0,0,0-.029-.583.475.475,0,0,0-.244-.408.859.859,0,0,1-.139-.15.607.607,0,0,0-.5-.306c-.354-.049-.578-.331-.876-.479-.145-.122-.334-.1-.5-.15-.118-.034-.232-.263-.353,0-.254.191-.629.072-.846.348-.639.412-1.421.506-2.056.926a12.058,12.058,0,0,1-1.736.911c-.245.111-.438.331-.73.342a.487.487,0,0,1-.439-.333c-.062-.193.048-.361.079-.541a.828.828,0,0,1,.189-.5c.212-.247.115-.555.16-.836a6.616,6.616,0,0,1,.85-1.067,2.455,2.455,0,0,1,.382-.228,3.781,3.781,0,0,0,.5-.183,1.376,1.376,0,0,1,.2-.062c.3-.024.345-.321.519-.48a.7.7,0,0,1,.409-.092c.181-.03.289-.176.428-.275.666-.527,1.523-.716,2.188-1.244a2.852,2.852,0,0,1,.632-.238c.263-.1.262-.435.492-.565.211-.131.474-.191.6-.441.2-.31.444-.593.637-.91a.746.746,0,0,1,.607-.469.35.35,0,0,0,.227-.31,2.036,2.036,0,0,1,.03-.313,1.3,1.3,0,0,1,.608-.895,1.317,1.317,0,0,1,.387-.241,1.894,1.894,0,0,0,.714-.341c.342-.121.608.069.886.215.219.087.479.084.647.289a.729.729,0,0,1-.044.942.755.755,0,0,1-.311.191c-.533.268-.082.626-.085.941a2.068,2.068,0,0,0,.393,1c.085.166.053.365.156.527a1.079,1.079,0,0,1,.213.968c-.054.168-.212.293-.2.488a1.431,1.431,0,0,1,.024.428,1.015,1.015,0,0,0,.1.8.725.725,0,0,1-.247.958,2.358,2.358,0,0,1-1.462.726c-.838.005-.225.69-.454.978-.331.339-.135.755-.158,1.138.371.712-.393,1.267-.266,1.947a.7.7,0,0,1-.422.434.735.735,0,0,1-.746-.207c-.784.938-1.294,2.068-2.126,2.981a.872.872,0,0,1-.4.419,3.071,3.071,0,0,0-1.649,1.959,6.024,6.024,0,0,1-.9,1.469,2.8,2.8,0,0,0-.08.34c-.393.846-1.123.71-1.833.633-.47.42-1.14.039-1.623.408" fill="#f8e2cb"/>
      <path id="Path_2040" data-name="Path 2040" d="M60.637,28.677a.334.334,0,0,1,.176.306c.18.2.333.021.494-.036l.343.366a3.762,3.762,0,0,0,.5.34c.218.191-.009.7.486.693.082.291.569.406.358.825a1.914,1.914,0,0,0,.482.972,1.5,1.5,0,0,0-.246,1.16,1.057,1.057,0,0,1-.186.775A6.864,6.864,0,0,1,61.257,36.9c-.251.238-.751.163-.788.643a1.658,1.658,0,0,1-1.674.314.88.88,0,0,0-.509-.134,3.852,3.852,0,0,1-3.1-1.714c-.336-.431-.61-.91-.908-1.369-.346-.532.061-1.078-.023-1.615a3.519,3.519,0,0,1,.021-1.676,7.645,7.645,0,0,0,.391-1.147c.216-1.221,1.08-1.615,2.151-1.774.592-.088,1.185-.172,1.777-.258.337.125.647.44,1.042.144l.164.02c.285.1.422.569.841.341" fill="#f8e2cb"/>
      <path id="Path_2041" data-name="Path 2041" d="M32.757,57.854c-.329.1-.606.387-.994.265-.228.067-.409.276-.676.224-.241-.6-.469.265-.706.006l-.329.007q-1.005-.084-1-1.533a.217.217,0,0,1,.023-.137c.042-.1.1-.233.048-.314a1.73,1.73,0,0,1,.236-2.149c.189-.139.316-.344.5-.485a.685.685,0,0,1,.227-.058c.521.087.471-.373.616-.646a15.825,15.825,0,0,1,1.146-2.777c.542-.308.361-1.147,1.008-1.378.181-.1.407.05.578-.108.262-.112.227-.427.407-.6a.612.612,0,0,1,.2-.11c.195-.028.387-.125.589-.029a.832.832,0,0,1,.064,1.266c-.061.1-.116.2.061.245a.436.436,0,0,0,.326-.058,3.509,3.509,0,0,0,.137-.349.539.539,0,0,1,.4-.23.851.851,0,0,1,.707.27.53.53,0,0,1,.1.225,3.771,3.771,0,0,1-1.606,2.82c-.267.275-.27.692-.519.976a3.362,3.362,0,0,0-.863,1.379,7.079,7.079,0,0,0-.476.738c-.2.261-.063.526-.006.789a.483.483,0,0,0,.387.516.594.594,0,0,1,.184.119c.384.627-.219.637-.521.834a.533.533,0,0,0-.263.278" fill="#ba544c"/>
      <path id="Path_2042" data-name="Path 2042" d="M55.922,19.24a13.9,13.9,0,0,1-1.641,3.879c-.719.7-.816.717-1.653.232a1.578,1.578,0,0,1-.577-.46c-.059-.152-.142-.3-.19-.455-.015-1.178.788-2.058,1.141-3.1.061-.184.182-.343.132-.54-.238-.06-.2.242-.36.276a1.036,1.036,0,0,1-.539.1c-.306-.049-.43.265-.674.342a.536.536,0,0,1-.229-.023c-.324-.165-.467-.657-.955-.525a1.133,1.133,0,0,1-.429-.2.391.391,0,0,1-.143-.311,4.855,4.855,0,0,1,.291-.867c.817-.511,1.476-1.244,2.341-1.692.077-.233.337-.2.482-.331l.007.01c.529.037,1.1-.019,1.3.665a.847.847,0,0,0,.577.42,3.987,3.987,0,0,1,.472.483c.173.5.044,1.1.6,1.466.2.133.046.418.041.635" fill="#bb554d"/>
      <path id="Path_2043" data-name="Path 2043" d="M41.692,22.931a20.514,20.514,0,0,1,.8-5.675c.14-.528.764-.608.975-1.067.536.054,1.028.287,1.561.383.516.094.541.558.3.995-.168.3-.512.541-.313.961-.176,1.832-.537,3.645-.549,5.5a1.377,1.377,0,0,1-.229.712c-.618,1.227-1.695.823-2.574.053a1.676,1.676,0,0,1,.031-1.325.357.357,0,0,0,0-.532" fill="#bb554d"/>
      <path id="Path_2044" data-name="Path 2044" d="M43.009,53.832a1.317,1.317,0,0,1,.584-.817c.479-.358.5-1.1.975-1.545a3.838,3.838,0,0,0,.952-1.606c.115.586-.152,1.139.511,1.114.36.046.674.147.7.589a2.138,2.138,0,0,1-.2.793c-.268.394-.044.59.186.826a1.087,1.087,0,0,1,.05.506,3.966,3.966,0,0,1-.4.978l-.177.134a1.065,1.065,0,0,1-.6.345c-.087.061.079.106.037,0-.015-.036.055-.062.12-.064.109,0,.216-.012.263.118a.55.55,0,0,1-.48.3,1.035,1.035,0,0,0-.78.7c-.345.161-.4.676-.847.709a.874.874,0,0,1-.532-.183c-.191-.126-.454-.127-.6-.339a.336.336,0,0,1,.013-.332c.135-.133.27-.061.387,0-.018,0,0-.014-.017-.019a.375.375,0,0,0-.4.019c-.539-.123-.5-.471-.367-.885.149-.479.479-.869.625-1.347" fill="#f8dec8"/>
      <path id="Path_2045" data-name="Path 2045" d="M50.222,26.961a7.9,7.9,0,0,0-1.6,1.319c-.531.475-1.229.539-1.692,1.041-.317.345-.609.787-1.192.707a.3.3,0,0,1-.162-.159,4.723,4.723,0,0,1,1.693-2.583c.352-.335.432-.581.179-.962A3.2,3.2,0,0,1,50.1,24.077c.462.005.652.344.841.683a4.123,4.123,0,0,0,.336.671c.32.4.135.655-.2.89l-.174.154c-.384-.058-.409.382-.677.486" fill="#bc564e"/>
      <path id="Path_2046" data-name="Path 2046" d="M47.9,32.32c.847.07.814.791.919,1.339a11.873,11.873,0,0,1,.092,1.724,6.647,6.647,0,0,1-.036.691,7.023,7.023,0,0,1-.217.817.937.937,0,0,1-.618.625.518.518,0,0,1-.548-.257c-.074-.082.052-.019-.042-.065a2.543,2.543,0,0,1-1.29-2.079,1.076,1.076,0,0,1-.037-.343,1.16,1.16,0,0,0-.14-.533,1.137,1.137,0,0,1-.093-.453c.271-.4.34-.971.928-1.107a4.628,4.628,0,0,0,.643.091.3.3,0,0,0,.1-.109.973.973,0,0,1,.07-.263c.07-.091.151-.142.264-.078" fill="#bc564e"/>
      <path id="Path_2047" data-name="Path 2047" d="M29.058,56.823l.995,1.533-.484,1.167a20.383,20.383,0,0,1-2.346,1.013c-.455-.085-.483-.526-.682-.824.052-.115.077-.305.158-.332a1.1,1.1,0,0,0,.707-.821,3.139,3.139,0,0,1,.364-.521.321.321,0,0,0,.318-.3l.97-.919" fill="#c05b52"/>
      <path id="Path_2048" data-name="Path 2048" d="M47.374,46.445c.328-.462,1.046-.146,1.343-.672a.453.453,0,0,1,.687.213c.152.271.291-.27.5,0s.13.526.152.794c-.041.115-.081.231-.121.346-.165.835-.241,1.719-1.192,2.112a.485.485,0,0,1-.326-.148c-.338-.543-1.1-.58-1.4-1.181-.014-.518-.347-1.114.352-1.462" fill="#f8ddc6"/>
      <path id="Path_2049" data-name="Path 2049" d="M44.695,18.408c-.139-.352-.212-.656.263-.848a.464.464,0,0,0,.23-.573c-.075-.2-.367-.316-.487-.216-.86.711-.866-.3-1.231-.582.731-1.29,1.507-1.476,2.749-.662a.662.662,0,0,1-.023.554.578.578,0,0,0-.012.545c-.195.461.321,1.029-.213,1.44-.444.042-.769.535-1.276.342" fill="#c35f55"/>
      <path id="Path_2050" data-name="Path 2050" d="M41.661,24.789c.331-.157.561.061.827.2a1.249,1.249,0,0,0,1.5-.2.445.445,0,0,1,.421.356,1.847,1.847,0,0,0,.182.645c.069.924-.86,1.23-1.183,1.913a.692.692,0,0,1-.706.094c-.418-.2-.284-.8-.718-.987a7.984,7.984,0,0,1-.323-2.018" fill="#be5950"/>
      <path id="Path_2051" data-name="Path 2051" d="M51.074,26.32c.036-.153.248-.4.129-.428-.552-.147-.277-.652-.467-.941.181-.327.109-.727.3-1.051.269-.268.127-.636.231-.946a.621.621,0,0,1,.977-.182l.5.336a.508.508,0,0,1,.1.331.693.693,0,0,0,.089.162c.222.282.333.561-.023.825a7.867,7.867,0,0,1-1.841,1.894" fill="#c15d53"/>
      <path id="Path_2052" data-name="Path 2052" d="M50.056,46.778c-.1-.217-.2-.435-.3-.659-.324.086-.015.335-.2.508-.242-.32-.326-.826-.84-.854.12-.183.487-.4.167-.586-.7-.409-.243-.732,0-1.093a2.2,2.2,0,0,1,.393-.373c.175-.065.312-.223.517-.217a.351.351,0,0,1,.2.1.4.4,0,0,1,.054.384c-.029.072-.034.1-.021.089A.215.215,0,0,1,50.162,44c.148.02.31.028.223.253a.633.633,0,0,1,.126.906c-.308.48-.073,1.142-.455,1.621" fill="#f7d7c0"/>
      <path id="Path_2053" data-name="Path 2053" d="M26.541,59.712c.521-.076.381.527.688.67.21.2.1.435.082.662a1.122,1.122,0,0,1-.339.75c-.357.186-.8.114-1.127.436a.657.657,0,0,1-.959.111c-.322-.294-.236-.636-.011-.958l1.666-1.671" fill="#bc564e"/>
      <path id="Path_2054" data-name="Path 2054" d="M24.875,61.383c.126.267-.09.691.25.823.359.14.487-.281.708-.468a.75.75,0,0,1,1.056-.018c.145-.126.276-.3.5-.165a1.3,1.3,0,0,1-1.44,1.02c-.881.86-1.439.833-2.075-.1a.874.874,0,0,1,.154-.588l.842-.505" fill="#c15c53"/>
      <path id="Path_2055" data-name="Path 2055" d="M37.133,27.641c0-.234.32-.385.167-.658.069-.155.2-.171.348-.16.538.307,1.216.329,1.667.815.324-.043.657-.125.892.209a1.13,1.13,0,0,1,.026.713l-.08.09c-.083-.009-.181-.052-.245-.023a.5.5,0,0,1-.725-.341c-.027-.138-.19-.42-.287-.25-.408.708-.482.236-.62-.132a.281.281,0,0,0-.467-.142c-.278.185-.465,0-.675-.12Z" fill="#f8dec7"/>
      <path id="Path_2056" data-name="Path 2056" d="M48.864,19.068l.142-.135c.226-.384.519-.528.926-.256.42.741.122,1.514.1,2.276a1.472,1.472,0,0,1-.494.8c-.219.086-.448.145-.672.221-.864-.2-1.142-.9-.508-1.434.374-.313.281-.509.092-.8a.63.63,0,0,1-.055-.23c-.017-.33.306-.3.468-.443" fill="#c05b51"/>
      <path id="Path_2057" data-name="Path 2057" d="M46.367,50.643c-.219-.4-.406-.769.178-1.066.437-.223-.351-.511-.01-.781a1.345,1.345,0,0,1,1.561.118.386.386,0,0,1,.017.223c-.32.333.164.225.2.362a1.559,1.559,0,0,1,.259.375.785.785,0,0,1-.03.767c0,.057,0,.113,0,.17a1.147,1.147,0,0,1-1.208.549.517.517,0,0,1-.2-.407.816.816,0,0,0-.05-.274c-.234-.13-.495.262-.715-.036" fill="#f8dec8"/>
      <path id="Path_2058" data-name="Path 2058" d="M55.922,19.24a1.277,1.277,0,0,0-.144-.38c-.761-.9-.764-.9-.681-1.631-.157-.353-.354-.725.327-.665a2.489,2.489,0,0,1,.5,2.676" fill="#c15c53"/>
      <path id="Path_2059" data-name="Path 2059" d="M42.707,31.053c-.028-.047-.081-.095-.079-.141.018-.792-.7-.99-1.133-1.424-.172-.321-.795-.5-.324-1.024a2.954,2.954,0,0,1,1.144.369.836.836,0,0,1,.721.4,1.336,1.336,0,0,1,.214,1.191c-.073.3-.164.589-.543.626" fill="#f4d2bc"/>
      <path id="Path_2060" data-name="Path 2060" d="M48.705,36.011a.809.809,0,0,1,.2-.629c.039.68.884,1.185.439,1.987-.015.027.265.219.408.335-.1.186-.206.37-.442.412-.12.017-.239.04-.361.049-.306-.049-.616-.083-.921-.152a.467.467,0,0,1-.225-.261c-.048-.191.095-.277.208-.381l.393-.66c.341-.13.171-.479.3-.7" fill="#f7d4be"/>
      <path id="Path_2061" data-name="Path 2061" d="M27.059,60.885l.17-.5c.531-.966,1.565-.56,2.341-.858l-2.009,1.858c-.286-.046-.356-.31-.5-.5" fill="#c9685d"/>
      <path id="Path_2062" data-name="Path 2062" d="M60.469,37.545c-.186-.333-.022-.443.278-.607.9-.488,1.3-1.442,1.94-2.182.161-.188-.323-.681.287-.739.119.007.133.106.167.188-.47,1.45-1.064,2.8-2.672,3.34" fill="#f7d3bd"/>
      <path id="Path_2063" data-name="Path 2063" d="M47.376,51.309a1.275,1.275,0,0,1,1.166-.5.341.341,0,0,1,.045.513,15.433,15.433,0,0,0-1.215,2.325.736.736,0,0,1-.559-.006.313.313,0,0,1-.055-.5c.328-.3.327-.728.474-1.093-.013-.178-.151-.322-.142-.506.036-.15.074-.3.286-.233" fill="#f7d0ba"/>
      <path id="Path_2064" data-name="Path 2064" d="M42.823,29.34l-.509-.507.048-.343c.188-.253-.37-.781.314-.85l.672-.168c.242.253-.024.408-.109.589a.072.072,0,0,0-.035.11c-.041-.043-.03-.078.035-.111.428-.423.665-.073.8.248a1.411,1.411,0,0,1-.374,1.768c-.58.1-.4-.678-.843-.736" fill="#c35f55"/>
      <path id="Path_2065" data-name="Path 2065" d="M24.036,62.558c.272.046.525-.142.8.253.357.515.726-.184,1.118-.235-.311.813-1.091,1.005-1.769,1.333a6.063,6.063,0,0,1-.8-.876c.111-.26.221-.521.332-.782.336-.138.17.253.323.307" fill="#c25d54"/>
      <path id="Path_2066" data-name="Path 2066" d="M49.221,37.883l.532-.179c.009.762.671,1.381.48,2.187a.49.49,0,0,1-.017.72c-.51-.2-1.238-.025-1.422-.807a.479.479,0,0,1,.306-.363c.327-.113.348-.25.135-.524-.248-.32-.378-.685-.014-1.034" fill="#f7d0ba"/>
      <path id="Path_2067" data-name="Path 2067" d="M42.5,58.19c-.877.334-1.658.973-2.682.838l-.045-.108a.362.362,0,0,1,.123-.3,13.626,13.626,0,0,1,2.537-1.583c.314.069.553.2.509.585-.152.184-.286.383-.442.564" fill="#f8dec8"/>
      <path id="Path_2068" data-name="Path 2068" d="M36.786,59.167a1.885,1.885,0,0,1-.055-.479c.008-.07.152-.125.234-.188.487.839,1.02-.478,1.514.033.379.349,1.027-.043,1.342.484v.01a3.054,3.054,0,0,1-1.968.258,3.2,3.2,0,0,0-1.066-.118" fill="#f7d6bf"/>
      <path id="Path_2069" data-name="Path 2069" d="M47.525,16.069a2.865,2.865,0,0,1,.856,1.163,1.883,1.883,0,0,0,0,.5,2,2,0,0,1,0,1.008c-.54.1-.776-.208-.907-.664a2.1,2.1,0,0,0-.475-1.3A.768.768,0,0,1,47.2,16a.267.267,0,0,1,.328.072" fill="#c76459"/>
      <path id="Path_2070" data-name="Path 2070" d="M47.706,18.067l.675.676.054.174c.125.2-.037.443.1.64l.022.035c.015.492-.313.529-.661.457a1.376,1.376,0,0,1-.814-1.928c.171-.268.382-.427.624-.054" fill="#c05b52"/>
      <path id="Path_2071" data-name="Path 2071" d="M22.191,54.5c.729.443,1.462.879,2.184,1.332.235.147.488.313.346.668a10.9,10.9,0,0,0-2.362-1.242c-.323-.1-.307-.342-.354-.577.017-.107.129-.116.186-.181" fill="#f7d1bb"/>
      <path id="Path_2072" data-name="Path 2072" d="M18.994,49.637c.79.749.9,1.884,1.532,2.723.135.178,0,.364-.192.469a6.716,6.716,0,0,1-1.34-3.192" fill="#f7d6bf"/>
      <path id="Path_2073" data-name="Path 2073" d="M55.425,16.564c-.362.1-.316.4-.327.665-.278-.052-.335-.256-.341-.5-.278-.113-.511-.339-.835-.339-.013-.266-.062-.512-.413-.454-.317.052-.4-.227-.582-.37.271-.379.645-.189.986-.178.351.444.977.434,1.359.826.228.036.215.18.153.345" fill="#c9665b"/>
      <path id="Path_2074" data-name="Path 2074" d="M48.716,49.131c.7-.492.678-1.419,1.22-2.006.535.577-.011,1.029-.226,1.47a3.667,3.667,0,0,0-.518,1.2.506.506,0,0,1-.584-.181.391.391,0,0,1,.108-.48" fill="#f7d0ba"/>
      <path id="Path_2075" data-name="Path 2075" d="M41.17,28.464c-.068.4.284.661.324,1.024-.337-.246-.477.513-.834.165.076-.478-.07-.621-.5-.334-.188.063-.471.246-.3-.2a2.693,2.693,0,0,1,.3-.468h0c.108-.219.069-.586.491-.493.278-.072.423.08.524.308" fill="#f8dec7"/>
      <path id="Path_2076" data-name="Path 2076" d="M52.573,23.456l.174-.348a1.281,1.281,0,0,0,1.535.011,1.975,1.975,0,0,1-1.367,1.307c.242-.537-.233-.508-.5-.64a.391.391,0,0,1,.162-.33" fill="#c35f55"/>
      <path id="Path_2077" data-name="Path 2077" d="M42.676,27.64c-.348.35.011.672.12,1.106l-.434-.256a2.522,2.522,0,0,1-.377-1.684c.2-.128.33-.462.591-.364.365.137-.011.416.034.632.039.185.045.377.066.566" fill="#c76359"/>
      <path id="Path_2078" data-name="Path 2078" d="M22.191,54.5,22,54.684c-.37-.022-.521-.379-.807-.529-.082-.185-.244-.316-.337-.494l-.345-.5c.647-.293,1.208.04,1.466.885.051.165-.071.4.209.46" fill="#f7d3bd"/>
      <path id="Path_2079" data-name="Path 2079" d="M50.055,40.567a.946.946,0,0,0,.178-.677,2.734,2.734,0,0,1,.322,2.524.267.267,0,0,1-.313.075c-.263-.192-.226-.453-.167-.719a.684.684,0,0,0,.016-.486c-.125-.234-.231-.468-.036-.717" fill="#f6c3ae"/>
      <path id="Path_2080" data-name="Path 2080" d="M42.841,57.7c-.044-.291-.279-.4-.5-.51a.23.23,0,0,1-.034-.209c.3-.308.731-.3,1.1-.433l.1-.028.335.326c.1.059.1.124.014.2-.1.565-.556.7-1.01.846a.117.117,0,0,1-.049-.123c.011-.043.024-.065.038-.065" fill="#f7d4be"/>
      <path id="Path_2081" data-name="Path 2081" d="M50.233,42.414h.322c.252.239.464.487.178.84-.117.1-.176.248-.3.344a.505.505,0,0,1-.543,0l-.005-.006c-.191-.07-.4-.117-.47-.348,0-.538.236-.852.813-.827" fill="#f7d3bd"/>
      <path id="Path_2082" data-name="Path 2082" d="M44.677,56.177c-.115-.237-.23-.474-.384-.789l1.235.124a1.42,1.42,0,0,1-.487.679.263.263,0,0,1-.364-.014" fill="#f7c6b0"/>
      <path id="Path_2083" data-name="Path 2083" d="M33.779,58.847c.314-.325-.226-.384-.212-.643a.831.831,0,0,1,1.048.5c.178.238.061.374-.163.473-.294.034-.461-.193-.673-.328" fill="#f7dcc5"/>
      <path id="Path_2084" data-name="Path 2084" d="M45.388,31.015c.275.237.658.338.849.68a.284.284,0,0,1-.024.233,3.04,3.04,0,0,1-.759.419c-.973-.187-.422-.74-.287-1.194a.4.4,0,0,1,.221-.138" fill="#f3d0bb"/>
      <path id="Path_2085" data-name="Path 2085" d="M36.981,26.764c-.372.553-.785.126-1.175.037-.338-.078-.054-.228-.014-.348.453-.337.759.294,1.178.178.048.026.066.054.053.085s-.027.048-.042.048" fill="#f8dec7"/>
      <path id="Path_2086" data-name="Path 2086" d="M45.734,30.027a.661.661,0,0,1-.374.8c-.3.207-.484.03-.655-.195a.637.637,0,0,1,.11-.824c.338-.279.607,0,.878.171Z" fill="#c15d54"/>
      <path id="Path_2087" data-name="Path 2087" d="M63.141,34.205l-.167-.188a2.161,2.161,0,0,0,.063-1.05.88.88,0,0,1,.439-.824c-.19.674.124,1.431-.335,2.062" fill="#f5a693"/>
      <path id="Path_2088" data-name="Path 2088" d="M31.08,58.234c.22-.087.429-.237.683-.115-.251.283-.047.442.163.6a.968.968,0,0,1-1.015,0c-.153-.235-.084-.393.169-.487" fill="#f7d8c1"/>
      <path id="Path_2089" data-name="Path 2089" d="M34.453,59.175l.162-.474c.326.351.925-.224,1.186.351-.408.5-.906,0-1.348.123" fill="#f7d7c0"/>
      <path id="Path_2090" data-name="Path 2090" d="M23.382,63.033c.543.038.753.383.8.876a.744.744,0,0,1-.8-.876" fill="#ef9683"/>
      <path id="Path_2091" data-name="Path 2091" d="M44.844,30.479c.161.132.284.323.516.352.009.061.018.123.028.184a.374.374,0,0,0-.046.126.6.6,0,0,1-.335.35.511.511,0,0,1-.377-.049.541.541,0,0,1-.174-.2.663.663,0,0,1-.07-.644c.12-.164.262-.245.458-.119" fill="#c16259"/>
      <path id="Path_2092" data-name="Path 2092" d="M44.677,56.177l.363.014c-.328.372-.575.858-1.178.849,0-.065-.009-.13-.013-.195.341-.142.322-.73.828-.668" fill="#f6c3ad"/>
      <path id="Path_2093" data-name="Path 2093" d="M55.271,16.219c-.514-.175-1.133-.177-1.358-.826.478.233,1.12.2,1.358.826" fill="#d97b6c"/>
      <path id="Path_2094" data-name="Path 2094" d="M59.632,28.316c-.089.45-.34.305-.67.269s-.424-.112-.372-.414l1.042.145" fill="#f5b4a0"/>
      <path id="Path_2095" data-name="Path 2095" d="M46.831,53.469l.541.18-.34.362a1.25,1.25,0,0,0-.5.5l-.171.154a1.792,1.792,0,0,1,.176-1c.057-.126.226-.091.293-.2" fill="#f5a590"/>
      <path id="Path_2096" data-name="Path 2096" d="M48.722,49.635l.47.157c-.218.282-.26.7-.647.849l-.162-.669a.544.544,0,0,1,.149-.265.413.413,0,0,1,.19-.072" fill="#f7d0ba"/>
      <path id="Path_2097" data-name="Path 2097" d="M54.271,31.351a5.477,5.477,0,0,1-.022,1.676,1.541,1.541,0,0,1,.022-1.676" fill="#f7d3bd"/>
      <path id="Path_2098" data-name="Path 2098" d="M27.059,60.885c.218.115.7-.042.5.5l-.167.174-.5.165c.057-.279.113-.558.17-.836" fill="#c05b52"/>
      <path id="Path_2099" data-name="Path 2099" d="M23.372,29.16c.087.641-.348.766-.833.841a.117.117,0,0,1-.174-.007c.356-.253.546-.707,1.007-.834" fill="#f7d1ba"/>
      <path id="Path_2100" data-name="Path 2100" d="M61.307,28.947c-.085.169.2.549-.257.48-.055-.008-.695-.021-.237-.444.165-.009.3-.408.494-.036" fill="#f6b7a2"/>
      <path id="Path_2101" data-name="Path 2101" d="M50.391,43.426l.341-.17a1.158,1.158,0,0,1-.347.995l-.321-.159c-.1-.323.093-.506.327-.666" fill="#f7cdb7"/>
      <path id="Path_2102" data-name="Path 2102" d="M49.891,18.743c-.345-.168-.6.076-.885.19-.034-.537.262-.633.708-.529q.093-.141.18,0l.168.17c.04.156-.017.211-.171.166" fill="#c05b52"/>
      <path id="Path_2103" data-name="Path 2103" d="M46.175,31.832c.022-.045.043-.091.062-.137l.3.146c.114.117.27.2.319.374a.476.476,0,0,1-.074.367.569.569,0,0,1-.592.177.489.489,0,0,1-.177-.195.718.718,0,0,1,.012-.516,1.54,1.54,0,0,1,.15-.216" fill="#d48a7b"/>
      <path id="Path_2104" data-name="Path 2104" d="M40.15,27.984l-.835-.346c.529-.482.832-.26,1.019.327a.126.126,0,0,1-.184.019" fill="#f6b9a4"/>
      <path id="Path_2105" data-name="Path 2105" d="M17.81,38.235c.3.417.252.744-.158,1.151q.079-.576.158-1.151" fill="#f6b9a4"/>
      <path id="Path_2106" data-name="Path 2106" d="M31.08,58.234l-.169.487c-.253-.016-.474-.077-.53-.372.226-.079.357-.737.7-.115" fill="#f5d2bc"/>
      <path id="Path_2107" data-name="Path 2107" d="M22.365,29.994l.174.007c.059.554-.377.43-.676.494-.1-.429.253-.416.5-.5" fill="#f7d5bf"/>
      <path id="Path_2108" data-name="Path 2108" d="M46.035,16.055c-.135-.244.069-.37.184-.527.166-.057.332-.138.489.017a.364.364,0,0,1,.085.255c-.16.362-.4.5-.758.255" fill="#cf6e61"/>
      <path id="Path_2109" data-name="Path 2109" d="M19.671,33.685a1.21,1.21,0,0,1-.36.845c-.041-.35-.338-.81.36-.845" fill="#f7cab4"/>
      <path id="Path_2110" data-name="Path 2110" d="M46.7,15.72c0-.058,0-.116.005-.175.454-.109.783-.022.816.525l-.318,0a.226.226,0,0,1-.194.068c-.212-.058-.23-.259-.309-.416" fill="#da7b6d"/>
      <path id="Path_2111" data-name="Path 2111" d="M50.222,26.961c.1-.334.161-.727.677-.486-.176.231-.278.565-.677.486" fill="#d37366"/>
      <path id="Path_2112" data-name="Path 2112" d="M33.261,58.706l.355.169c-.182.578-.538.2-.836.153-.047-.418.324-.21.481-.322" fill="#f7d6c0"/>
      <path id="Path_2113" data-name="Path 2113" d="M62.994,31.171c-.092-.287-.588-.4-.358-.825.325.186.663.366.358.825" fill="#f6c3ae"/>
      <path id="Path_2114" data-name="Path 2114" d="M60.637,28.677c-.529.5-.671.045-.841-.341l.841.341" fill="#f7ceb8"/>
      <path id="Path_2115" data-name="Path 2115" d="M33.612,26.286c-.315.283-.51.1-.683-.176.311-.265.5-.066.683.176" fill="#f8d6c0"/>
      <path id="Path_2116" data-name="Path 2116" d="M40.15,27.984l.184-.019.313.191-.492.493a.628.628,0,0,1,0-.665" fill="#f7d4bf"/>
      <path id="Path_2117" data-name="Path 2117" d="M46.689,32.173l-.153-.333.843.177a.229.229,0,0,1,.027.226c-.273.328-.5.141-.717-.07" fill="#d6786a"/>
      <path id="Path_2118" data-name="Path 2118" d="M49.894,18.407l-.18,0a1.07,1.07,0,0,1,.381-.819c.19.337-.125.551-.2.823" fill="#c05b51"/>
      <path id="Path_2119" data-name="Path 2119" d="M52.919,15.561c-.056.264-.24.34-.483.331-.1-.494.175-.435.483-.331" fill="#d17064"/>
      <path id="Path_2120" data-name="Path 2120" d="M18.323,37.376a.788.788,0,0,1-.656.692c.122-.323.254-.635.656-.692" fill="#f6b5a0"/>
      <path id="Path_2121" data-name="Path 2121" d="M20.861,53.661c.293.042.82-.075.337.495a.492.492,0,0,1-.337-.495" fill="#f6c0ab"/>
      <path id="Path_2122" data-name="Path 2122" d="M36.981,26.764a1.173,1.173,0,0,0-.011-.133.514.514,0,0,1,.678.192l-.348.16-.319-.219" fill="#f4a08b"/>
      <path id="Path_2123" data-name="Path 2123" d="M33.261,58.706l-.481.322-.342-.1a.638.638,0,0,1,.823-.222" fill="#f7c0aa"/>
      <path id="Path_2124" data-name="Path 2124" d="M62.15,29.653c-.5.372-.372-.169-.5-.34.232.015.459.041.5.34" fill="#f6c2ac"/>
      <path id="Path_2125" data-name="Path 2125" d="M41.692,22.931a.353.353,0,0,1,.292.357c0,.2-.136.214-.291.175,0-.178,0-.355,0-.532" fill="#cc6b5e"/>
      <path id="Path_2126" data-name="Path 2126" d="M48.382,17.736c-.3-.167-.314-.335,0-.5a.312.312,0,0,1,0,.5" fill="#e48878"/>
      <path id="Path_2127" data-name="Path 2127" d="M42.841,57.7c0,.062.007.125.011.188.107.36-.155.293-.351.3,0-.239.057-.444.34-.491" fill="#f7cab4"/>
      <path id="Path_2128" data-name="Path 2128" d="M27.4,27.471c.026.1.1.241-.049.281-.079.022-.19-.069-.286-.11.046-.186.084-.385.335-.171" fill="#f7cab4"/>
      <path id="Path_2129" data-name="Path 2129" d="M35.793,59.054c.136-.164.272-.327.512-.159-.114.235-.231.461-.512.159" fill="#f7d7c0"/>
      <path id="Path_2130" data-name="Path 2130" d="M48.535,19.557a.563.563,0,0,1-.1-.64l.429.151-.328.489" fill="#eb927f"/>
      <path id="Path_2131" data-name="Path 2131" d="M46.007,55.207l-.643-.089.822-.314c-.06.134-.119.268-.179.4" fill="#f5a792"/>
      <path id="Path_2132" data-name="Path 2132" d="M58.286,37.725c.244-.237.374-.041.509.134a.534.534,0,0,1-.509-.134" fill="#f7cbb6"/>
      <path id="Path_2133" data-name="Path 2133" d="M47.374,32.172c0-.052,0-.1.005-.155l.516.3c-.061.065-.121.13-.182.194-.276.048-.39-.064-.339-.341" fill="#cd6c60"/>
      <path id="Path_2134" data-name="Path 2134" d="M27.769,58.037c.133.351-.193.381-.363.521a.523.523,0,0,1,.363-.521" fill="#ef9683"/>
      <path id="Path_2135" data-name="Path 2135" d="M46.533,54.516a.493.493,0,0,1,.5-.5,1.17,1.17,0,0,1-.5.5" fill="#f7cbb4"/>
      <path id="Path_2136" data-name="Path 2136" d="M24.036,62.558l-.323-.307c.106-.121.213-.241.32-.362l0,.669" fill="#dd8071"/>
      <path id="Path_2137" data-name="Path 2137" d="M44.685,31.159c0,.059,0,.118,0,.177.2.315-.122.548-.132.831a1.78,1.78,0,0,1-.258.376c-.26.285-.795.471-.167.974.3.241-.21.668-.043,1.028a1.2,1.2,0,0,1-.352,1.043,1.16,1.16,0,0,0-.323.806c-.026.406-.445.507-.615.8-.128.278-.274.545-.394.827a23.124,23.124,0,0,0-2.358,3.791,1.074,1.074,0,0,0-.275.472,11.221,11.221,0,0,0-.676,2.164c.089.339.082.645-.281.83l.006.011c-.161.086-.324-.056-.486,0a3.407,3.407,0,0,0-.551.306.582.582,0,0,1-.321.092c-.935-.171-1.5-.659-1.589-1.371.094-.3-.076-.568-.085-.855a.528.528,0,0,0-.114-.506.794.794,0,0,1-.049-.638.4.4,0,0,1,.252-.346A4.059,4.059,0,0,1,36.4,41.8a2.167,2.167,0,0,1,.38.025c.19-.092.081-.266.107-.4.007-.315-.112-.661.23-.887.53.231.682-.3,1-.5a.385.385,0,0,0,.255-.251c-.23-.645.038-1.291-.022-1.935a1.976,1.976,0,0,1,.491-1.426c.406-.289.043-.616.044-.924a.429.429,0,0,1,.1-.211,4.09,4.09,0,0,0,.791-.46.72.72,0,0,1,.228-.061,2.3,2.3,0,0,0,.469-.021,3.814,3.814,0,0,1,.722-.165c.393-.017.529-.232.47-.6a1.514,1.514,0,0,1,.342-1.152,2.421,2.421,0,0,1,.557-1.3,2.29,2.29,0,0,1,1.563-.693c.225.046.336.294.57.327" fill="#bb544c"/>
      <path id="Path_2138" data-name="Path 2138" d="M39.99,35.028h-.172c-.38.29-.674.094-.957-.168a1.034,1.034,0,0,1-.172-.972,1.238,1.238,0,0,0,.15-.408.451.451,0,0,0-.128-.245c-.116-.078-.187.007-.263.08-.349.335-.682.723-1.229.349a.571.571,0,0,1-.186-.313,3.624,3.624,0,0,0,.136-1.953c-.1-.279.135-.508.405-.652s.579-.192.847-.339a.623.623,0,0,1,.312.023.4.4,0,0,0,.353-.029,2.12,2.12,0,0,1,1.538.449c.055.151.07.4.17.438.573.241.6.7.6,1.219,0,.451.116.75.6.32a3.242,3.242,0,0,0,0,1.129c.344.919-.2.955-.839.978a5.925,5.925,0,0,0-.658.095c-.043-.182-.114-.182-.506,0" fill="#bb564e"/>
      <path id="Path_2139" data-name="Path 2139" d="M29.914,53.83a.6.6,0,0,1-.335.509c-.134-.064-.287-.1-.359-.251a.871.871,0,0,0-.392-.686.636.636,0,0,1-.091-.18c-.056-.171-.261-.229-.313-.4a16.567,16.567,0,0,1,.008-2.673c.087-.171.124-.382.347-.448.529-.088.76.442,1.183.56.048-.083.07-.172.116-.251a1.762,1.762,0,0,0,.181-.793c.067-.429.222-.8.74-.849a.408.408,0,0,1,.208.121.574.574,0,0,1,.132.466c-.258,1.048-.176,2.135-.375,3.19-.114.191-.131.453-.393.548-.021.007.071.042.11.067a.482.482,0,0,1,.244.438,1.273,1.273,0,0,1-.233.688c-.229.436-.426.328-.613-.031-.039-.137-.1-.093-.165-.021" fill="#be5d54"/>
      <path id="Path_2140" data-name="Path 2140" d="M23.2,44.934c-.617-.081-.542-.645-.492-.961.057-.356.48-.386.826-.214.523-.117,1.07-.458,1.51.167.222.247.157.551.17.84-.151.056-.064.112,0,.169.508.053.491.525.67.841-.164.223-.441.447,0,.669v.671h0c-.481-.011-.483-.01-.282.36.135.248.05.447-.2.31s-1.176.427-.735-.588c-.9.025-.451-.86-.814-1.223a2.172,2.172,0,0,1-.649-1.042.39.39,0,0,1,.144-.056.265.265,0,0,0-.144.056" fill="#f8e0c9"/>
      <path id="Path_2141" data-name="Path 2141" d="M30.92,48.461c-.163.318-.5.55-.334,1.017a.6.6,0,0,1-.343.665c-.134.072-.072.238-.162.331,0,.134.053.348-.008.388-.244.159-.192-.094-.272-.214a4.365,4.365,0,0,0-1.06-.846c-.286.011-.3-.114-.16-.319l.007-.006a1.688,1.688,0,0,0,.337-1.521c0-.113.007-.227.011-.34A3.155,3.155,0,0,0,29.191,47c.171-.78.391-.89,1.192-.557a.94.94,0,0,1,.11.579c-.072.337-.1.609.341.769.268.1.523.387.086.67" fill="#bc5850"/>
      <path id="Path_2142" data-name="Path 2142" d="M34.952,38.722a1.353,1.353,0,0,1,.137-1.168,7.249,7.249,0,0,1,.785-.945,2.5,2.5,0,0,0,.194-.284.864.864,0,0,1,.151-.179c.435-.278.424-1,1.063-1.075.389.069.43.359.428.674a.809.809,0,0,1-.028.235c-.091.385-.215.763-.3,1.15-.036.288-.212.546-.174.849a.9.9,0,0,1-.236.517c-.445.337-.753.724-.481,1.323a.6.6,0,0,1-.127.46.505.505,0,0,1-.34.125c-.6-.1-.747-.592-.886-1.07-.06-.2.009-.446-.183-.612" fill="#bd5951"/>
      <path id="Path_2143" data-name="Path 2143" d="M35.964,44.277a2.889,2.889,0,0,0,1.506,1.157c.166.442-.153.627-.439.828a1.017,1.017,0,0,0-.371.363,1.423,1.423,0,0,1-.305.285c-.168.173-.242.459-.552.462-.246-.119-.486.064-.732.018-.406-.221-.412-.535-.208-.9.092-.177.317-.214.413-.388a3.178,3.178,0,0,1,.552-1.829c.047-.112.093-.112.136,0" fill="#bf5f56"/>
      <path id="Path_2144" data-name="Path 2144" d="M38.483,30.52c.021.461-.357.288-.581.376-.383.151-.627.249-.347.828a1.18,1.18,0,0,1-.422,1.626.359.359,0,0,1-.214.1.5.5,0,0,1-.393-.255.846.846,0,0,1-.4-1.021,6.19,6.19,0,0,1,.846-1.507,2.438,2.438,0,0,1,.677-.323,1.155,1.155,0,0,1,.384-.021c.172.016.353.012.452.2" fill="#bf5e55"/>
      <path id="Path_2145" data-name="Path 2145" d="M30.079,44.43l.33-.169c.113-.282.229-.561.57-.638a1.936,1.936,0,0,0,.472-.268.617.617,0,0,1,.215-.081.584.584,0,0,1,.231.029.531.531,0,0,1,.179.147c.135.232.074.526.239.749.218.456.528.9.167,1.426-.343.313-.381.973-1.046.919a.7.7,0,0,1-.466-.51c-.03-.1.081-.22-.044-.309a.85.85,0,0,1-.408-.21c-.138-.176-.092-.4-.15-.594a1.9,1.9,0,0,0-.116-.152.887.887,0,0,1-.159-.243c0-.032-.009-.064-.014-.1" fill="#c1645a"/>
      <path id="Path_2146" data-name="Path 2146" d="M36.123,36.708c-.205.453-.387.934-1.035.846-.277-.261-.146-.61-.067-.853.285-.874.081-1.863.646-2.663a1.1,1.1,0,0,1,.169-.179c.344-.1.729-.363.909.22a.468.468,0,0,1-.073.226c-.292.4-.991.706-.33,1.346a.546.546,0,0,1-.048.721.425.425,0,0,0-.171.336" fill="#c1635a"/>
      <path id="Path_2147" data-name="Path 2147" d="M29.411,54.005l.168.334c-.073.181.244.424.016.52-.713.3-.375.787-.225,1.2.131.36,0,.51-.29.629a3.471,3.471,0,0,1-.691-2.186c.207-.138.113-.336.1-.516-.021-.294.082-.472.406-.458.277.048.336.328.516.48" fill="#be5c53"/>
      <path id="Path_2148" data-name="Path 2148" d="M34.953,46.456c.11.266-.033.583.168.83.95.267,1.086.788.422,1.61a.535.535,0,0,1-.242.007c-.344-.156-.335-.632-.7-.771l-.525.139a.576.576,0,0,1-.153-.286,2.552,2.552,0,0,0-.178-.733.958.958,0,0,1,.687-1.07.33.33,0,0,1,.227.094l.066.15a.135.135,0,0,1,.227.03" fill="#c06158"/>
      <path id="Path_2149" data-name="Path 2149" d="M30.251,46.445c-.953-.187-.805.861-1.314,1.171a5.33,5.33,0,0,1,.3-1.509c.255-.28.467-.6.719-.88.426-.478.506-.145.565.235.021.2.219.127.33.2a.348.348,0,0,1,.156.294c.013.219.229.366.206.6a.561.561,0,0,1-.558.506c-.414,0-.249-.418-.405-.61" fill="#c1635a"/>
      <path id="Path_2150" data-name="Path 2150" d="M23.2,43.256c-.068-.315-.555-.6-.3-.87.229-.246-.092-.73.353-.745.9-.031,1.138.165,1.3.942a3.247,3.247,0,0,1-.527.534.8.8,0,0,1-.289.156c-.177,0-.359.144-.531-.017" fill="#f8dfc9"/>
      <path id="Path_2151" data-name="Path 2151" d="M32.243,42.831a2.306,2.306,0,0,1,1.529.284.984.984,0,0,1,.1.84.589.589,0,0,1-.182.3c-.319.18-.56-.116-.848-.136a1.159,1.159,0,0,1-.655-.356,2.02,2.02,0,0,0-.259-.345c-.215-.367-.038-.526.315-.592" fill="#c46b60"/>
      <path id="Path_2152" data-name="Path 2152" d="M44.156,31.006a2.561,2.561,0,0,1-1.6.518q.078-.235.154-.471l.29-.74a.713.713,0,0,1,.62-.236c.42.005.79.078.815.61-.03.159-.088.3-.275.319" fill="#c16259"/>
      <path id="Path_2153" data-name="Path 2153" d="M23.2,43.256l.5-.169c.063-.051.173-.058.165-.176a1.1,1.1,0,0,1,.68-.328,2.11,2.11,0,0,0,.5,1.343c-.45.028-.994-.361-1.275.387-.093.246-.43.3-.339-.176.025-.128.068-.253.1-.379.161-.348-.225-.333-.333-.5" fill="#f7d7c1"/>
      <path id="Path_2154" data-name="Path 2154" d="M34.952,38.722c.47.4.581,1.05,1.012,1.48a.286.286,0,0,1,.086.2,1.348,1.348,0,0,1-.37.555.483.483,0,0,1-.216.063.354.354,0,0,1-.3-.29,5.806,5.806,0,0,1-.21-2.006" fill="#c1635a"/>
      <path id="Path_2155" data-name="Path 2155" d="M38.483,30.52l-.513-.02c-.1-.192.03-.265.17-.335.894-.01,1.834-.187,2.485.686-.512.065-.951-.416-1.484-.2a.334.334,0,0,1-.489-.007l-.169-.127" fill="#ca786c"/>
      <path id="Path_2156" data-name="Path 2156" d="M35.814,34.019a1.051,1.051,0,0,1-.148.019,3.217,3.217,0,0,1,.457-1.864c.07.4.476.54.676.841-.147.137-.116.363-.254.5-.223.2-.551.24-.731.5" fill="#c87469"/>
      <path id="Path_2157" data-name="Path 2157" d="M30.417,45.6c-.1-.072.142-.549-.262-.235-.31.241-.529.595-.917.743.206-.4.23-.891.644-1.171.125-.346.526-.115.708-.34.881.286-.28.576,0,.864.017.141-.026.206-.175.139" fill="#c2645b"/>
      <path id="Path_2158" data-name="Path 2158" d="M34.66,46.276h-.213c-.382-.088-.443-.421-.555-.718-.021-.159-.079-.311-.094-.472a.815.815,0,0,1,.343-.624.449.449,0,0,1,.461-.026,4.726,4.726,0,0,1,.058,1.839" fill="#c06158"/>
      <path id="Path_2159" data-name="Path 2159" d="M26.389,48.459a3.5,3.5,0,0,1-1.031.26c-.184,0-.347-.015-.39-.209-.05-.223.124-.283.3-.3a1.2,1.2,0,0,0,.784-.42.565.565,0,0,1,.338.671" fill="#f8e0c9"/>
      <path id="Path_2160" data-name="Path 2160" d="M28.925,47.956c.5.7.4,1.171-.336,1.522a3.275,3.275,0,0,1,.336-1.522" fill="#c77267"/>
      <path id="Path_2161" data-name="Path 2161" d="M36.46,41.912c-.216.14.064.49-.188.555s-.267-.2-.317-.384c-.144-.1-.367.022-.478-.171-.011-.112-.023-.224-.035-.336a.513.513,0,0,1,.119-.2.669.669,0,0,1,.451-.165.7.7,0,0,1,.241.067c.089.205.688.247.207.638" fill="#c16259"/>
      <path id="Path_2162" data-name="Path 2162" d="M31.084,43.755c-.3.066-.342.48-.675.5-.177-.845.534-.91,1.025-1.168.274.005.27.142.158.33v.01a4.285,4.285,0,0,1-.509.323" fill="#c9776b"/>
      <path id="Path_2163" data-name="Path 2163" d="M26.892,48.46a.526.526,0,0,1,.394.62c-.018.184-.2.135-.321.078-.3-.135-.646-.243-.411-.695.112-.121.225-.021.338,0" fill="#f8dcc5"/>
      <path id="Path_2164" data-name="Path 2164" d="M25.884,46.445a.517.517,0,0,1-.718-.517c.042-.479.51.111.717-.153a1.045,1.045,0,0,0,0,.67" fill="#f7d6c0"/>
      <path id="Path_2165" data-name="Path 2165" d="M28.9,53.665c-.56.038.019.781-.516.834q.058-.671.115-1.34a.341.341,0,0,1,.394-.033l.009.2a.23.23,0,0,1,0,.338" fill="#be5d54"/>
      <path id="Path_2166" data-name="Path 2166" d="M31.592,43.423c-.053-.11-.1-.22-.158-.331.157-.436.413-.565.809-.261a1.026,1.026,0,0,0-.315.592h-.336" fill="#c46a5f"/>
      <path id="Path_2167" data-name="Path 2167" d="M33.609,43.928a1.537,1.537,0,0,0,.164-.813c.179.249.473.437.423.807a.36.36,0,0,1-.171.149.4.4,0,0,1-.416-.143" fill="#c87468"/>
      <path id="Path_2168" data-name="Path 2168" d="M26.892,48.46c-.112.1-.225.044-.338,0l-.164,0c-.113-.223-.225-.447-.338-.671a.355.355,0,0,1,.5,0c-.168.364.271.424.336.671" fill="#f7d4be"/>
      <path id="Path_2169" data-name="Path 2169" d="M35.964,44.277l-.136,0c.149-.349-.441-.5-.229-.867a.278.278,0,0,1,.37.023c-.054.282.141.565-.005.846" fill="#ce8074"/>
      <path id="Path_2170" data-name="Path 2170" d="M34.154,43.936l.043-.014.406.515-.325.161a.325.325,0,0,1-.426-.177c-.07-.268.085-.4.3-.485" fill="#c56b60"/>
      <path id="Path_2171" data-name="Path 2171" d="M30.59,44.6c-.106.384-.424.327-.708.34-.212-.277-.106-.43.2-.507l.069.021a.345.345,0,0,0,.27.149l.172,0" fill="#cb7a6e"/>
      <path id="Path_2172" data-name="Path 2172" d="M35.62,41.573l-.177,0c-.344-.2-.2-.562-.282-.848l.291.181c.259.17.371.377.168.664" fill="#d28a7d"/>
      <path id="Path_2173" data-name="Path 2173" d="M40.158,29.319c.054-.207.169-.361.4-.252.277.133.3.35.1.586-.06-.274-.264-.331-.5-.334" fill="#f4d2bc"/>
      <path id="Path_2174" data-name="Path 2174" d="M37.133,27.642c-.059.2-.064.475-.393.319-.08-.038-.19-.2-.168-.237.14-.249.374-.022.56-.083Z" fill="#f8dec7"/>
      <path id="Path_2175" data-name="Path 2175" d="M38.139,30.165l-.17.335-.335,0a.292.292,0,0,1-.394-.19.768.768,0,0,1,.9-.14" fill="#c87469"/>
      <path id="Path_2176" data-name="Path 2176" d="M28.9,53.126l-.394.033c-.122-.091-.087-.219-.079-.34a.405.405,0,0,0,.382-.013.177.177,0,0,1,.265.086c.013.063-.111.155-.174.234" fill="#d1877b"/>
      <path id="Path_2177" data-name="Path 2177" d="M35.478,41.912c.16.054.4-.124.478.171l-.173.344a.226.226,0,0,1-.326-.014l.021-.5" fill="#c06057"/>
      <path id="Path_2178" data-name="Path 2178" d="M37.24,30.3l.394.19a.727.727,0,0,1-.664.172c.035-.162.07-.323.27-.362" fill="#d08679"/>
      <path id="Path_2179" data-name="Path 2179" d="M35.968,43.431l-.37-.023c0-.1-.005-.208-.008-.312a.252.252,0,0,1,.169-.131c.215.09.416.187.209.466" fill="#d99a8b"/>
      <path id="Path_2180" data-name="Path 2180" d="M26.053,47.452l-.169-.336h0c.368-.026.544.206.671.5-.248.185-.377.015-.5-.167" fill="#f7d4be"/>
      <path id="Path_2181" data-name="Path 2181" d="M35.759,42.965l-.169.132a.726.726,0,0,1-.133-.684l.326.014a.627.627,0,0,0-.024.538" fill="#dea493"/>
      <path id="Path_2182" data-name="Path 2182" d="M34.953,46.456l-.227-.03c.159-.148.3-.324.55-.322.125.331-.165.281-.323.352" fill="#c06057"/>
      <path id="Path_2183" data-name="Path 2183" d="M25.214,44.934c-.137-.035-.392.042-.348-.188.029-.148.227-.013.347.019,0,.056,0,.113,0,.169" fill="#f7d8c2"/>
      <path id="Path_2184" data-name="Path 2184" d="M26.053,47.452l.5.167v.17l-.5,0c-.044-.111-.1-.223,0-.335" fill="#f8e0c9"/>
      <path id="Path_2185" data-name="Path 2185" d="M28.581,49.483l.16.319c-.1.114-.206.229-.31.343.041-.223-.12-.491.15-.662" fill="#c77267"/>
      <path id="Path_2186" data-name="Path 2186" d="M42.34,57.023c0,.055,0,.11,0,.166a2.653,2.653,0,0,1-1.993,1.323c-.192.024-.351.33-.524.506-.441.022-.827-.288-1.286-.207-.108.019-.086-.171-.056-.278.484-.217,1.213.292,1.507-.5.091-.111.151-.223,0-.336a6.825,6.825,0,0,0,1.437-2.948c.026-.139.076-.3.258-.254.64.164.947-.315,1.327-.659.113.075.279.175.138.308-.233.218-.453.373-.1.685.091.08.162.315-.166.4-.666.184-.335.5-.044.785h0c0,.112,0,.223,0,.334a.482.482,0,0,1-.251.47.41.41,0,0,0-.25.2" fill="#f8e0c9"/>
      <path id="Path_2187" data-name="Path 2187" d="M39.333,47.288c.524-.6,1.342-.633,1.977-1.02a1.058,1.058,0,0,1,1.252.5,3.662,3.662,0,0,0,1.04.643,1.029,1.029,0,0,1,.359.332.535.535,0,0,1,.008.382.561.561,0,0,1-.4.309,2.97,2.97,0,0,1-.732-.107c-.636-.58-.857.287-1.3.374-.271.072-.495.259-.772.315A1,1,0,0,1,40,48.768a1.735,1.735,0,0,0-.37-.206c-.8-.413-.835-.554-.294-1.274" fill="#bc574f"/>
      <path id="Path_2188" data-name="Path 2188" d="M43.16,42.912c-.167.271-.443.118-.666.169-.241.125-.5.212-.738.345-.358.2-.805.4-1.148.056-.383-.388-1.123-.638-.769-1.438.4-.773,1.209-.965,1.881-1.357.288-.041.48-.3.77-.34a.961.961,0,0,1,.257.01.972.972,0,0,1,.6.491.748.748,0,0,1,.067.384.811.811,0,0,1-.069.236c-.16.214-.4.394-.189.723a.747.747,0,0,1,.007.721" fill="#bd5951"/>
      <path id="Path_2189" data-name="Path 2189" d="M50.233,42.414c.04.495-.711.335-.681.822a.306.306,0,0,1-.3.144.373.373,0,0,1-.2-.127.891.891,0,0,0-.5-.839c.122-.145.271-.282.164-.5-1.037-.33-.439-1.33-.779-1.955-.1-.182.209-.35.443-.4.114.183.3.048.442.1.021.024.043.048.064.073.1.158.181.474.356.394.525-.244.576.246.814.445.114.228.229.455.343.684-.183.12.008.364-.162.488a1.181,1.181,0,0,1,0,.674" fill="#f8ddc6"/>
      <path id="Path_2190" data-name="Path 2190" d="M43.172,40.9l-.5-.337a.743.743,0,0,1,.018-.673,5.684,5.684,0,0,1,2.016-2.036.584.584,0,0,1,.518.253c.084.217.282.351.4.544a.665.665,0,0,1,.053.207c.015.134-.026.267-.012.4.025.181.373.223.211.485,0,.1,0,.2,0,.306.116.337-.309.267-.361.478-.144.095-.443.044-.345.367a1.936,1.936,0,0,1-.989.233,2.6,2.6,0,0,1-1-.228" fill="#bd5a52"/>
      <path id="Path_2191" data-name="Path 2191" d="M39.975,42.111c.105.3-.061.828.6.676.154-.036.456.044.067.282-.184.112.02.235.148.255a1.174,1.174,0,0,0,1.03-.147.525.525,0,0,1,.676-.095,2.483,2.483,0,0,1,.023.284,6.8,6.8,0,0,0-2.1,1.072.472.472,0,0,1-.59.158,1.847,1.847,0,0,0-.416-.1c-.2-.011-.418.1-.6-.074a7.5,7.5,0,0,1,.649-2.348c.157-.02.3-.178.47-.057l.046.089" fill="#bd5a52"/>
      <path id="Path_2192" data-name="Path 2192" d="M39.333,47.288c-.033.427-.406,1.019.483,1a.385.385,0,0,1,.338.167.653.653,0,0,0,.659.336.208.208,0,0,1,.055.143c0,.053-.007.079-.016.079a.537.537,0,0,1-.177.158c-.344.046-.615.37-1,.27-.332-.073-.646-.344-1.009-.085a.657.657,0,0,1-.214.087.974.974,0,0,1-.569-.145,1.254,1.254,0,0,1-.418-.562,1.142,1.142,0,0,1,.019-.563l1.848-.888" fill="#be5c54"/>
      <path id="Path_2193" data-name="Path 2193" d="M43.84,51.286a1.315,1.315,0,0,1-.681.522,3.969,3.969,0,0,1-1.264.274.515.515,0,0,1-.549-.175c-.138-.414-.74-.683-.4-1.252a.7.7,0,0,1,.476-.369.557.557,0,0,1,.345.055,2.892,2.892,0,0,1,.385.374c.085.082.148.195.305.2a.445.445,0,0,1-.314-.337.638.638,0,0,1,.281-.727.675.675,0,0,1,.225-.051,1.242,1.242,0,0,0,.756-.067.736.736,0,0,1,.453.085.5.5,0,0,1,.17.7,1.953,1.953,0,0,0-.187.767" fill="#bc5950"/>
      <path id="Path_2194" data-name="Path 2194" d="M46.831,53.469l-.293.2,0-.511c-.1-.141-.2-.339-.087-.456.337-.344.175-.7.087-1.056-.014-.339-.313-.464-.5-.671l.336-.336c.361-.169.625-.681,1.133-.316a.073.073,0,0,1,.007.071.948.948,0,0,1-.135.078c-.09.113-.138.225,0,.335,0,.167,0,.333,0,.5-.057.114-.113.227-.17.34.1.122.281.155.328.327a1.626,1.626,0,0,1-.7,1.493" fill="#f8dac3"/>
      <path id="Path_2195" data-name="Path 2195" d="M39.815,54.168c-.582.79-1.551.813-2.344,1.185l-.115-.046a.545.545,0,0,1-.178-.655c.169-.23.411-.412.471-.715.135-.179.229-.4.443-.505a.512.512,0,0,1,.337.006,3.173,3.173,0,0,0,.733.231c.265.1.536.2.653.5" fill="#c3685d"/>
      <path id="Path_2196" data-name="Path 2196" d="M48.046,48.964c-.5-.127-1.051.278-1.511-.169-.025-.431-.463-.979.333-1.177.111.06.227.109.338.169.46.379,1.315.307,1.344,1.178a.367.367,0,0,1-.5,0" fill="#f8d9c3"/>
      <path id="Path_2197" data-name="Path 2197" d="M39.815,54.168,38.969,54a2.992,2.992,0,0,1-.658-.327l-.167-.174c-.281-.172-.281-.172.069-.626.466-.227.889-.537,1.378-.721a.645.645,0,0,1,.234.037c.529.238.073.751.3,1.074a.374.374,0,0,1-.139.578l-.174.329" fill="#c2645a"/>
      <path id="Path_2198" data-name="Path 2198" d="M43.51,47.621c-.425-.163-.967-.118-1.175-.663a1.546,1.546,0,0,1-.06-.558.386.386,0,0,1,.253-.2c.278.186.507-.129.773-.077l.88.508c.216.628-.26.788-.671.993" fill="#bf5e55"/>
      <path id="Path_2199" data-name="Path 2199" d="M49.221,37.883c-.061.388.187.68.311,1.012.069.186.517.073.343.4a.609.609,0,0,1-.671.36.855.855,0,0,0-.319.073h0c-.054-.062-.165-.069-.171-.177.058-.278.183-.557,0-.836-.291-.349-.2-.621.172-.833h.333" fill="#f8dfc8"/>
      <path id="Path_2200" data-name="Path 2200" d="M43.84,51.286c-.376-.135-.394-.384-.212-.689.116-.195.4-.328.221-.627-.02-.287.2-.408.381-.562.322-.107.561-.086.534.347a1.724,1.724,0,0,1-.924,1.531" fill="#bf5d54"/>
      <path id="Path_2201" data-name="Path 2201" d="M41.5,51.814c.107.107.221.053.333.012.352.164.338.434.214.737-.083.264-.429.23-.534.47l-.148.143a.67.67,0,0,1-.394.066c-.514-.109-.541-.562-.669-.945a1.149,1.149,0,0,1,.068-.665.547.547,0,0,1,.319-.216.655.655,0,0,1,.811.4" fill="#c87368"/>
      <path id="Path_2202" data-name="Path 2202" d="M46.709,38.736a.283.283,0,0,1-.3.176c-.3.114-.423-.1-.553-.305a1.188,1.188,0,0,1-.02-.7A.623.623,0,0,1,46,37.673a.971.971,0,0,1,.748-.373.641.641,0,0,1,.537.163.691.691,0,0,1,.114.666,1.674,1.674,0,0,1-.687.607" fill="#c1635a"/>
      <path id="Path_2203" data-name="Path 2203" d="M34.433,57.14c-.05.02-.1.038-.152.055a.457.457,0,0,1-.174-.3,5.083,5.083,0,0,1,1.138-1.777.359.359,0,0,1,.318.076.82.82,0,0,0,.647.477.516.516,0,0,1,.163.159c.175.558-.429.3-.561.535l-.038-.02a1.865,1.865,0,0,1-.649.43,5.884,5.884,0,0,1-.692.369" fill="#c77065"/>
      <path id="Path_2204" data-name="Path 2204" d="M37.485,48.176c.053.153.1.306.158.458-.033.3.153.574.067.875a.979.979,0,0,1-.463.344c-.415.112-.938.49-.952-.386,0-.052,0-.1-.008-.156A.261.261,0,0,1,36.3,49c.159-.227.456-.232.652-.4l.534-.423" fill="#c1645a"/>
      <path id="Path_2205" data-name="Path 2205" d="M43.845,48.121c0-.112,0-.224,0-.337-.167-.239-.082-.356.186-.384a3.86,3.86,0,0,1,.594.3,5.479,5.479,0,0,1,.538.328.225.225,0,0,1,.052.283.558.558,0,0,1-.226.819.324.324,0,0,1-.308-.009,4.356,4.356,0,0,1-.444-.292,1.312,1.312,0,0,1-.153-.145.866.866,0,0,1-.243-.566" fill="#c1635a"/>
      <path id="Path_2206" data-name="Path 2206" d="M43.16,42.912a1.513,1.513,0,0,0-.238-.5c-.561-.515-.244-.774.255-1,.266.062.346.3.469.5a.543.543,0,0,1,.035.344c-.154.236-.02.7-.521.664" fill="#c1635a"/>
      <path id="Path_2207" data-name="Path 2207" d="M41.834,52.489c.023-.221.119-.442,0-.663a1.592,1.592,0,0,1,1.325-.017c-.112.45-.6.521-.842.845-.244.189-.375.044-.483-.165" fill="#c56d62"/>
      <path id="Path_2208" data-name="Path 2208" d="M40.656,52.162a1.365,1.365,0,0,0,.332.991,1.94,1.94,0,0,1-.338.467,1.032,1.032,0,0,1-.661.218.555.555,0,0,0,0-.511c-.039-.539-.011-1.039.669-1.165" fill="#c3685e"/>
      <path id="Path_2209" data-name="Path 2209" d="M47.206,47.788c-.179.076-.313.062-.338-.17a3.9,3.9,0,0,1-.184-.365c-.282-.737-.128-.916.689-.807-.034.45-.3.871-.167,1.342" fill="#f7d2bb"/>
      <path id="Path_2210" data-name="Path 2210" d="M34.279,56.855c0,.113,0,.227,0,.34-.272.09-.344.464-.672.475-.206-.148-.5.092-.684-.161-.09-.287.094-.319.3-.328s.283-.122.207-.323c-.02-.444.283-.358.549-.336a.506.506,0,0,1,.295.333" fill="#c77065"/>
      <path id="Path_2211" data-name="Path 2211" d="M44.185,40.9c.326-.214.654.011.98,0l-.828,1a.292.292,0,0,1-.329-.046c-.125-.156-.3-.281-.312-.506a.442.442,0,0,1,.489-.443" fill="#c46a60"/>
      <path id="Path_2212" data-name="Path 2212" d="M36.8,46.1c.217-.23.534-.36.672-.67l.314,0a.212.212,0,0,1,.2.177c-.3.327-.38.84-.867,1a.261.261,0,0,1-.25.062c-.252-.16-.234-.355-.071-.568" fill="#c3675e"/>
      <path id="Path_2213" data-name="Path 2213" d="M46.029,38.552l.379.36c.05.084.1.168.152.252-.4-.007-.444.4-.684.585l-.516-.355a.558.558,0,0,1,.169-.5c0-.057.005-.114.008-.171a.31.31,0,0,1,.2-.2.69.69,0,0,1,.289.024" fill="#c56c62"/>
      <path id="Path_2214" data-name="Path 2214" d="M44.024,47.626c-.163-.063-.156.062-.176.158l-.338-.163.671-.993c.316.007.648,0,.537.48-.15.282-.17.737-.694.518" fill="#c66f65"/>
      <path id="Path_2215" data-name="Path 2215" d="M38.81,44.427c.22-.067.37-.413.669-.169-.1.133.007.244.04.362a.646.646,0,0,1-.7.659c.169-.285.049-.569-.006-.852" fill="#c4695f"/>
      <path id="Path_2216" data-name="Path 2216" d="M43.3,46.12c-.477.274.213.481.031.777-.409-.029-.547-.423-.823-.62-.054-.168.009-.219.172-.173.206.009.424-.416.62.016" fill="#c06157"/>
      <path id="Path_2217" data-name="Path 2217" d="M48.888,37.883a1.585,1.585,0,0,0-.172.834c-.17,0-.339.131-.51.005-.1-.271-.41-.5-.159-.839.28-.185.561-.05.841,0" fill="#f7cfb9"/>
      <path id="Path_2218" data-name="Path 2218" d="M45.026,48.1c-.242.175-.337-.116-.509-.161a.543.543,0,0,1,.334-.794c.331.006.3.254.317.473-.067.155.059.366-.142.482" fill="#cb7a6e"/>
      <path id="Path_2219" data-name="Path 2219" d="M48.047,37.883c.21.25.5.486.158.839a1.274,1.274,0,0,0-.8-.334.147.147,0,0,1-.092-.163,1.05,1.05,0,0,1,.267-.456.458.458,0,0,1,.312-.052l.155.166" fill="#f8dcc6"/>
      <path id="Path_2220" data-name="Path 2220" d="M42.339,46.436a.546.546,0,0,1-.005.522,1.427,1.427,0,0,0-1.024-.69c.254-.582.7,0,1.025-.17a.228.228,0,0,1,0,.338" fill="#c2665c"/>
      <path id="Path_2221" data-name="Path 2221" d="M44.857,48.965l.135.167c.263.332-.008.468-.228.623-.113-.127-.2-.328-.412-.118-.153.062-.222-.028-.273-.151a.486.486,0,0,1,.026-.242.71.71,0,0,1,.752-.279" fill="#c2665c"/>
      <path id="Path_2222" data-name="Path 2222" d="M36.943,47.576c-.191.112,0,.247-.023.369-.152.173-.383.189-.572.29a.484.484,0,0,1-.226-.028.512.512,0,0,1-.238-.511.567.567,0,0,1,.518-.475.852.852,0,0,1,.378.046.273.273,0,0,1,.163.309" fill="#c3675d"/>
      <path id="Path_2223" data-name="Path 2223" d="M36.951,48.6c0,.317-.255.409-.48.524-.392-.273-.523-.591-.172-.993l.013.006c.181-.083.276.006.337.165a.467.467,0,0,0,.3.3" fill="#ce8275"/>
      <path id="Path_2224" data-name="Path 2224" d="M44.851,47.149c-.111.265-.223.529-.334.794l-.493-.316c.3-.083.23-.657.694-.518a.3.3,0,0,1,.133.04" fill="#ce8174"/>
      <path id="Path_2225" data-name="Path 2225" d="M49.051,43.253l.177.005a.522.522,0,0,1,.109.257c-.076.407-.308.421-.616.245-.219.055-.367.02-.16-.209a1.979,1.979,0,0,1,.49-.3" fill="#f8d9c3"/>
      <path id="Path_2226" data-name="Path 2226" d="M41.834,52.489l.483.165c-.03.632-.552.218-.8.379,0-.245.181-.381.32-.544" fill="#ca786c"/>
      <path id="Path_2227" data-name="Path 2227" d="M35.812,56.361c.009-.319.5-.17.491-.51a.218.218,0,0,1,.241-.094.12.12,0,0,1,.081.141c-.035.569-.435.5-.813.463" fill="#f2d5c0"/>
      <path id="Path_2228" data-name="Path 2228" d="M36.943,47.576l-.147-.123a.689.689,0,0,1,0-.673.932.932,0,0,1,.17-.162c.051,0,.1-.006.153-.007.3.386.145.691-.176.965" fill="#cc7d71"/>
      <path id="Path_2229" data-name="Path 2229" d="M47.349,38.213l.056.176c-.175.229-.339.482-.7.347.014-.309.269-.4.48-.527a.092.092,0,0,1,.16,0" fill="#cd7d71"/>
      <path id="Path_2230" data-name="Path 2230" d="M37.47,55.353c-.066.516-.485.486-.845.546l.007-.078c-.1-.755.381-.63.833-.547Z" fill="#d59081"/>
      <path id="Path_2231" data-name="Path 2231" d="M34.433,57.14c.11-.331.39-.4.686-.446a.12.12,0,0,1,.054.128c-.012.045-.026.068-.041.068a.544.544,0,0,1-.7.25" fill="#d48e80"/>
      <path id="Path_2232" data-name="Path 2232" d="M48.722,43.76c.242,0,.448-.059.51-.335.384.06.278.276.16.5-.148.122-.274.306-.509.173l-.161-.335" fill="#f6c0ab"/>
      <path id="Path_2233" data-name="Path 2233" d="M44.183,41.731l.154.167c-.122.3-.377.345-.655.35l-.154-.155c.067-.395.317-.458.655-.362" fill="#d69284"/>
      <path id="Path_2234" data-name="Path 2234" d="M45.511,40.533c-.154-.365.274-.294.36-.479.137.032.236.07.167.257-.1.276-.367.116-.527.222" fill="#c66e64"/>
      <path id="Path_2235" data-name="Path 2235" d="M40.65,53.62c.008-.232.084-.414.338-.467l.377.023c-.271.1-.336.522-.715.444" fill="#cc7b6f"/>
      <path id="Path_2236" data-name="Path 2236" d="M32.924,57.509a1.14,1.14,0,0,1,.684.161l-.851.184c-.132-.206-.062-.314.167-.345" fill="#d69283"/>
      <path id="Path_2237" data-name="Path 2237" d="M35.132,56.89l-.013-.2a1.06,1.06,0,0,1,.654-.353c-.007.425-.356.451-.641.549" fill="#d28b7d"/>
      <path id="Path_2238" data-name="Path 2238" d="M45.026,48.1c.047-.161.095-.322.142-.482.081.226.591.421.051.692l-.193-.21" fill="#d99b8b"/>
      <path id="Path_2239" data-name="Path 2239" d="M36.649,48.3l-.337-.166c.087-.431.409-.116.608-.191a.507.507,0,0,1-.271.357" fill="#cc7d71"/>
      <path id="Path_2240" data-name="Path 2240" d="M39.826,44.433l.589.005c-.02.485-.385.247-.614.292-.07-.106-.089-.207.025-.3" fill="#d38b7e"/>
      <path id="Path_2241" data-name="Path 2241" d="M37.986,45.608l-.2-.178.527-.334a.278.278,0,0,1,0,.375l-.33.137" fill="#d59182"/>
      <path id="Path_2242" data-name="Path 2242" d="M48.716,39.553l.171.177c-.577.183-.577.183-.508-.17l.337-.007" fill="#f7d0ba"/>
      <path id="Path_2243" data-name="Path 2243" d="M38.315,45.472c0-.125,0-.25,0-.375.242-.125.369.055.511.193-.127.176-.329.147-.507.182" fill="#cc7a6e"/>
      <path id="Path_2244" data-name="Path 2244" d="M39.826,44.433c-.008.1-.017.2-.025.3l-.282-.109c-.343-.085-.258-.217-.04-.363l.347.175" fill="#bd5a51"/>
      <path id="Path_2245" data-name="Path 2245" d="M48.715,41.911c.216.256.143.418-.165.5l.165-.5" fill="#f7d3bd"/>
      <path id="Path_2246" data-name="Path 2246" d="M39.987,57.694h.436c-.069.274-.31.227-.438.336,0-.112,0-.224,0-.336" fill="#f7d7c1"/>
      <path id="Path_2247" data-name="Path 2247" d="M42.339,46.436c0-.113,0-.225,0-.338.024-.073.04-.206.074-.211.147-.02.2.115.271.217l-.172.173-.169.159" fill="#c9776b"/>
      <path id="Path_2248" data-name="Path 2248" d="M31.43,46.457c.434-.216.492-.742.845-1.025a.559.559,0,0,1,.372.353,15.474,15.474,0,0,1,.067,1.695c.183.547-.173,1.024-.2,1.544-.126.434-.088.923-.43,1.286a19.8,19.8,0,0,1-1.158,2.884c-.2-.04-.267-.216-.353-.369a.848.848,0,0,0,.026-.675,24.821,24.821,0,0,1,.473-3.693c.2-.327-.2-.606-.076-.926a1.387,1.387,0,0,1,.13-.431c.078-.159.072-.345.151-.5a.367.367,0,0,1,.154-.138" fill="#f6dec7"/>
      <path id="Path_2249" data-name="Path 2249" d="M36.295,49.467c.172.6.582,0,.839.165a1.327,1.327,0,0,1,.418.685,1.82,1.82,0,0,1,0,.369c.03.779-.484,1.147-1.087,1.448-.313.128-.721.017-.946.373-.26.066-.471.33-.781.194a.481.481,0,0,1-.127-.551c.194-.276-.252-.326-.2-.6.894.024,1.484-.267,1.407-1.328a1.072,1.072,0,0,1,.471-.76" fill="#bd5b52"/>
      <path id="Path_2250" data-name="Path 2250" d="M36.3,48.13q.085.5.172.993l-.184.189-.672-.185c-.1-.087-.265-.139-.167-.327a1.022,1.022,0,0,0-.327-1.514c.223-.159.445-.809.668,0a.4.4,0,0,1,.169.5c.113.115.227.229.341.344" fill="#c3685e"/>
      <path id="Path_2251" data-name="Path 2251" d="M33.943,56.687c-.144.132-.388-.033-.508.171-.054,0-.109,0-.163,0-.215-.191-.572-.275-.508-.676-.291-.339-.526-.678.012-1.007a.282.282,0,0,1,.21-.071.922.922,0,0,1,.465.317c.125.219.378.217.568.324a.555.555,0,0,1,.22.293.582.582,0,0,1-.3.651" fill="#c4695f"/>
      <path id="Path_2252" data-name="Path 2252" d="M33.262,54.477c-.048-.68.419-1.065.843-1.475a2.523,2.523,0,0,1,.335.12.531.531,0,0,1,.191.313c.006.775-.563.978-1.154,1.158a.274.274,0,0,1-.215-.116" fill="#c9766b"/>
      <path id="Path_2253" data-name="Path 2253" d="M34.6,48.132c.533-.108.615.264.687.646-.044.327-.139.616-.526.679-.18-.035-.37-.061-.313-.324.446-.274.177-.656.152-1" fill="#c3685e"/>
      <path id="Path_2254" data-name="Path 2254" d="M32.083,50.31l.219-1.187a.35.35,0,0,1,.641-.156c-.47.33-.1,1.2-.86,1.343" fill="#c3675d"/>
      <path id="Path_2255" data-name="Path 2255" d="M32.942,48.967l-.17,0a.42.42,0,0,1,.036-.522.76.76,0,0,1,.378-.241.533.533,0,0,1,.225,0,.471.471,0,0,1,.183.128.642.642,0,0,1,.013.635c-.212.859-.443.076-.665.007" fill="#c06057"/>
      <path id="Path_2256" data-name="Path 2256" d="M33.262,54.477l.176.025a.426.426,0,0,1,.418.461c-.189.521-.553.392-.921.248-.053-.015-.1-.027-.159-.037.166-.23.078-.637.486-.7" fill="#eecab6"/>
      <path id="Path_2257" data-name="Path 2257" d="M34.451,49.132l.342.166a.385.385,0,0,1,.123.2.324.324,0,0,1-.139.308c-.224,0-.524.206-.648-.084-.1-.239.167-.414.322-.589" fill="#bd5b52"/>
      <path id="Path_2258" data-name="Path 2258" d="M34.287,53.147,34.1,53c.308-.2.08-.722.507-.852l.168.5a.261.261,0,0,1,.081.218.4.4,0,0,1-.574.282" fill="#be5d54"/>
      <path id="Path_2259" data-name="Path 2259" d="M32.764,56.18c.2.2.444.373.508.677-.416-.04-.8-.108-.508-.677" fill="#c56b61"/>
      <path id="Path_2260" data-name="Path 2260" d="M33.607,48.959a1.1,1.1,0,0,1-.137-.695c.159-.245.311-.23.457.012a.651.651,0,0,1-.32.683" fill="#cd7f73"/>
      <path id="Path_2261" data-name="Path 2261" d="M34.8,49.453c0-.052-.007-.1-.009-.155l.5-.521a1.2,1.2,0,0,0,.158.022l.168.327L35.3,49.3c.033.232-.117.274-.3.283a.415.415,0,0,1-.205-.128" fill="#cd7f73"/>
      <path id="Path_2262" data-name="Path 2262" d="M34.947,49.465,35.3,49.3c.133.028.31.038.319.2.011.2-.206.222-.338.3-.13-.094-.449,0-.338-.337" fill="#bd5b52"/>
      <path id="Path_2263" data-name="Path 2263" d="M33.928,48.276a.439.439,0,0,0-.458-.012l-.016.017c-.183-.254-.051-.42.179-.508.188-.073.431-.164.484.181l-.039.317c-.05,0-.1.006-.15.005" fill="#da9c8d"/>
      <path id="Path_2264" data-name="Path 2264" d="M34.947,49.465l.338.337c-.169.072-.338.184-.508,0,.008-.117.017-.234.025-.352l.145.012" fill="#c66e63"/>
      <path id="Path_2265" data-name="Path 2265" d="M29.914,53.83c-.043-.191.114-.215.231-.258.034-.013.088.03.133.048l-.2.231a.575.575,0,0,0-.165-.021" fill="#d08679"/>
      <path id="Path_2266" data-name="Path 2266" d="M51.936,19.43a3.558,3.558,0,0,1-1.033.994c-.357.121-.492.682-1,.5-.152-.028-.47-.078-.366-.2.534-.609.128-1.351.353-1.988l.172-.166.333.168a.649.649,0,0,1,.25.441.334.334,0,0,0,.188.283c.195.01.376-.1.57-.055h.167a.257.257,0,0,1,.366.017" fill="#c8655a"/>
      <path id="Path_2267" data-name="Path 2267" d="M51.4,19.415c-.48.688-.48.688-.84.334a.572.572,0,0,0-.166-.5c-.178-.166-.076-.335,0-.5.787-.455.823.222,1.01.67" fill="#c05b52"/>
      <path id="Path_2268" data-name="Path 2268" d="M53.921,16.4c.43-.26.681-.08.835.339-.565.592-.561-.215-.835-.339" fill="#be5950"/>
      <path id="Path_2269" data-name="Path 2269" d="M53.572,18.589c-.34-.078-.532.282-.845.286.048-.33.1-.678.533-.681.219,0,.457.068.312.4" fill="#d06f63"/>
      <path id="Path_2270" data-name="Path 2270" d="M51.4,22.938c.049-.372.151-.681.636-.532l.21.366-.846.166" fill="#c25e54"/>
      <path id="Path_2271" data-name="Path 2271" d="M51.936,19.43l-.366-.017a.515.515,0,0,1,.545-.489c.132.237.331.5-.179.506" fill="#c05b52"/>
      <path id="Path_2272" data-name="Path 2272" d="M44.048,18.333c-.033.074-.008.223-.159.2-.042-.008-.094-.132-.086-.2a.233.233,0,0,1,.136-.165c.1-.025.121.065.109.164" fill="#c15c53"/>
      <path id="Path_2273" data-name="Path 2273" d="M44.88,54.331c.244.623-.215.751-.767.755a.561.561,0,0,1-.521-.358c-.091-.214.02-.37.18-.5a1.687,1.687,0,0,0,.3-.28c.16-.225.122-.68.575-.558.514.138.188.545.23.945" fill="#f8d9c2"/>
      <path id="Path_2274" data-name="Path 2274" d="M46.535,51.649c.1-.025.178-.273.311-.056a3.407,3.407,0,0,1-.207,1.26,1.641,1.641,0,0,0-.1.308l-.924-.177a3.861,3.861,0,0,0,.924-1.335" fill="#f7d2bc"/>
      <path id="Path_2275" data-name="Path 2275" d="M42.5,56.687c.112-.112.225-.224.337-.337a.883.883,0,0,1,.672.169h0c-.314.191-.616.458-1.01.168" fill="#f7d6c0"/>
      <path id="Path_2276" data-name="Path 2276" d="M43.514,56.015c-.057-.158-.117-.325.088-.418.108-.049.245-.011.247.115,0,.2-.206.22-.335.3Z" fill="#f7d5bf"/>
      <path id="Path_2277" data-name="Path 2277" d="M44.9,52.855a2.454,2.454,0,0,1-.419.113c-.083,0-.163-.06-.113-.148a.252.252,0,0,1,.193-.088,1.39,1.39,0,0,1,.339.123" fill="#f7d1bb"/>
      <path id="Path_2278" data-name="Path 2278" d="M46,53.769c-.2-.044-.236-.114-.2-.2a.187.187,0,0,1,.114-.1.119.119,0,0,1,.155.135.507.507,0,0,1-.068.167" fill="#f7d4bd"/>
      <path id="Path_2279" data-name="Path 2279" d="M42.84,56.015c.224-.209.449,0,.674,0h0c-.223.23-.448.1-.672,0Z" fill="#f7d6c0"/>
      <path id="Path_2280" data-name="Path 2280" d="M44.531,25.477c1.071-1.778,1.107-3.794,1.292-5.767a16.229,16.229,0,0,1,.013-1.791c.161-.146.235-.367.091-.5-.376-.359-.128-.6.1-.855.167-.359.419-.335.706-.16a3.879,3.879,0,0,1,.467.332,1.1,1.1,0,0,1,.5,1.335c-.835-.028-.038.752-.483,1.032-.134.084.915.737,1.334.493.413.177.744.4.629.941-.033.157-.049.287-.234.232-.281-.085-.591-.206-.613.241-.017.356.01.76.542.76a.271.271,0,0,1,.037.378.508.508,0,0,1-.051.123,4.829,4.829,0,0,1-.469.866c-.444.856-.637,1.8-.991,2.69-.086.217-.123.361.12.466.372.09.719.273.744.673.024.376-.491.236-.611.426-.392.622-1.271.884-1.3,1.766-.015.436-.748.307-.664.829-.126.046-.3.171-.369.128-.542-.351-.452.077-.48.368l-.328.207c-.056.067-.11.066-.163,0-.083-.354-.571-.187-.67-.52-.116-.054-.117-.11,0-.169-.093-.521.409-1,.09-1.551-.153-.266-.243-.493-.592-.3h0l.171-.674c-.106-.322.021-.511.286-.72.313-.246.781-.425.715-.968-.087-.19.051-.247.182-.308" fill="#ba544c"/>
      <path id="Path_2281" data-name="Path 2281" d="M50.073,24.289c-.005-.222.121-.319.326-.34.6-.337.6-.337.838,0a3.929,3.929,0,0,0-.043.715c.051.457-.24.3-.458.285-.2-.242-.3-.582-.663-.662" fill="#c9675c"/>
      <path id="Path_2282" data-name="Path 2282" d="M49.5,26.463a.654.654,0,0,1,.647-.227c-.159.287-.345.307-.647.227" fill="#c8655a"/>
      <path id="Path_2283" data-name="Path 2283" d="M49.9,25.648a.788.788,0,0,1-.126-.18c-.023-.066-.01-.168.094-.129.055.02.09.116.113.184.009.025-.044.071-.081.125" fill="#c8655a"/>
      <path id="Path_2284" data-name="Path 2284" d="M44.669,38.035a17.806,17.806,0,0,1-1.855,2.018,1.194,1.194,0,0,1-.341.422,1.2,1.2,0,0,0-.64.6,7.321,7.321,0,0,0-1.857,1.039l.019-.045c-.134-.076-.275-.148-.211-.345.719-1.325,1.169-2.815,2.356-3.854a2.886,2.886,0,0,0,.6-.787c.236-.174.52-.3.6-.629a5.856,5.856,0,0,1,1.306-1.3,4.067,4.067,0,0,0,.489-.325c.406-.1.783-.44,1.233-.138.013.113.025.226.037.34a3.08,3.08,0,0,1,.113.452c-.091.371-.283.7-.4,1.064a.682.682,0,0,1-.09.191,2.429,2.429,0,0,0-.225.33.652.652,0,0,1-.126.164,1.686,1.686,0,0,0-.451.444,1.45,1.45,0,0,1-.549.357" fill="#f8e1cb"/>
      <path id="Path_2285" data-name="Path 2285" d="M46.2,32.679l.5-.178c.161.063.26.158.177.346l-.842,1.015c.191.28,0,.469-.158.668a.973.973,0,0,1-.672.327.6.6,0,0,1-.25-.026.462.462,0,0,1-.252-.514c.022-.251.386-.345.295-.648a.856.856,0,0,1,.111-.42,1.862,1.862,0,0,0,.173-.53.539.539,0,0,1,.147-.31c.2-.151.4-.221.6-.019.094.073.018.248.17.289" fill="#c2655b"/>
      <path id="Path_2286" data-name="Path 2286" d="M46.351,35.5c.015-.156.03-.312.044-.469.148.244.439.412.291.792a.487.487,0,0,0,.435.709.75.75,0,0,1,.589.51c-.123.162-.116.556-.478.3a1.009,1.009,0,0,0-.692-.125.605.605,0,0,1-.211-.093c-.231-.21-.147-.5-.2-.761a3.1,3.1,0,0,1,.224-.866" fill="#c06056"/>
      <path id="Path_2287" data-name="Path 2287" d="M46.871,32.847l-.176-.346-.006-.328c.228.02.456.119.685,0l.338.342.168.164c.091.317-.2.248-.338.336-.365.511-.56.342-.671-.167" fill="#c05d54"/>
      <path id="Path_2288" data-name="Path 2288" d="M46.537,37.044c.27-.169.535-.451.785.042.132.26.263.026.388-.042a.359.359,0,0,0,.3.327c-.039.116-.079.231-.119.346l-.181.169c-.281.05-.385-.17-.521-.341l-.488,0c-.133-.142-.305-.271-.165-.5" fill="#c3675d"/>
      <path id="Path_2289" data-name="Path 2289" d="M45.2,34.729a.636.636,0,0,0,.494-.377c.162-.075.36-.014.511-.132.2.109.379.226.151.473l-1.152.349a.2.2,0,0,1,0-.313" fill="#ecc7b2"/>
      <path id="Path_2290" data-name="Path 2290" d="M47.543,33.014l.338-.336c.177.052.469.1.362.32-.168.346-.46.085-.7.016" fill="#bb554d"/>
      <path id="Path_2291" data-name="Path 2291" d="M46.208,34.219c-.055.489-.319.168-.51.132.128-.151.307-.268.332-.489l.178.357" fill="#c3665c"/>
      <path id="Path_2292" data-name="Path 2292" d="M48.705,36.011c.028.288.3.683-.3.7.159-.208.046-.533.3-.7" fill="#f5c4af"/>
      <path id="Path_2293" data-name="Path 2293" d="M48.057,35.484c-.031.041-.051.1-.088.113-.08.03-.153,0-.14-.1.005-.034.069-.079.109-.083s.077.043.119.069" fill="#c4685d"/>
      <path id="Path_2294" data-name="Path 2294" d="M48.046,48.964a.525.525,0,0,1,.5,0l.165.166c0,.167,0,.335.007.5,0,.056,0,.112-.005.168-.339.236-.38-.118-.526-.266-.091-.119-.245-.217-.145-.4v-.167" fill="#f8e0c9"/>
      <path id="Path_2295" data-name="Path 2295" d="M48.416,48.09c.007-.415-.505-.309-.436-.7.007-.041.166-.105.193-.083.2.167.6.255.243.787" fill="#f7ccb6"/>
      <path id="Path_2296" data-name="Path 2296" d="M48.885,46.613c.568.219.223.44-.075.808C48.845,47.052,48.865,46.832,48.885,46.613Z" fill="#f7d2bb"/>
      <path id="Path_2297" data-name="Path 2297" d="M48.886,46.613c-.127.032-.3.116-.243-.136.017-.083.161-.22.2-.206C49.032,46.344,48.915,46.491,48.886,46.613Z" fill="#f7ccb6"/>
      <path id="Path_2298" data-name="Path 2298" d="M46.535,16.73c-.071-.345-.284-.266-.5-.169-.207-.17-.2-.339,0-.506a1.033,1.033,0,0,0,.669-.335l.349.323c-.12.268,0,.72-.518.687" fill="#c9675b"/>
      <path id="Path_2299" data-name="Path 2299" d="M44.888,15.948c.011.121-.011.225-.162.186-.072-.018-.191-.107-.184-.13.03-.092.084-.212.161-.244.158-.065.145.1.185.188" fill="#dd7f70"/>
      <path id="Path_2300" data-name="Path 2300" d="M44.531,25.477l-.182.308c-.366-.07-.141-.32-.153-.5l.335.191" fill="#dd8070"/>
      <path id="Path_2301" data-name="Path 2301" d="M51.237,23.952c-.279-.224-.559.049-.838,0,.286-.382.432-.9.985-1.023,0,.348.8.812-.147,1.026" fill="#d47467"/>
      <path id="Path_2302" data-name="Path 2302" d="M52.573,23.456l-.162.33c-.057-.076-.174-.169-.158-.225.044-.151.2-.1.32-.105" fill="#d06f63"/>
      <path id="Path_2303" data-name="Path 2303" d="M49.392,43.921a.67.67,0,0,0-.16-.5,1.552,1.552,0,0,1,0-.167l.323-.022.339.353c-.154.13-.265.324-.5.332" fill="#f6b7a1"/>
      <path id="Path_2304" data-name="Path 2304" d="M50.391,43.426l-.327.666c-.3-.083-.117-.33-.17-.5l.5-.169" fill="#f8d8c1"/>
      <path id="Path_2305" data-name="Path 2305" d="M49.9,20.927c.32-.194.537-.593,1-.5-.277.656-1.03.88-1.353,1.494-.143-.063-.257-.141-.162-.324l.516-.667" fill="#d57669"/>
      <path id="Path_2306" data-name="Path 2306" d="M49.388,21.594q.08.162.162.324c-.17.189-.345.365-.632.227-.012-.126-.025-.252-.036-.378.07-.342.281-.276.506-.173" fill="#d27265"/>
      <path id="Path_2307" data-name="Path 2307" d="M48.046,49.131l.17.336c.05.038.066.075.049.113s-.034.055-.051.055c-.361-.213-.487.252-.847.318-.044-.559.249-.744.679-.822" fill="#f8d9c3"/>
      <path id="Path_2308" data-name="Path 2308" d="M47.375,50.81c-.123.037-.312.172-.357.024-.075-.243.217-.251.354-.359,0,.112,0,.223,0,.335" fill="#f7cdb7"/>
      <path id="Path_2309" data-name="Path 2309" d="M48.214,49.636c0-.056,0-.113,0-.169.154.131.276.311.5.336l-.334.169-.169-.336" fill="#f8ddc6"/>
      <path id="Path_2310" data-name="Path 2310" d="M43.679,30c0,.056,0,.112,0,.168L43,30.314c.173-.366-.089-.654-.173-.973.3-.02.713-.223.575.4-.033.155.139.218.281.25" fill="#e19080"/>
      <path id="Path_2311" data-name="Path 2311" d="M47.534,51.976c-.116-.1-.374-.061-.327-.326.195.022.468-.034.327.326" fill="#f6bba5"/>
      <path id="Path_2312" data-name="Path 2312" d="M43.177,28.146a.3.3,0,0,1,.039.07c.058.24.5.3.311.642-.021.041-.171.058-.226.026C42.979,28.693,43.021,28.426,43.177,28.146Z" fill="#d06f63"/>
      <path id="Path_2313" data-name="Path 2313" d="M46.535,16.73c.217-.2.129-.621.518-.687.051.007.1.016.153.025.123.222.024.443,0,.665-.224.237-.447.278-.669,0" fill="#c15c53"/>
      <path id="Path_2314" data-name="Path 2314" d="M50.236,41.74c.007-.178-.193-.426.162-.489-.013.177.171.418-.162.489" fill="#f6b8a3"/>
      <path id="Path_2315" data-name="Path 2315" d="M42.5,56.687l1.01-.168c-.17.684-.756.4-1.174.5-.1-.027-.233-.061-.153-.179.058-.085.208-.107.317-.157" fill="#f8dec8"/>
      <path id="Path_2316" data-name="Path 2316" d="M45.022,31.334l.32-.193c.174.312-.64.8.176,1l.069.1a.257.257,0,0,1-.129.2.528.528,0,0,1-.489.092.553.553,0,0,1-.221-.148.584.584,0,0,1-.112-.378,1.362,1.362,0,0,1,.386-.672" fill="#e7b5a3"/>
      <path id="Path_2317" data-name="Path 2317" d="M46.175,31.832c.009.062.017.123.026.185a.427.427,0,0,1-.67.162l-.013-.041c.119-.318.393-.3.657-.306" fill="#f1c2ae"/>
      <path id="Path_2318" data-name="Path 2318" d="M45.022,31.334c-.067.218-.133.436-.2.653a.309.309,0,0,1-.477.019c-.117-.343.289-.417.345-.671h.332" fill="#c2665c"/>
      <path id="Path_2319" data-name="Path 2319" d="M44.353,30.683a.557.557,0,0,1,.163,0c.056.158.112.315.169.473-.237.158-.4.076-.529-.153l.2-.323" fill="#d48b7d"/>
      <path id="Path_2320" data-name="Path 2320" d="M45.531,32.179l.67-.162c-.008.169-.015.338-.023.507-.051.091-.1.09-.148,0a.486.486,0,0,0-.5-.005.144.144,0,0,1-.008-.23.38.38,0,0,1,.013-.106" fill="#cb766a"/>
      <path id="Path_2321" data-name="Path 2321" d="M46.03,32.52a1.456,1.456,0,0,1,.148,0c.008.051.015.1.021.155-.033.137.014.415-.18.341s.031-.325.011-.5" fill="#c3665c"/>
      <path id="Path_2322" data-name="Path 2322" d="M37.493,36.033a.227.227,0,0,0-.005-.124c.023-.051.068-.108.057-.154a3.456,3.456,0,0,1,.784-2.735c.165-.23.33-.486.513-.013.1.1.24.165.229.336a1.711,1.711,0,0,0-.114.513,1.876,1.876,0,0,0,.051.836.573.573,0,0,1-.017.68l0,.007c.006.388.3.775.006,1.164-.406.375-.065.945-.351,1.351a7.3,7.3,0,0,0-.272,1.585.977.977,0,0,1-1.15.941c-.244-.238-.118-.525-.11-.8a4.285,4.285,0,0,1-.058-.467,3.9,3.9,0,0,1,.148-.929c.013-.193.01-.387.005-.581s0-.38.01-.57c.093-.347.376-.645.271-1.043" fill="#f7e0c9"/>
      <path id="Path_2323" data-name="Path 2323" d="M44.844,34.194a.693.693,0,0,0,.208.519,1.26,1.26,0,0,1-.174.664,5.878,5.878,0,0,1-1.513,1.194c-.108-.022-.126-.136-.2-.193-.228-.359-.2-.7.18-.9a1.021,1.021,0,0,0,.5-.953.736.736,0,0,1,.79-.593.3.3,0,0,1,.209.263" fill="#c87267"/>
      <path id="Path_2324" data-name="Path 2324" d="M44.687,34.038c-.294.139-.477.47-.842.485-.559-.389.212-.572.186-.67-.09-.431-.274-.3-.385-.343-.239-.1-.619-.008-.65-.377-.026-.316.323-.32.529-.433l.65-.359a.79.79,0,0,1,.613.223c.221.235.507.423.573.773l-.173.345c-.054.279-.281.313-.5.356" fill="#be5c53"/>
      <path id="Path_2325" data-name="Path 2325" d="M37.306,40.385c.763-.062.787-.723.953-1.233.135-.416.086-.891.389-1.259a4.96,4.96,0,0,0,.151,2.183c-.158.033-.263.225-.456.154-.686.138-.161.931-.674,1.207-.257-.223-.072-.655-.371-.849a.144.144,0,0,1,.008-.2" fill="#c2655b"/>
      <path id="Path_2326" data-name="Path 2326" d="M37.306,40.385c0,.068-.005.135-.008.2-.246.3-.119.657-.168.987a.333.333,0,0,1-.189.114c-.216.013-.333-.158-.486-.262-.225-.192-.559-.26-.669-.584-.134-.229.052-.347.17-.489a1.1,1.1,0,0,1,.007-.152l.329.028c.359-.264.445-.99,1.146-.674-.045.276-.089.553-.132.829" fill="#c87367"/>
      <path id="Path_2327" data-name="Path 2327" d="M39,36.543a2.724,2.724,0,0,1-.007-1.165,5.849,5.849,0,0,1,.381.8c.3.607-.1.4-.374.37" fill="#c3675d"/>
      <path id="Path_2328" data-name="Path 2328" d="M36.631,41.239l.335.339c.116.23.215.455-.176.509l-.33-.174c.047-.273-.3-.285-.334-.5.044-.425.357-.051.505-.17" fill="#c66f64"/>
      <path id="Path_2329" data-name="Path 2329" d="M43.165,36.377l.2.193a.777.777,0,0,1-.528.668.54.54,0,0,1-.334-.2c-.074-.516.639-.243.662-.661" fill="#c4695f"/>
      <path id="Path_2330" data-name="Path 2330" d="M38.991,35.371c.006-.227.011-.453.017-.68a1.243,1.243,0,0,0,.81.338.589.589,0,0,1-.827.342" fill="#c66f64"/>
      <path id="Path_2331" data-name="Path 2331" d="M36.79,42.087a.658.658,0,0,0,.176-.51l.165,0c.1.22.228.439.1.684-.079.149-.218.258-.391.178s-.079-.225-.046-.35" fill="#c3675d"/>
      <path id="Path_2332" data-name="Path 2332" d="M44.684,32.694a.688.688,0,0,1-.51-.353l.171-.335.477-.018c.013.116.027.232.04.348a.314.314,0,0,1-.178.358" fill="#d08477"/>
      <path id="Path_2333" data-name="Path 2333" d="M38.825,42.161a.3.3,0,0,1-.21.306c-.165.068-.273-.026-.253-.185a.465.465,0,0,1,.173-.331c.136-.06.226.089.29.21" fill="#c06057"/>
      <path id="Path_2334" data-name="Path 2334" d="M42.5,37.038a.3.3,0,0,1,.334.2,1.5,1.5,0,0,1-.7.629l.363-.829" fill="#e7bba8"/>
      <path id="Path_2335" data-name="Path 2335" d="M39.99,35.028c.13-.116.217-.314.427-.278.041.007.053.182.079.28l-.506,0" fill="#c2655b"/>
      <path id="Path_2336" data-name="Path 2336" d="M39.784,41.721l.211.344c-.178.013-.353.174-.535.013l.324-.357" fill="#dea595"/>
      <path id="Path_2337" data-name="Path 2337" d="M38.344,40.23c.124-.134.24-.293.456-.154-.113.166-.207.39-.456.154" fill="#cf8578"/>
      <path id="Path_2338" data-name="Path 2338" d="M38.329,33.02q-.42,1.445-.841,2.888c-.039-.278.025-.606-.353-.717a2.023,2.023,0,0,1-.329-1.2.508.508,0,0,1,.495-.476c.532.227.736-.227,1.028-.5" fill="#c3675d"/>
      <path id="Path_2339" data-name="Path 2339" d="M37.3,33.517l-.345.506c-.08.112-.146.254-.327.165-.2-.42-.552-.071-.815-.169-.037-.468.269-.6.647-.67.168-.143.335.147.5,0h.169l.168.168" fill="#be5d54"/>
      <path id="Path_2340" data-name="Path 2340" d="M38.652,30.647a.547.547,0,0,1,.489.007c.042.141.195.353-.012.406-.27.068-.43-.142-.477-.413" fill="#bf5f55"/>
      <path id="Path_2341" data-name="Path 2341" d="M38.967,33.348c-.042-.114-.084-.227-.125-.341.324.037.591.108.3.51a.189.189,0,0,1-.179-.169" fill="#c56c62"/>
      <path id="Path_2342" data-name="Path 2342" d="M40.119,31.992c-.029.045-.055.132-.112.165-.091.053-.154-.02-.143-.107a.282.282,0,0,1,.1-.193c.089-.053.138.018.152.135" fill="#bf5f55"/>
      <path id="Path_2343" data-name="Path 2343" d="M38.967,33.348l.179.169-.189.339c-.193-.173-.126-.341.01-.508" fill="#d2897c"/>
      <path id="Path_2344" data-name="Path 2344" d="M31.265,47.454c-.085.331.043.7-.195,1l-.15,0c.118-.357-.147-.423-.387-.484-.556-.142-.521-.467-.288-.864.23.049.463-.029.694.014.162.056.225.21.326.327" fill="#c46a60"/>
      <path id="Path_2345" data-name="Path 2345" d="M28.9,53.665c0-.113,0-.225,0-.338.669-.147.438.377.5.679a.635.635,0,0,1-.506-.341" fill="#c3695f"/>
      <path id="Path_2346" data-name="Path 2346" d="M30.6,52.151a.477.477,0,0,1-.025.674l-.778.087c.363-.285.813-.316.8-.761" fill="#cd7e72"/>
      <path id="Path_2347" data-name="Path 2347" d="M29.5,52.306c-.152.042-.207-.019-.171-.111a.519.519,0,0,1,.186-.248c.087-.053.163.035.134.123a.968.968,0,0,1-.149.236" fill="#c9766a"/>
      <path id="Path_2348" data-name="Path 2348" d="M30.082,50.474c-.026-.148-.269-.235-.132-.413.022-.03.192.052.293.082-.053.111-.107.221-.161.331" fill="#c3685e"/>
      <path id="Path_2349" data-name="Path 2349" d="M23.2,44.934c.154-.138.316-.2.481-.023.017.019-.029.129-.032.128C23.5,45.009,23.348,44.971,23.2,44.934Z" fill="#f8d6c0"/>
      <path id="Path_2350" data-name="Path 2350" d="M30.912,47.281c-.247.04-.513.158-.667-.169l.006-.667c.277.537.558.5.843.007.171-.1.236.022.3.148a.347.347,0,0,1,.02.518.789.789,0,0,1-.5.163" fill="#c76f64"/>
      <path id="Path_2351" data-name="Path 2351" d="M30.211,49.477l-.239.1a.641.641,0,0,1-.059-.206c0-.03.1-.094.118-.083a1.141,1.141,0,0,1,.18.185" fill="#c16259"/>
      <path id="Path_2352" data-name="Path 2352" d="M36.629,34.189l.327-.165a.781.781,0,0,1,.179,1.168,1.73,1.73,0,0,1-.841,1.18l-.169-.67A3.2,3.2,0,0,1,36.629,34.189Z" fill="#bf5e55"/>
      <path id="Path_2353" data-name="Path 2353" d="M37.437,39.556c-.448.111-.6.721-1.144.674v-.5a1.449,1.449,0,0,1,.082-.659c.243-.528.505-.565.787-.028a.557.557,0,0,0,.162.155.322.322,0,0,1,.113.357" fill="#bf5e55"/>
      <path id="Path_2354" data-name="Path 2354" d="M37.133,39.226c-.26.037-.2-.3-.415-.348q-.213.426-.425.854c-.234.076-.275,0-.235-.236.083-.489.111-1,.744-1.11a.226.226,0,0,1,.251-.017c.29.261.186.559.08.857" fill="#c3685e"/>
      <path id="Path_2355" data-name="Path 2355" d="M37.493,36.033c.259.391,0,.7-.157,1.033-.077.1-.142.092-.2-.022.151-.926.151-.926.353-1.011" fill="#c46a60"/>
      <path id="Path_2356" data-name="Path 2356" d="M36.994,38.385H36.8c.058-.17.117-.34.175-.511.075-.195.166-.368.427-.3l.039.631c-.11.16-.238.273-.449.178" fill="#cc7c6f"/>
      <path id="Path_2357" data-name="Path 2357" d="M37.4,37.576l-.427.3c-.288-.345.145-.548.163-.832l.2.021c.023.171.046.341.068.511" fill="#d08578"/>
      <path id="Path_2358" data-name="Path 2358" d="M36.123,36.708c-.08-.093-.245-.217-.224-.274.074-.2.258-.041.4-.062l-.171.336" fill="#bf5e55"/>
      <path id="Path_2359" data-name="Path 2359" d="M35.958,47.786l-.168-.5q.167-.336.335-.671c.142.182.385.277.455.523a.344.344,0,0,1-.129.313c-.227.02-.338.211-.493.336" fill="#ca776c"/>
      <path id="Path_2360" data-name="Path 2360" d="M36.466,47.115c-.28-.054-.339-.258-.341-.5l.339-.171c.283-.051.247.186.305.338-.013.191-.042.368-.3.334" fill="#c3685e"/>
      <path id="Path_2361" data-name="Path 2361" d="M36.632,46.771l-.168-.329A.361.361,0,0,1,36.8,46.1a.635.635,0,0,0,.168.513l0,.169a.219.219,0,0,1-.331-.015" fill="#cb7a6f"/>
      <path id="Path_2362" data-name="Path 2362" d="M36.964,33.35c-.168.181-.335.071-.5,0l.338-.333.165.334" fill="#c3675d"/>
      <path id="Path_2363" data-name="Path 2363" d="M32.46,45.78l-.186-.347c.42-.463-.362-.743-.177-1.169a.336.336,0,0,1,.168-.287c.212-.133.449.144.658-.041-.007-.1-.06-.241-.012-.306.1-.13.186-.018.24.076a1.225,1.225,0,0,0,.448.562l.1.064c.194.22.107.529.243.768.185.048.343.11.17.338-.208.287-.317.643-.682.815-.572.27-.8.173-.969-.473" fill="#bd5950"/>
      <path id="Path_2364" data-name="Path 2364" d="M32.264,44.1l-.167.165c-.513-.189-.077-.568-.168-.841l.341.182a.353.353,0,0,1-.006.494" fill="#c56b61"/>
      <path id="Path_2365" data-name="Path 2365" d="M30.922,45.943l-.165-.168c-.017-.308.136-.282.333-.169.128-.038.244-.358.367-.1.133.278-.214.313-.37.438-.056.079-.111.082-.165,0" fill="#c2645b"/>
      <path id="Path_2366" data-name="Path 2366" d="M30.922,45.943l.165,0c.138.155.316.283.343.512a.359.359,0,0,1-.039.144l-.3-.149a.657.657,0,0,1-.172-.509" fill="#c06056"/>
      <path id="Path_2367" data-name="Path 2367" d="M31.084,43.755c.062-.278.265-.332.509-.323q.016.59-.509.323" fill="#bd5951"/>
      <path id="Path_2368" data-name="Path 2368" d="M31.09,45.606l-.333.169c-.121-.043-.34.1-.341-.175l.175-.139a.6.6,0,0,1,.5.145" fill="#d1877a"/>
      <path id="Path_2369" data-name="Path 2369" d="M30.419,44.6c-.1.041-.215.14-.283.112-.159-.064-.051-.174.012-.261l.271.149" fill="#be5c53"/>
      <path id="Path_2370" data-name="Path 2370" d="M36.629,34.189c.208.63.241,1.2-.5,1.513-.723-.266-.792-.568-.219-1.033.224-.181.341-.534.723-.48" fill="#be5d54"/>
      <path id="Path_2371" data-name="Path 2371" d="M32.46,45.78c.377.7.756.2,1.087-.031.182-.127.239-.443.564-.311.289.209.169.582.335.84a3.7,3.7,0,0,0-.5,1.01c-.331.639-.627.672-1.479.161a3.49,3.49,0,0,1,0-1.669" fill="#c06057"/>
      <path id="Path_2372" data-name="Path 2372" d="M32.463,47.449c.314.015.62-.343.955.077.19.238.278-.293.524-.238.231.177.592.32.175.666-.3-.044-.581-.062-.664.327l-.178.011c-.078.129-.251.087-.343.191-.053.16-.107.32-.16.479l-.471.161.162-1.674" fill="#c46a60"/>
      <path id="Path_2373" data-name="Path 2373" d="M23.867,42.912c.089.1.321.059.272.287l-.438-.111.166-.176" fill="#f6c7b1"/>
      <path id="Path_2374" data-name="Path 2374" d="M32.264,44.1l.006-.494.654.331a.871.871,0,0,1-.66.163" fill="#ce8276"/>
      <path id="Path_2375" data-name="Path 2375" d="M34.154,43.936c-.074.162-.148.323-.223.485-.179.1-.235-.068-.328-.155l0,0,.009-.34.545.008" fill="#cf8477"/>
      <path id="Path_2376" data-name="Path 2376" d="M35.957,40.354c-.016.128-.108.257,0,.383.078.241-.08.239-.241.236l-.092-.068c-.16-.345.046-.471.329-.551" fill="#d28a7c"/>
      <path id="Path_2377" data-name="Path 2377" d="M35.62,41.573l-.168-.664.175,0,0,0c.147.145.468.176.334.507l-.337.165" fill="#cd8073"/>
      <path id="Path_2378" data-name="Path 2378" d="M33.6,44.266l.328.155.346.176-.336.5c-.448-.141-.3-.525-.338-.833" fill="#c66e63"/>
      <path id="Path_2379" data-name="Path 2379" d="M35.958,41.408c-.113-.169-.224-.338-.336-.507l.339-.164.671.5c-.121.2-.364.037-.507.169h-.167" fill="#c66e63"/>
      <path id="Path_2380" data-name="Path 2380" d="M41.5,48.469c.359-.47.694-1.033,1.355-.356l-.027.109a1.379,1.379,0,0,1-.533.4.634.634,0,0,1-.66.134c-.108-.066-.185-.147-.135-.288" fill="#bf5e55"/>
      <path id="Path_2381" data-name="Path 2381" d="M43.845,48.121a.4.4,0,0,1,.34.337c-.266.463-.5.375-.707-.044l.036-.121.331-.172" fill="#c3685e"/>
      <path id="Path_2382" data-name="Path 2382" d="M41.5,48.469l.181.18c-.139.514-.459.522-.858.307a.551.551,0,0,0-.006-.162.89.89,0,0,1,.683-.325" fill="#db9f8f"/>
      <path id="Path_2383" data-name="Path 2383" d="M42.852,48.113a.923.923,0,0,1,.662.179h0a.48.48,0,0,1-.56.266c-.183-.106-.256-.242-.113-.434Z" fill="#bf5e55"/>
      <path id="Path_2384" data-name="Path 2384" d="M40.154,48.458l-.338-.167c.036-.1.067-.247.206-.194s.119.228.132.361" fill="#c3675d"/>
      <path id="Path_2385" data-name="Path 2385" d="M44.185,40.9c-.126.158-.312.278-.336.5-.361.5-.49.062-.672-.165,0-.112,0-.224,0-.336.338-.069.674-.435,1.013,0" fill="#c1635a"/>
      <path id="Path_2386" data-name="Path 2386" d="M43.177,41.241c.21.113.4.329.672.166l.334.324-.655.362a1.052,1.052,0,0,1-.351-.685v-.167" fill="#bc5850"/>
      <path id="Path_2387" data-name="Path 2387" d="M41.833,41.072c-.07-.509.315-.581.662-.69.054.04.072.08.054.119s-.038.059-.056.059l-.66.512" fill="#ce7f72"/>
      <path id="Path_2388" data-name="Path 2388" d="M42.493,40.56c0-.059,0-.119,0-.178a.368.368,0,0,1,.319-.329c.182.234-.1.342-.141.515l-.18-.008" fill="#c1635a"/>
      <path id="Path_2389" data-name="Path 2389" d="M49.15,41.538a1.006,1.006,0,0,1,.123.244c.011.083-.04.153-.135.123a.153.153,0,0,1-.066-.126,1.116,1.116,0,0,1,.078-.241" fill="#f7d0b9"/>
      <path id="Path_2390" data-name="Path 2390" d="M45.87,38.713l-.334.01a.593.593,0,0,1-.511-.341,1.7,1.7,0,0,1,.293-.233.467.467,0,0,1,.485-.015.433.433,0,0,1,.067.579" fill="#c2655b"/>
      <path id="Path_2391" data-name="Path 2391" d="M45.343,38.381l-.317,0a.42.42,0,0,0-.357-.348l.354-.491a.609.609,0,0,1,.213.106c.2.22.373.443.107.731" fill="#ce8074"/>
      <path id="Path_2392" data-name="Path 2392" d="M45.528,38.894a.645.645,0,0,1-.169.5c-.213-.257-.15-.422.169-.5" fill="#c66e64"/>
      <path id="Path_2393" data-name="Path 2393" d="M40.819,48.957c.268-.155.626-.054.859-.307.231-.014.349-.18.468-.347.275.141.624.048.872.276a.4.4,0,0,1,.111.205,1.273,1.273,0,0,1-.433.809,2.552,2.552,0,0,0-.725.668,1.412,1.412,0,0,0-.506.179l-.31.345a.877.877,0,0,0-.3.42c-.172.16-.5.126-.553.434a.564.564,0,0,1-.143.168.628.628,0,0,1-.2.088,8.215,8.215,0,0,1-1.679.828c-.287.166-.563.348-.839.53a13.078,13.078,0,0,0-1.481.724,2.764,2.764,0,0,0-.939.577,1.069,1.069,0,0,1-1.225.3l-.358-.351c.278-.44,1.076-.443,1-1.185a1.662,1.662,0,0,1,.315-.21.5.5,0,0,0,.224-.306c.066-.259.2-.437.5-.421a6.025,6.025,0,0,0,.773-.4c.324-.455,1.058-.565,1.078-1.276.417-.41.77-.933,1.477-.822a.429.429,0,0,1,.2.469,3.36,3.36,0,0,1,.119-.642.578.578,0,0,1,.148-.175,2.792,2.792,0,0,0,1.428-.549,1.1,1.1,0,0,0,.127-.026" fill="#f7e0c9"/>
      <path id="Path_2394" data-name="Path 2394" d="M38.787,49.993c-.524.16-.811.812-1.463.709-.008-.132-.016-.264-.023-.4a.882.882,0,0,1,.408-.839c.053-.14.1-.287.267-.332l.49.16a.76.76,0,0,1,.6.326.465.465,0,0,1,.005.24c-.063.114-.141.2-.287.132" fill="#c3665c"/>
      <path id="Path_2395" data-name="Path 2395" d="M38.98,49.8c0-.059-.005-.118-.008-.177-.282-.039-.389-.257-.488-.482.447-.433.835-.367,1.173.136.009.228-.263.235-.322.409a.191.191,0,0,1-.039.106.2.2,0,0,1-.316.008" fill="#c1645a"/>
      <path id="Path_2396" data-name="Path 2396" d="M39.335,49.688a.7.7,0,0,1,.322-.409c.368-.018.635-.389,1.035-.3a1.278,1.278,0,0,1-1.357.706" fill="#c9756a"/>
      <path id="Path_2397" data-name="Path 2397" d="M37.976,49.135l-.174.332a.1.1,0,0,1-.166,0c-.348-.28-.364-.558.007-.833l.333.5" fill="#bd5950"/>
      <path id="Path_2398" data-name="Path 2398" d="M38.484,49.143c.3.019.28.368.488.482-.248.01-.446-.054-.507-.331a1.52,1.52,0,0,0,.019-.151" fill="#cb7a6e"/>
      <path id="Path_2399" data-name="Path 2399" d="M43.005,48.788A1.025,1.025,0,0,0,43,48.652c-.09-.07-.086-.134.013-.192l.5-.167c.159.314.4.317.669.166v0c.347.337-.163.671,0,1.007l.171.169-.5.334h-.5a.957.957,0,0,1-.673,0l-.181-.005a.266.266,0,0,1-.066-.3c.233-.266.547-.479.58-.878" fill="#bd5a52"/>
      <path id="Path_2400" data-name="Path 2400" d="M42.518,49.632l-.027.334c-.2.124-.02.363-.153.508-.151.074.007.454-.336.338-.242-.032-.229-.184-.168-.358a.2.2,0,0,1,0-.314c.26-.188.309-.587.671-.675.055.033.075.069.061.107s-.031.06-.048.06" fill="#cb7a6e"/>
      <path id="Path_2401" data-name="Path 2401" d="M42,50.812l.335-.338c.14.533.452-.1.679.132-.1.249-.123.611-.433.694s-.349-.361-.581-.488" fill="#bf5d54"/>
      <path id="Path_2402" data-name="Path 2402" d="M40.8,51.117a.409.409,0,0,1,.354-.332c-.01.138-.212.373.066.385.608.025.269.4.28.645-.2-.068-.343-.371-.618-.163a.343.343,0,0,1-.082-.535" fill="#c06056"/>
      <path id="Path_2403" data-name="Path 2403" d="M42.672,49.971a.625.625,0,0,1,.673,0c-.224.162-.448.5-.673,0" fill="#bf5d54"/>
      <path id="Path_2404" data-name="Path 2404" d="M41.834,50.14v.314l-.369-.015c.042-.2.078-.406.369-.3" fill="#d59182"/>
      <path id="Path_2405" data-name="Path 2405" d="M35.8,53.79c.368-.5.986-.54,1.48-.808a1.34,1.34,0,0,1,.934-.09l.1.1q-.083.253-.167.506c-.005.236-.052.443-.329.5-.144.227-.156.565-.514.613-.454.237-1.014.194-1.425.546a.624.624,0,0,1-.729-.493c-.108-.43.2-.548.508-.682.058-.026.086-.133.145-.189" fill="#bd5a52"/>
      <path id="Path_2406" data-name="Path 2406" d="M35.79,55.008c.3-.79.886-.722,1.52-.5.058.041.075.079.053.115s-.042.052-.063.052l.165.6c-.217.275-.722.11-.833.546l-.33.03-.182-.01c-.262-.143-.549-.269-.46-.658a.411.411,0,0,1,.13-.175" fill="#c06158"/>
      <path id="Path_2407" data-name="Path 2407" d="M37.3,54.674a1.559,1.559,0,0,1,.01-.167c.282-.059.19-.485.5-.512q.135.639-.515.679" fill="#d2897b"/>
      <path id="Path_2408" data-name="Path 2408" d="M38.311,53.67a.934.934,0,0,1,.658.327.661.661,0,0,1-.658-.327" fill="#ce8175"/>
      <path id="Path_2409" data-name="Path 2409" d="M38.146,52.5c.668-.151,1.11-.806,1.838-.825.137.344-.19.447-.334.646a1.906,1.906,0,0,1-1.34.669h0c-.148-.132-.275-.27-.164-.489" fill="#c87267"/>
      <path id="Path_2410" data-name="Path 2410" d="M40.144,51.6a.253.253,0,0,1-.012-.122c.2-.086.3.015.358.191s.11.329.166.493a2.277,2.277,0,0,0-.669,1.166c-.143.046-.285.277-.411.14a.507.507,0,0,1,.044-.6c.128-.178.43-.246.2-.548-.194-.375.265-.46.322-.724" fill="#c87267"/>
      <path id="Path_2411" data-name="Path 2411" d="M40.144,51.6l-.322.724-.172,0a.764.764,0,0,1,.334-.647l.16-.075" fill="#bd5c53"/>
      <path id="Path_2412" data-name="Path 2412" d="M40.49,51.669c-.119-.064-.238-.128-.358-.191.049-.443.282-.544.669-.361.027.178.053.357.081.535l-.392.017" fill="#db9f8f"/>
      <path id="Path_2413" data-name="Path 2413" d="M41.4,52.447c-.04.057-.088.2-.159.21-.2.037-.3-.109-.292-.286,0-.082.1-.219.171-.227.152-.017.228.114.28.3" fill="#bf5f56"/>
      <path id="Path_2414" data-name="Path 2414" d="M46.537,37.044l.165.5c-.225.027-.348.206-.5.336-.194-.219-.575-.043-.729-.347-.121-.25.064-.376.209-.519v.013a1.215,1.215,0,0,1,.362-.225c.173-.008.24.131.329.238h.168" fill="#bd5a52"/>
      <path id="Path_2415" data-name="Path 2415" d="M47.19,37.545l.521.341c-.044.194-.2.261-.362.327-.053,0-.106,0-.16,0,0-.221,0-.443,0-.664" fill="#cc7b6e"/>
      <path id="Path_2416" data-name="Path 2416" d="M45.87,38.714a.666.666,0,0,0-.169-.5c-.145-.077-.273-.165-.222-.363.2-.218.384-.28.552.03l0,.67-.158.162" fill="#bc5850"/>
      <path id="Path_2417" data-name="Path 2417" d="M46.032,37.882a.524.524,0,0,0-.505-.009.222.222,0,0,1-.067-.258l.068-.069c.255.052.688-.255.672.337h-.168" fill="#cc7c6f"/>
      <path id="Path_2418" data-name="Path 2418" d="M33.943,56.687l.171-.672c.047-.314-.317-.448-.324-.739.15-.69.71-.259,1.064-.39a1.091,1.091,0,0,1,.43.289,2.729,2.729,0,0,1-1.005,1.68l-.336-.168" fill="#be5d54"/>
      <path id="Path_2419" data-name="Path 2419" d="M35.284,55.175c-.18.077-.312.058-.334-.172-.235-.223-.161-.447,0-.67.137-.41.538-.407.851-.543-.025.226-.217.34-.321.5a.445.445,0,0,0,.311.719v.164c-.07.134-.142.264-.33.174l-.176-.17" fill="#c16359"/>
      <path id="Path_2420" data-name="Path 2420" d="M35.46,55.345l.33-.173.33.669c-.455.148-.69,0-.66-.5" fill="#bd5951"/>
      <path id="Path_2421" data-name="Path 2421" d="M37.636,49.467H37.8q-.25.418-.5.838a.589.589,0,0,1-.166-.673l.5-.165" fill="#bc5850"/>
      <path id="Path_2422" data-name="Path 2422" d="M44.857,48.965c-.217.122-.4.318-.67.329-.2-.285.049-.457.17-.66l.5.331" fill="#cf8376"/>
      <path id="Path_2423" data-name="Path 2423" d="M44.357,48.634c-.057.22-.113.44-.17.66,0,.058,0,.116-.007.174-.452-.337.052-.671,0-1.007l.174.173" fill="#bf5d54"/>
      <path id="Path_2424" data-name="Path 2424" d="M36.632,46.771l.331.015q-.084.333-.167.666l-.345,0,.015-.335.166-.343" fill="#c06158"/>
      <path id="Path_2425" data-name="Path 2425" d="M30.912,47.281c.077-.328.317-.156.5-.163l-.146.335-.353-.172" fill="#c16158"/>
      <path id="Path_2426" data-name="Path 2426" d="M36.245,51.978c0,.576-.483.412-.79.518-.113-.057-.116-.12-.012-.19.15-.4.448-.431.8-.328" fill="#cd7e72"/>
      <path id="Path_2427" data-name="Path 2427" d="M35.444,52.306l.011.19c-.229,0,.017.437-.315.341a.218.218,0,0,1-.358-.012c0-.059,0-.118,0-.178a.953.953,0,0,1,.664-.341" fill="#c9766a"/>
      <path id="Path_2428" data-name="Path 2428" d="M34.949,54.333c0,.224,0,.447,0,.67-.257.34-.808-.188-1,.341.031.4-.278.247-.469.285a.55.55,0,0,1-.2-.1l-.347-.314c.32-.041.667-.016.861-.358l1.153-.52" fill="#cd7f73"/>
      <path id="Path_2429" data-name="Path 2429" d="M33.439,55.511c.12-.208.364-.04.511-.167.257.174.414.373.164.672l-.174-.174c-.189-.077-.45-.045-.5-.331" fill="#c2655c"/>
      <path id="Path_2430" data-name="Path 2430" d="M33.439,55.511l.5.331c-.3.066-.754.442-.659-.317.053,0,.106-.008.158-.014" fill="#bb564e"/>
      <path id="Path_2431" data-name="Path 2431" d="M34.783,52.825h.164c.119.223-.038.368-.147.528-.167.461-.246,0-.365-.036-.049-.056-.1-.113-.147-.17l.5-.322" fill="#c46a60"/>
      <path id="Path_2432" data-name="Path 2432" d="M32.932,48.483l.343-.192c-.015.242-.166.241-.343.192" fill="#cf8275"/>
      <path id="Path_2433" data-name="Path 2433" d="M48.4,23.134c0-.372-.086-.794.469-.867.149.455-.13.677-.469.867" fill="#c05b51"/>
      <path id="Path_2434" data-name="Path 2434" d="M50.4,19.249c.312.082.377.245.165.5a.641.641,0,0,1-.165-.5" fill="#cd6b60"/>
      <path id="Path_2435" data-name="Path 2435" d="M47.719,20.374c-.03.04-.05.1-.086.111-.079.03-.15,0-.137-.1,0-.033.067-.078.106-.082s.076.043.117.069" fill="#c15c53"/>
      <path id="Path_2436" data-name="Path 2436" d="M45.679,37.016c-.05.177-.1.353-.151.53h0c-.12.183-.245.354-.494.179l-.012-.18c.147-.265.3-.526.656-.528" fill="#c9776b"/>
      <path id="Path_2437" data-name="Path 2437" d="M46.351,35.5q0,.429.007.858c-.088.253-.238.345-.484.183a1.759,1.759,0,0,1,.477-1.041" fill="#c77065"/>
      <path id="Path_2438" data-name="Path 2438" d="M45.875,36.542l.483-.183c.219.224.015.455.012.683l-.339-.167c-.178.033-.242-.039-.194-.213a.214.214,0,0,1,.038-.12" fill="#bc574f"/>
      <path id="Path_2439" data-name="Path 2439" d="M44.877,35.376a.829.829,0,0,1,.174-.664.707.707,0,0,1,.152.016c0,.1,0,.209,0,.313l-.33.335" fill="#e2ae9d"/>
      <path id="Path_2440" data-name="Path 2440" d="M45.837,36.663l.194.213c-.028.254-.177.234-.352.153-.046-.165-.078-.323.158-.366" fill="#c3675d"/>
      <path id="Path_2441" data-name="Path 2441" d="M44.684,32.694l.178-.358.168.042a5.575,5.575,0,0,1,.494.478c-.055.161-.109.322-.164.482-.19-.251-.727-.139-.676-.644" fill="#c77065"/>
      <path id="Path_2442" data-name="Path 2442" d="M44.687,34.038a.592.592,0,0,1,.5-.356c.176.047.314.129.21.337a.39.39,0,0,1-.554.174l-.157-.155" fill="#c3665c"/>
      <path id="Path_2443" data-name="Path 2443" d="M45.524,32.856c-.322,0-.638,0-.494-.479l.487-.092c0,.077.006.154.008.23,0,.114,0,.227,0,.341" fill="#c06057"/>
      <path id="Path_2444" data-name="Path 2444" d="M36.994,38.385l.449-.178c-.04.33-.079.661-.119.992l-.19.026a1.791,1.791,0,0,0-.14-.84" fill="#da9d8d"/>
      <path id="Path_2445" data-name="Path 2445" d="M32.912,45.525l.149-.107a.549.549,0,0,1,.063.182c0,.033-.064.088-.106.094-.1.017-.13-.047-.106-.169" fill="#c77065"/>
      <path id="Path_2446" data-name="Path 2446" d="M43.011,48.46c0,.064-.008.128-.013.191-.253-.191-.67.017-.852-.348l.695-.178c.057.111.113.223.17.335" fill="#c36a5f"/>
      <path id="Path_2447" data-name="Path 2447" d="M45.035,37.724l.495-.178c0,.109,0,.218,0,.327l.174.341-.358.167c.016-.275-.21-.436-.309-.657" fill="#c2665c"/>
      <path id="Path_2448" data-name="Path 2448" d="M38.146,52.5l.164.489-1.032-.007c.176-.364.658-.178.868-.482" fill="#c3685d"/>
      <path id="Path_2449" data-name="Path 2449" d="M42.518,49.632c0-.056-.008-.111-.013-.167l.5-.678c.2.492-.147.666-.487.845" fill="#bf5d54"/>
      <path id="Path_2450" data-name="Path 2450" d="M38.98,49.8l.316-.008c.008.232-.044.459-.3.5-.141.023-.2-.158-.212-.3l.193-.191" fill="#d28779"/>
      <path id="Path_2451" data-name="Path 2451" d="M34.8,53.352l.147-.528.194.012c.14.34-.045.465-.341.516" fill="#d38e80"/>
    </g>
  </g>
</svg>
