<svg width="103" height="33" viewBox="0 0 103 33" fill="none" xmlns="http://www.w3.org/2000/svg">
<path fill-rule="evenodd" clip-rule="evenodd" d="M75.0047 21.8464C75.1371 28.3003 79.34 32.155 84.3227 31.9834H84.3423C87.9772 31.8863 89.2616 29.3557 89.8692 28.1587C89.9059 28.0863 89.9401 28.0188 89.9723 27.957C89.5251 28.6997 88.8772 29.3009 88.1033 29.6914C87.3293 30.0818 86.4608 30.2456 85.5977 30.1639C82.3463 29.7765 79.7078 26.0935 79.4037 21.0716C79.0114 15.5691 81.1791 11.1945 84.5139 11.322C87.9812 11.4544 90.1881 15.6132 90.1881 21.4149V32.2482L96.642 28.3249C96.6192 28.3163 96.5513 28.3228 96.4519 28.3322C95.8668 28.3878 94.1899 28.5472 94.1899 26.3632V0.287598L87.9125 4.21095C88.6923 3.95103 90.1635 4.29922 90.1635 6.46197V12.8374C88.604 11.322 86.1813 10.9787 84.4453 11.0229C79.6833 11.1062 74.8723 14.7452 75.0047 21.8464ZM16.9881 20.851C17.2824 25.4854 16.5909 30.6005 13.5552 31.2479H13.565C9.84271 32.0718 6.37545 28.7369 6.37545 22.6704V0.32204L0 4.17674C1.12796 3.82854 2.20689 4.34838 2.20689 6.38853V32.1208L4.50695 28.8252C5.06219 29.4001 5.66966 29.9222 6.3215 30.3847C7.87166 31.3397 9.65512 31.8488 11.4758 31.856C17.4099 31.856 20.9213 26.9175 20.9654 21.2875C21.0047 14.2254 16.9783 10.9347 12.4763 11.0622C9.16593 11.1701 7.27782 13.7939 6.71384 15.0935C7.15538 14.4652 7.72943 13.9415 8.39548 13.5594C9.06152 13.1772 9.80332 12.9458 10.5685 12.8817C14.1927 12.7542 16.6939 16.2165 16.9881 20.851ZM30.6758 11.7096C33.5741 11.8371 34.9326 14.3529 32.9709 16.4715L27.9883 22.0967C28.204 21.9642 28.464 22.2242 28.9004 22.744C29.6361 23.4894 32.9268 28.1386 33.6183 29.1195C34.5256 30.3749 34.0351 31.3312 33.0543 31.4146H42.5831C42.5831 31.4146 42.552 31.4108 42.4935 31.3997H52.3348L52.3621 31.4023C52.2418 31.4102 52.1526 31.4102 52.107 31.4102H52.4617C52.5975 31.4193 52.6998 31.4193 52.7544 31.4193L52.7476 31.4102H62.6167C62.2685 31.4102 59.3652 31.4102 59.3652 28.0312V10.9695L53.3037 14.6918C53.6224 14.6182 55.2653 14.3975 55.2653 16.6535V28.0312C55.2653 30.9169 53.2123 31.3382 52.399 31.3997H52.3348C51.4267 31.3101 49.5029 30.812 49.5029 28.0403V10.9786L43.3776 14.6617C44.1574 14.4459 45.4129 14.7058 45.4129 16.741V28.0207C45.4129 30.7727 43.3439 31.2833 42.3906 31.3781C41.8892 31.2641 40.4782 30.8251 38.9884 29.296C37.264 27.5261 33.2603 21.8435 32.346 20.5458C32.2748 20.4447 32.2223 20.3702 32.1912 20.3262C31.583 19.419 31.3673 18.7275 32.0146 18.0311L33.3142 16.5598C36.3058 13.3525 39.5965 11.8371 40.3763 11.7096H30.6758ZM30.7698 31.4146H30.8915L30.9161 31.4195C30.8873 31.4195 30.8371 31.4188 30.7698 31.4146ZM27.9245 28.0405C27.9245 31.0239 30.1269 31.3749 30.7698 31.4146H20.3671C20.6712 31.4146 23.8001 31.3312 23.8001 28.0356V6.1286C23.8001 4.34838 22.7212 3.67651 21.7207 4.08846L27.9245 0.32204V28.0405ZM44.7704 6.38829C44.7619 6.06095 44.819 5.73522 44.9384 5.43032C45.0578 5.12542 45.2371 4.84753 45.4657 4.61303C45.6942 4.37854 45.9674 4.1922 46.2692 4.065C46.5709 3.9378 46.8951 3.87233 47.2225 3.87244C47.8889 3.87374 48.5276 4.13937 48.9983 4.61105C49.4691 5.08272 49.7334 5.7219 49.7334 6.38829C49.7258 7.05186 49.4588 7.6861 48.9896 8.15535C48.5203 8.6246 47.8861 8.89159 47.2225 8.89923C46.566 8.88637 45.9409 8.61584 45.4821 8.14606C45.0233 7.67627 44.7677 7.04492 44.7704 6.38829ZM98.1945 28.8201C98.0748 29.1244 98.0171 29.4496 98.025 29.7766C98.0223 30.4332 98.2779 31.0645 98.7367 31.5343C99.1954 32.0041 99.8206 32.2746 100.477 32.2875C101.141 32.2799 101.775 32.0129 102.244 31.5436C102.713 31.0744 102.98 30.4401 102.988 29.7766C102.988 29.1106 102.723 28.4719 102.253 28.001C101.782 27.5301 101.143 27.2656 100.477 27.2656C100.15 27.2655 99.8263 27.3308 99.5249 27.4577C99.2235 27.5846 98.9505 27.7705 98.722 28.0045C98.4936 28.2385 98.3142 28.5158 98.1945 28.8201ZM75.6226 31.42H65.0983C65.4464 31.42 68.2615 31.42 68.2615 28.041V21.6656C68.2615 21.4103 68.2619 21.1615 68.2623 20.9191V20.9134C68.2693 17.0477 68.2733 14.8168 66.442 14.0003C64.7108 13.1323 61.6751 14.0003 59.6399 16.0355C61.1994 14.0444 64.5784 10.8812 68.4331 11.2736C72.4477 11.6398 72.4352 15.2969 72.4218 19.2088C72.421 19.4353 72.4202 19.6626 72.4202 19.8902V28.0312C72.4202 31.4102 75.2794 31.4102 75.6226 31.4102V31.42Z" fill="#072B31"/>
</svg>
