<svg xmlns="http://www.w3.org/2000/svg" xmlns:xlink="http://www.w3.org/1999/xlink" width="77.101" height="77.101" viewBox="0 0 77.101 77.101">
  <defs>
    <clipPath id="clip-path">
      <rect id="Rectangle_60" data-name="Rectangle 60" width="77.101" height="77.101" transform="translate(0 0)" fill="none"/>
    </clipPath>
  </defs>
  <g id="Group_1144" data-name="Group 1144" transform="translate(0 0)">
    <g id="Group_1143" data-name="Group 1143" clip-path="url(#clip-path)">
      <path id="Path_1048" data-name="Path 1048" d="M77.1,38.551A38.55,38.55,0,1,1,38.55,0,38.551,38.551,0,0,1,77.1,38.551" fill="#ffe2cc"/>
      <path id="Path_1049" data-name="Path 1049" d="M32.042,20.637a3.838,3.838,0,0,1,2.2,1.078c.69.589,1.5.978,2.172,1.572a8.824,8.824,0,0,0,2.043,1.691c.286.111.685-.086.864.316-.051.738.508.945,1.033,1.182a.717.717,0,0,1,.1.21c.1.455-.35,1,.216,1.384a.136.136,0,0,1,.025.156c-.515.634-.359,1.491-.726,2.165-.226.415-.719.186-1.063.339-.248.083-.25.323-.326.516-.132.291-.178.625-.558.759-.489.174-.647.5-.616,1.07.023.436.294.134.372.264a.537.537,0,0,1,.037.577.9.9,0,0,1-.12.2c-.195.438-.907.032-1.01.622-.151.685-.546.784-1.114.467a.728.728,0,0,1-.254-.834.317.317,0,0,0-.125-.328.38.38,0,0,1-.171-.352c.14-.258.36-.487.295-.818.012-.255.1-.5.085-.759a8.184,8.184,0,0,1,.855-2.515c.3-.4.076-.847-.008-1.271a1.308,1.308,0,0,1,.089-.691c.086-.3.066-.507-.335-.4a1.954,1.954,0,0,1-1.386-1.347c.054-.363.074-.691-.467-.488-.61-.208-1.254-.364-1.559-1.033a1.737,1.737,0,0,1-.087-.346,11.321,11.321,0,0,1-1.058-2.454c-.12-.3-.258-.639.14-.872.144-.088.308-.022.459-.06" fill="#de785c"/>
      <path id="Path_1050" data-name="Path 1050" d="M41.948,60.1c-.154.183-.17.507-.511.5-.283.188-.6.02-.9.086-.788-.657-.943.154-1.277.552-.457.233-.774.128-.919-.385a.751.751,0,0,1-.112-.325.692.692,0,0,0-.167-.5A.532.532,0,0,1,38,59.821a7.29,7.29,0,0,0-.159-1.193,2.275,2.275,0,0,1,.113-.965.424.424,0,0,1,.192-.153.752.752,0,0,1,.555.193.461.461,0,0,0,.617.1c.067-.123.005-.243-.008-.365.282-1.051,1.161-1.631,1.852-2.36a.7.7,0,0,1,.308-.1c.358-.008.13-.16.07-.274a2.345,2.345,0,0,1,1.2-1.835c.285-.1.3-.369.368-.608a.566.566,0,0,1,.306-.337c1.135-.1,1.336-1.118,1.811-1.864a.307.307,0,0,1,.192-.114c.255.021.383.205.506.394a.874.874,0,0,0,.314.251.479.479,0,0,1,.195.256c.25.636-.175.98-.575,1.332a.842.842,0,0,0-.078.088.884.884,0,0,1,.106-.106.772.772,0,0,1,.515-.128c.385.129.916-.2,1.163.368a.4.4,0,0,1-.025.127.461.461,0,0,1-.329.336c-.355.058-.788-.046-.865.522a.359.359,0,0,1-.468.25c-.79-.342-1.207.236-1.7.638a.8.8,0,0,1-.352.206c1.02.02,1.226.471.726,1.589-.4.14-.771-.09-1.156-.108a.183.183,0,0,0-.14,0,.245.245,0,0,0,.119.094c.286.652.5,1.293-.244,1.8-.047.032-.127.077-.113.111.289.721-.459.968-.662,1.461a1.334,1.334,0,0,1-.4.674" fill="#de785c"/>
      <path id="Path_1051" data-name="Path 1051" d="M26.625,49.556c-.264-.032-.523-.074-.624-.377-.1-.228-.25-.43-.367-.65-.328-.02-.513-.174-.493-.522a3.062,3.062,0,0,1-.481-.954,9.187,9.187,0,0,1-.306-.872c-.034-.548.5-.744.7-1.148.55.04,1.131-.23,1.651.156.156.167.267.371.425.537a1.067,1.067,0,0,1,.183.428c.033.388-.087.875.564.857a.778.778,0,0,1,.212.085c.315.3.554.7,1.035.782.886.845,1.484,1.923,2.288,2.838a7.861,7.861,0,0,0,1.938,1.9,1.559,1.559,0,0,1,.528.634.827.827,0,0,1,.022.709,1.432,1.432,0,0,1-2.557.54c-.329-.307-.808-.349-1.165-.614-.6-.289-.761-1.01-1.32-1.34.137-.337-.214-.379-.341-.557-.21-.215-.434-.417-.64-.637-.165-.189-.478-.207-.56-.491a.885.885,0,0,0-.288-.892c-.094-.18-.184-.364-.409-.416" fill="#de785c"/>
      <path id="Path_1052" data-name="Path 1052" d="M20.111,39.766a.333.333,0,0,1-.023-.15c-.235-.425-.453-.859-.719-1.267a1.376,1.376,0,0,1-.193-.74c-.088-.411-.468-.693-.5-1.129-.1-.2-.22-.407-.084-.642.171-.243.14-.558.284-.811a1.159,1.159,0,0,1,.274-.18c.2-.107.2-.283.215-.491.03-.506.128-1.031.716-1.162.335-.074.941.842.763,1.311-.2.521.313.12.3.312a1.467,1.467,0,0,1,.443.949.9.9,0,0,0,.195.6c.308.281-.144.529-.032.8a.508.508,0,0,1-.232.576c.056.077-.388-.048-.054.131.1.052.168.3.258.169.58-.858.663-.142.868.25a.855.855,0,0,0,.512.4.777.777,0,0,1,.425.382A11.026,11.026,0,0,0,24.685,41.1a1.482,1.482,0,0,1,.2.961,4.4,4.4,0,0,1-.077.915,1.059,1.059,0,0,1-1.042.81.591.591,0,0,1-.632-.319c-.117-.244.062-.418.2-.592s.382-.24.431-.561a3.64,3.64,0,0,1-1.447-.126,4.667,4.667,0,0,1-.626-.129.4.4,0,0,1-.16-.15c.177-.838-.376-1.217-.977-1.575a.8.8,0,0,1-.45-.564" fill="#df795e"/>
      <path id="Path_1053" data-name="Path 1053" d="M49.863,17.414a3.332,3.332,0,0,1,1.509.322c.471.768.952,1.522,2.021,1.463.166.072.361.113.382.345a.565.565,0,0,1-.167.229c-.057.181.127.139.195.2a.414.414,0,0,1,.157.151c.2.648-.388.9-.649,1.324a.592.592,0,0,1-.011.222c-.164.325-.312.667-.761.665a1.533,1.533,0,0,1-.821-.854.706.706,0,0,1,.005-.311.553.553,0,0,1-.373.194c-.113,0-.248,0-.314-.078a2.2,2.2,0,0,0-1.73-.685.328.328,0,0,0-.494-.067.417.417,0,0,1-.311-.051.616.616,0,0,1-.118-.2c-.054.049-.042.124-.074.183a.934.934,0,0,1-.257.3.676.676,0,0,1-.574.123.417.417,0,0,1-.273-.362,3.088,3.088,0,0,0,.016-.88.7.7,0,0,1,.025-.214,3.379,3.379,0,0,0,.177-.387,2.638,2.638,0,0,1,.113-.549,1.348,1.348,0,0,1,1.311-1.073l.166.015c.2.2.14.438.053.679.231-.3.686-.316.8-.7" fill="#df7b5f"/>
      <path id="Path_1054" data-name="Path 1054" d="M51.868,46.992a.482.482,0,0,1-.491.507c-.111.118-.308.131-.371.308-.237.664-.714.771-1.324.571-.362-.123-.715.1-1.075.029a1.328,1.328,0,0,0-1.144-.453.365.365,0,0,1-.225-.377c.172-.445.549-.373.9-.359a.578.578,0,0,1,.355.255c.08.069-.037-.029.047.044a.469.469,0,0,0-.039-.04c-.117-.16-.064-.338-.077-.507-.073-.3.426-.47.175-.808a.5.5,0,0,1,.113-.322c.381-.164.233-.87.83-.812.12.01.239.337.349-.07a5.749,5.749,0,0,1,1.368-2.425.573.573,0,0,1,.222-.018,4.533,4.533,0,0,1,.607.255.993.993,0,0,1,.377.554.8.8,0,0,1-.109.451c-.361.5-.787.981-.046,1.55.239.183.122.512-.038.771-.173.28-.437.523-.408.9" fill="#df795e"/>
      <path id="Path_1055" data-name="Path 1055" d="M43.482,19.287c.452-.152.8-.58,1.33-.524.387,0,.645-.468,1.079-.3.361.236.24.538.117.841a2.14,2.14,0,0,0,.114.984c-.1.475.685.659.4,1.2a.559.559,0,0,1-.439.108c-.287-.108-.537-.114-.651.245a1.715,1.715,0,0,1-.939.676c-.572-.079-1.159-.493-1.7.078-.8.225-.937.126-1.157-.812-.018-.244.181-.436.163-.681l.642-.7c.1-.161.51.365.419-.2.221-.3.433-.6.626-.923" fill="#df7a5e"/>
      <path id="Path_1056" data-name="Path 1056" d="M41.79,21.627c.143.511.167,1.168,1.008.821.556.572.529.837-.163,1.6a.784.784,0,0,1-.353.1c-.161,0-.332-.012-.292.241a1.191,1.191,0,0,1,0,.332.641.641,0,0,1-.44.517c-.587-.035-.438.427-.5.746a.879.879,0,0,1-.763.5c-.928-.046-1.307-.485-1.016-1.177.048-.433-.1-.909.276-1.272.727-.243.453-.9.576-1.392a12.859,12.859,0,0,1,1.5-1.364c.386-.041.11.234.167.35" fill="#df7c61"/>
      <path id="Path_1057" data-name="Path 1057" d="M22.289,42.113c.015-.13.057-.387.1-.351a1.04,1.04,0,0,0,1.386.154c.058-.037.349.179.434.332.106.19-.059.362-.214.489a.622.622,0,0,1-.154.063c-.26.115-.531.261-.558.559-.015.156.233.252.39.234.356-.042.749-.114.868-.512a5.379,5.379,0,0,0,.114-.99c.482-.142.558.2.635.534.085.153-.3.4.1.493a.552.552,0,0,1,.183.391c-.141.545-.924.922-.422,1.634.178.168.088.29-.083.368a1.112,1.112,0,0,0-.59.64c-.394.23-.486-.163-.687-.332a1.591,1.591,0,0,0-.158-.149,3.48,3.48,0,0,1-1.262-1.854,1.748,1.748,0,0,0-.727-1.184c.091-.138.118-.318.271-.417.112-.084.27,0,.378-.1" fill="#e07d61"/>
      <path id="Path_1058" data-name="Path 1058" d="M57.585,25.148a.53.53,0,0,1,0,.159,2.027,2.027,0,0,0,.078,1.438,4.813,4.813,0,0,1,.109,1.753l-.006,0c.151.529.156.959-.6.871-.351-.278-.859-.168-1.2-.48-.221-.559-.714-.985-.8-1.612a2.339,2.339,0,0,1,.011-.694,5.3,5.3,0,0,1,.176-.864.756.756,0,0,0,.074-.609c-.026-.349.309-.484.438-.744a.944.944,0,0,1,.143-.185.859.859,0,0,1,.544-.239.965.965,0,0,1,.245.023c.3.064.452.338.679.506.176.206-.082.477.1.682" fill="#df7b60"/>
      <path id="Path_1059" data-name="Path 1059" d="M21.092,34.889c-.286-.018-.68.178-.445-.475A1.127,1.127,0,0,0,19.99,33.3c-.106.41-.557.663-.306,1.2.094.2-.083.519-.42.564a1.223,1.223,0,0,0-.592-.337.829.829,0,0,1-.333-.31,1.229,1.229,0,0,1-.1-1.063.4.4,0,0,1-.008-.134c-.059-.163-.242-.243-.28-.421a4.532,4.532,0,0,0-.122-.836,5.015,5.015,0,0,0-.417-.774c-.014-.114-.229-.215-.023-.344.1-.066.124-.182.177-.279a.5.5,0,0,1,.286-.182,2.126,2.126,0,0,1,.916.148,1.793,1.793,0,0,1,.638.493c.114.127.231.248.417.109.151-.1.3-.227.5-.129.444.88.285,1.909.69,2.8.159.348.374.7.084,1.085" fill="#e07e62"/>
      <path id="Path_1060" data-name="Path 1060" d="M56.078,28.833c.487-.213.805.157,1.178.34a.565.565,0,0,1,.129.43c-.006.146-.174.329.1.408.3.062.693.019.622.52l-.042.48c-.2.419-.258,1.128-.982.42-.131-.127-.312.242-.5.332-.066.055-.152.1-.146.2a1.092,1.092,0,0,0,.146.212c.151.1.233-.032.334-.1.188-.154.383-.408.635-.242.293.191.138.545.168.83a.62.62,0,0,1-.223.3c-.33.284-.886-.044-1.146.428-.163.24-.29.66-.624.533-.395-.15-.443-.631-.55-1.016.56-.592.006-1.225.066-1.834a1.45,1.45,0,0,0-.355-.676c-.157-.569-.523-1.159.154-1.651.335.158.7-.066,1.038.089" fill="#df795e"/>
      <path id="Path_1061" data-name="Path 1061" d="M31.7,20.755c-.022.139-.274.15-.142.4.436.825.307,1.916,1.2,2.535.1.073.046.2-.054.273-.666.175-1.126-.009-1.274-.734.067-.169.277-.319.072-.527-.117-.191-.361-.2-.5-.347-.311-.262-.288.256-.5.223-.319.144-.679.157-1,.307-.459,0-.412-.281-.332-.584a.874.874,0,0,1,.417-.467,3.473,3.473,0,0,0-.389.078.973.973,0,0,1-.229-.014c-.284-.116-.625-.038-.879-.255-.4-.989-.142-1.352,1.087-1.548h0a3.624,3.624,0,0,0,.551.142.858.858,0,0,1,.793-.161c.142.4.465.085.686.177a.809.809,0,0,1,.149.055c.19.092.419.155.345.449" fill="#df7c60"/>
      <path id="Path_1062" data-name="Path 1062" d="M19.739,24.453a5.2,5.2,0,0,1,1.53-1.673.375.375,0,0,1,.56.04.62.62,0,0,1,.046.36,1.606,1.606,0,0,0,.36.915c.516.759.436.923-.41,1.07.289.009.671-.213.94.189.166.348-.036.5-.324.6a.52.52,0,0,0-.419.23.678.678,0,0,1-.17.137,3.217,3.217,0,0,1-2.794-.615.4.4,0,0,1,.094-.436.728.728,0,0,1,.264-.216c.333-.076.246-.381.323-.6" fill="#df7b5f"/>
      <path id="Path_1063" data-name="Path 1063" d="M55.238,32.872c.137.323.7.411.4.979a.719.719,0,0,0,.447-.647,1.229,1.229,0,0,1,.9-.139c.277.084.381.329.511.551a.905.905,0,0,1,.026.473c-.066.23.183.411.1.643a1.034,1.034,0,0,0-.039.155.409.409,0,0,1-.259.173,1.914,1.914,0,0,1-.209.06c-.262.1-.4.333-.577.518-.365.2.005.461-.06.686-.268.441-.864.28-1.176.642a.443.443,0,0,1-.234-.006c-.177-.109-.237-.3-.34-.466-.147-.373-.294-.747-.423-1.128a.428.428,0,0,1,.09-.2c.8-.379.7-1.009.471-1.678a1.779,1.779,0,0,1,.086-.784c.066-.118.154-.233.3-.106.1.085.059.188-.012.278" fill="#e07e62"/>
      <path id="Path_1064" data-name="Path 1064" d="M18.757,30.685l-1-.168c-.206-.115-.211-.341-.291-.526a.517.517,0,0,1-.016-.3,1,1,0,0,1,.128-1.372,2.686,2.686,0,0,1,.234-.475c.122-.161.064-.349.082-.525.013-.107.027-.214.041-.321.244-.092.579-.071.574-.47.011-.364-.014-.756.538-.7.246.079.59.218.541.45-.221,1.027.4,2.158-.373,3.1-.232.286-.332.508.052.726a.426.426,0,0,1,.089.226.532.532,0,0,1-.24.422.366.366,0,0,1-.354-.061" fill="#df7c60"/>
      <path id="Path_1065" data-name="Path 1065" d="M30.183,53.889c.566.182,1.349-.169,1.587.812.1.418,1.5.065,1.773-.45.063-.12.117-.244.175-.366.541-.415.571.4.942.391a.587.587,0,0,1,.187.124.875.875,0,0,0,.778.532.561.561,0,0,1,.349.452c-.35.451-1.12.452-1.242,1.154a.541.541,0,0,1-.67.117c-.361-.312-.051-.649-.048-1.013a.751.751,0,0,1-.958.572,3.078,3.078,0,0,0-1.372-.995c-.687-.225-1.01-.875-1.5-1.33" fill="#df7b60"/>
      <path id="Path_1066" data-name="Path 1066" d="M44.479,56.069c.015-.139.028-.277.046-.415.063-.506.3-1.129-.66-.9-.09.021-.22-.128-.327-.2.3-.573,1.128-.628,1.247-1.379.035-.218.256.027.387.039.4.039,1.034.805,1.125-.37.033-.435.575-.06.872-.136-.139.4-.086.88-.507,1.154-.422.426-.509,1.136-1.157,1.372a1.238,1.238,0,0,1-.812.926.34.34,0,0,1-.214-.091" fill="#df7b5f"/>
      <path id="Path_1067" data-name="Path 1067" d="M49.692,48.169c.507.093,1.031.3,1.092-.567.023-.339.364-.213.593-.1-.055.707-.665,1.023-1.051,1.5-.441.613-.834,1.257-1.251,1.886a1,1,0,0,1-.681.393.412.412,0,0,1-.268-.2.474.474,0,0,1-.027-.211c.089-.216-.029-.37-.162-.52-.215-.352.187-.917-.4-1.139-.333-.445-.17-.79.218-1.09.56-.238.657.324.948.55.05.057.1.114.147.172.087.051.116.223.273.131a.361.361,0,0,1-.316-.208c.209-.326.385-.7.884-.592" fill="#e07e63"/>
      <path id="Path_1068" data-name="Path 1068" d="M56.079,24.3v.168a1.178,1.178,0,0,1-.635.247.608.608,0,0,1-.306-.157c-.2-.227-.409-.447-.631-.656a2.377,2.377,0,0,1-.159-.187c-.679-.81-.645-.974.307-1.49.264-.064.538-.074.693-.379.125-.247.35-.232.561-.068.093.045.256.076.269.138a4.078,4.078,0,0,0,.869,1.545c-.042.249-.045.515-.3.67l-.167,0c-.259-.21-.4-.087-.5.171" fill="#e07d62"/>
      <path id="Path_1069" data-name="Path 1069" d="M55.466,39.913c.246.422-.047.712-.25,1.024a8.15,8.15,0,0,0-.425.908c-.21.423-.441.348-.707.084a.168.168,0,0,0-.114-.094.34.34,0,0,1,.043.159,1.025,1.025,0,0,1-.322.674,1.07,1.07,0,0,1-.188.138.919.919,0,0,1-.334.113.456.456,0,0,1-.333-.1.573.573,0,0,1-.093-.213c.106-.564-.131-1.239.515-1.634a.307.307,0,0,0,.174-.338,1.609,1.609,0,0,1,.551-1.09c.159-.156.446.17.563-.151a.392.392,0,0,1,.213-.036c.328.07.482.359.707.559" fill="#e07e63"/>
      <path id="Path_1070" data-name="Path 1070" d="M51.868,46.992c-.113.023-.326.148-.251-.1a2.446,2.446,0,0,1,.454-.954c.319-.351.163-.609-.123-.712-.728-.259-.577-.581-.169-1a5.311,5.311,0,0,0,.434-.588c.8-.423.812-.417.94.447a1.609,1.609,0,0,1,.08.568,4.246,4.246,0,0,1-1.365,2.348" fill="#e18065"/>
      <path id="Path_1071" data-name="Path 1071" d="M29.182,20.094c-.322.025-.308.5-.8.468-.385-.021-.247.652-.2,1.043a.141.141,0,0,1-.01.2,7.761,7.761,0,0,1-1.533-.525,1.69,1.69,0,0,0-1.621.1.966.966,0,0,1-1.153-.014l-.06-.1a4.913,4.913,0,0,1,3.191-1.156c.2.07.076.407.347.411a1.894,1.894,0,0,0,.233-.188,1.145,1.145,0,0,1,.445-.212c.393.087.773-.352,1.171-.025" fill="#e08065"/>
      <path id="Path_1072" data-name="Path 1072" d="M44.479,56.069h.167c.171.342-.33.51-.216.837.01.109.021.218.032.326q-.572.519-1.129,1.055c.074.668-.592.761-.889,1.142a.088.088,0,0,1-.15,0c-.041-.148-.213-.316-.016-.445.364-.24.829-.394.32-.954-.124-.137.144-.349.3-.44a1.05,1.05,0,0,0,.24-1.522c-.1-.189.069-.245.167-.337.4.082.868-.068,1.177.335" fill="#e07e63"/>
      <path id="Path_1073" data-name="Path 1073" d="M55.466,39.913a.754.754,0,0,1-.733-.486.312.312,0,0,1-.016-.311c-.294-.034.719-.185-.02-.2-.368-.008-.634-.193-.535-.638a3.926,3.926,0,0,0,1.264-.585,1.456,1.456,0,0,1,.557-.189.563.563,0,0,1,.451.516,3.023,3.023,0,0,1-.376,1.216c-.073.335-.431.421-.592.679" fill="#e08065"/>
      <path id="Path_1074" data-name="Path 1074" d="M53.38,19.262a1.944,1.944,0,0,1-2.2-1.2c-.031-.064.122-.216.189-.328,1-.033,1.488.7,2.014,1.367.04.037.052.073.037.108s-.029.051-.043.051" fill="#e3896f"/>
      <path id="Path_1075" data-name="Path 1075" d="M53.214,21.439c-.275-.337-.277-.345.048-.394.574-.088.41-.65.631-.964-.064-.147.035-.266.068-.4a.368.368,0,0,1,.271-.272c.507.236.638.736.835,1.189.1.322-.21.41-.346.6a1.786,1.786,0,0,1-.572.269c-.2.055-.363.226-.59.216-.156-.022-.24-.148-.345-.244" fill="#e2866c"/>
      <path id="Path_1076" data-name="Path 1076" d="M57.772,28.5a.4.4,0,0,1-.212-.424c.236-.842-.505-1.535-.325-2.383.065-.3-.059-.329.35-.384.6.5.332,1.216.406,1.827.051.433.533,1.03-.219,1.364" fill="#e2866b"/>
      <path id="Path_1077" data-name="Path 1077" d="M57.59,32.7c-.028-.24.074-.5-.114-.732-.279,0-.25.449-.559.4a.412.412,0,0,1-.5-.17l-.166-.166c-.108-.2-.137-.352.17-.337a2.842,2.842,0,0,1,.383-.535c.235-.2.571-.539.572.161,0,.185.108.263.257.236s.117-.167.082-.268c-.154-.442.048-.422.351-.277.321.594-.313,1.113-.132,1.7a.239.239,0,0,1-.171.091.266.266,0,0,1-.17-.1" fill="#e07e62"/>
      <path id="Path_1078" data-name="Path 1078" d="M20.111,39.766a5.211,5.211,0,0,1,.752.48c.591.363,1.228.808.76,1.69-.052.082-.111.091-.176.014a3.967,3.967,0,0,1-1.336-2.184" fill="#e3896e"/>
      <path id="Path_1079" data-name="Path 1079" d="M36.238,59.1c-.339,0-.365-.311-.511-.5,0-.038-.008-.076-.013-.114-.018-.614.4-.981.776-1.375.535-.158.618.2.677.592.125.3-.683.346-.2.743a1.384,1.384,0,0,1,.383.209.809.809,0,0,1,.307.469.506.506,0,0,1-.131.32.418.418,0,0,1-.686.01,1.061,1.061,0,0,0-.6-.351" fill="#e38a6f"/>
      <path id="Path_1080" data-name="Path 1080" d="M54.563,21.115c-.015-.351.371-.308.505-.513l.84,1.176-.319.042c.18.843-.506.505-.855.626-.131-.122-.394-.059-.435-.308-.1-.39.363-.634.264-1.023" fill="#e6977d"/>
      <path id="Path_1081" data-name="Path 1081" d="M48.178,51.027l.168.169c.139.232-.039.362-.164.51-.143.287-.186.663-.618.693-.314-.288-.74.024-1.067-.2.092-.716.748-.955,1.189-1.367.155-.145.356.046.492.191" fill="#df7b5f"/>
      <path id="Path_1082" data-name="Path 1082" d="M17.409,31.19c.559-.1.4.5.673.681a1.333,1.333,0,0,0,0,1c.124.085.363.122.144.349a1.256,1.256,0,0,1-.819-2.031" fill="#e3896e"/>
      <path id="Path_1083" data-name="Path 1083" d="M45.66,19.259c.13-.209.525-.355.158-.68a.209.209,0,0,1,.018-.323c.243.008.3-.269.491-.33a3.276,3.276,0,0,1,.494.2,2.307,2.307,0,0,0,.741.181c.106.061.19.131.11.269l-.009.682c-.252.056-.482-.157-.738-.062a.722.722,0,0,1-.214-.024c-.328-.166-.213.172-.305.275a.4.4,0,0,1-.372.2c-.177-.079-.229-.28-.374-.391" fill="#e2876c"/>
      <path id="Path_1084" data-name="Path 1084" d="M21.784,22.952c-.131-.18-.326-.164-.514-.171A7.041,7.041,0,0,1,23.8,21.264l.022.027c.3.479-.032.739-.381.913-.444.221-.84.524-1.294.723a.359.359,0,0,1-.358.025" fill="#e07e62"/>
      <path id="Path_1085" data-name="Path 1085" d="M53.547,42.615l.35-.666a.248.248,0,0,1,.162-.158c.316.164.563.2.714-.233.08-.232.076-.574.443-.621-.172.7.031,1.6-.977,1.859a.506.506,0,0,1-.542-.012.429.429,0,0,1-.15-.169" fill="#e48e73"/>
      <path id="Path_1086" data-name="Path 1086" d="M34.057,56.574a1.184,1.184,0,0,0,.67-.168.488.488,0,0,1,.524-.217.677.677,0,0,1,.182.168.905.905,0,0,1,.11.731.943.943,0,0,1-.464.586.426.426,0,0,1-.365-.053c-.044-.02-.089-.041-.133-.063-.194-.136-.325-.349-.552-.445a.642.642,0,0,1-.3-.541.226.226,0,0,1,.328,0" fill="#e2876c"/>
      <path id="Path_1087" data-name="Path 1087" d="M53.233,44.644c-.5-.234-.308-.678-.317-1.091l-.7.076.168-.336c-.11-.345-.308-.725.3-.8a.43.43,0,0,1,.2.118c0,.052,0,.1,0,.156.132.184.368.262.483.465A2.631,2.631,0,0,0,53.8,44a.294.294,0,0,1-.065.314.511.511,0,0,1-.5.326" fill="#e48c72"/>
      <path id="Path_1088" data-name="Path 1088" d="M39.267,61.112a.508.508,0,0,0,.029-.077c.08-.349-.08-.846.391-.972.416-.112.684.245.925.546.139.3.15.325-.073.439a1.657,1.657,0,0,0-.779.542l-.319-.011a.421.421,0,0,1-.174-.467" fill="#e18468"/>
      <path id="Path_1089" data-name="Path 1089" d="M38.427,25.138c-.549-.357-1.084-.74-1.653-1.063-.341-.194-.278-.51-.363-.788a2.739,2.739,0,0,1,1.449,1.044c.184.224.322.533.706.428a.291.291,0,0,1,.116.21c-.03.138-.095.225-.255.169" fill="#e38a6f"/>
      <path id="Path_1090" data-name="Path 1090" d="M58.1,30.531c-.092-.383-.457-.23-.683-.349-.077-.161-.074-.349-.166-.5v-.5c.7.169.252-.519.51-.68.18.015.437-.057.431.234-.012.6-.059,1.2-.092,1.8" fill="#e18267"/>
      <path id="Path_1091" data-name="Path 1091" d="M40.12,22.641c.453,1.167.415,1.276-.513,1.494a.64.64,0,0,1-.5-.34.517.517,0,0,1,.469-.523c.207-.1.238-.334.356-.5l.189-.129" fill="#e3896e"/>
      <path id="Path_1092" data-name="Path 1092" d="M34.057,56.574l-.328,0-.674-.358c.262-.195.775-.122.6-.759-.081-.3.361-.235.581-.178.319.083.255.37.135.532-.175.238-.407.426-.317.765" fill="#e18065"/>
      <path id="Path_1093" data-name="Path 1093" d="M39.76,61.591c-.239-.387-.025-.482.307-.649.168-.085.671.227.545-.333.268-.548.551.076.825-.009-.535.372-.881,1.061-1.677.991" fill="#e58f75"/>
      <path id="Path_1094" data-name="Path 1094" d="M39.106,23.794c.249-.007.471.024.5.34-.265.346.192.9-.339,1.171-.177-.073-.333-.168-.529.009s-.276.006-.312-.176l.169-.17c.11-.17.7-.119.256-.552-.019-.019.036-.1.075-.136.019-.177-.053-.388.18-.486" fill="#e38a70"/>
      <path id="Path_1095" data-name="Path 1095" d="M56.413,36.233c-.213-.223-.62-.445,0-.674.2-.073.346-.287.594-.264a.613.613,0,0,1,.414.1,3.134,3.134,0,0,1-.182,1.326c-.273.076-.4-.218-.636-.246-.1-.049-.131-.154-.185-.241" fill="#e2876d"/>
      <path id="Path_1096" data-name="Path 1096" d="M23.784,45.663c.359-.019.374.447.691.488a.836.836,0,0,1,.35.831c-.057.158-.152.244-.329.169-.1-.357-.659-.235-.692-.663a.8.8,0,0,1-.02-.825" fill="#e89d83"/>
      <path id="Path_1097" data-name="Path 1097" d="M44.429,56.907c-.5-.428.069-.578.217-.838l.858-.835c.063.082.187.23.181.236-.475.431-.556,1.208-1.256,1.437" fill="#e59278"/>
      <path id="Path_1098" data-name="Path 1098" d="M49.863,17.414c-.039.178.444.508-.163.527a.394.394,0,0,0-.386.258c-.054.182.054.548-.3.383a.415.415,0,0,1-.139-.687.616.616,0,0,0,.142-.457,1.441,1.441,0,0,0,.85-.024" fill="#e2856a"/>
      <path id="Path_1099" data-name="Path 1099" d="M47.673,18.581l-.168-.168a.577.577,0,0,1-.163-.218.623.623,0,0,1,.156-.634,1.778,1.778,0,0,1,1.35-.137,2.756,2.756,0,0,0-1.175,1.157" fill="#e2856a"/>
      <path id="Path_1100" data-name="Path 1100" d="M49.013,50.858A3.673,3.673,0,0,1,50.326,49a4.4,4.4,0,0,1-1.144,1.861c-.056.079-.112.076-.169,0" fill="#e89b81"/>
      <path id="Path_1101" data-name="Path 1101" d="M53.734,44.318c-.008-.118-.017-.235-.025-.353a.587.587,0,0,1-.071-.641c.141-.221-.061-.483.083-.7l.519.175c.157.616.221,1.2-.506,1.523" fill="#e89b82"/>
      <path id="Path_1102" data-name="Path 1102" d="M18.759,36.4c.14.439.645.671.665,1.178-.151.087-.276.261-.489.153-.227-.414-.623-.784-.349-1.33.057-.075.115-.072.173,0" fill="#e48d73"/>
      <path id="Path_1103" data-name="Path 1103" d="M19.094,25.978c-.644-.046-.256.433-.342.672-.207.149-.407.325-.688.166-.171-.647.481-.886.671-1.354.133-.078.206,0,.269.1.022.139.2.245.09.413" fill="#e59176"/>
      <path id="Path_1104" data-name="Path 1104" d="M18.236,33.355c-.085.374.494.618.2,1.032a.33.33,0,0,1-.189.409.474.474,0,0,1-.356-.064c-.04-.134-.08-.268-.121-.4a.348.348,0,0,1,.147-.442l.317-.532" fill="#e89a81"/>
      <path id="Path_1105" data-name="Path 1105" d="M39.267,61.112c.171.113.169.292.174.467-.443-.123-1.225.394-1.192-.63a.216.216,0,0,1,.2-.186c.133.446.47.413.82.349" fill="#e48d73"/>
      <path id="Path_1106" data-name="Path 1106" d="M38.447,60.764l-.2.186a.809.809,0,0,1-.674-.983.175.175,0,0,1,0-.233c.246-.128.409-.029.524.2l0,0c.115.166.2.353.327.508.006.108.013.216.019.324" fill="#e89d83"/>
      <path id="Path_1107" data-name="Path 1107" d="M46.662,53.862c.149-.394.159-.848.507-1.154l.37-.182c.073.079.145.158.218.236-.634.1-.352,1.109-1.1,1.1" fill="#e07d61"/>
      <path id="Path_1108" data-name="Path 1108" d="M19.446,38.242a1.467,1.467,0,0,1,.643,1.374c-.544-.221-.586-.857-.988-1.194a.364.364,0,0,1,.345-.18" fill="#e7977d"/>
      <path id="Path_1109" data-name="Path 1109" d="M56.059,39.234c-.291-.446.2-.759.2-1.157a.292.292,0,0,1,.3-.079c.113.05.14.161.183.261-.2.34-.032.942-.678.975" fill="#e6977d"/>
      <path id="Path_1110" data-name="Path 1110" d="M56.737,38.258l-.156-.174a.944.944,0,0,1-.178-.894.585.585,0,0,1,.249-.307.3.3,0,0,1,.425.178,1.368,1.368,0,0,1-.34,1.2" fill="#f1bea7"/>
      <path id="Path_1111" data-name="Path 1111" d="M27.882,51.355c.415-.059.569.287.8.516a.315.315,0,0,1-.017.456c-.368-.237-.859-.376-.781-.972" fill="#e38a70"/>
      <path id="Path_1112" data-name="Path 1112" d="M27.166,49.854c.132.324.924.546.156,1.009-.409-.141-.239-.629-.51-.853.081-.137.173-.248.354-.156" fill="#df795e"/>
      <path id="Path_1113" data-name="Path 1113" d="M43.482,19.287a.915.915,0,0,1-.515.975.343.343,0,0,1-.487,0,3,3,0,0,1,1-.974" fill="#e59177"/>
      <path id="Path_1114" data-name="Path 1114" d="M18.759,36.4h-.173c-.6-.16-.449-.593-.362-1a.369.369,0,0,1,.213-.116.492.492,0,0,1,.237.067.389.389,0,0,1,.085.552.459.459,0,0,0,0,.5" fill="#e48d72"/>
      <path id="Path_1115" data-name="Path 1115" d="M47.5,17.561l.006.677c-.283.2-.565.017-.847,0l-.33-.312,1.171-.365" fill="#e89c83"/>
      <path id="Path_1116" data-name="Path 1116" d="M27.5,20.773c-.946.373-.525-.3-.509-.665.342.051.686-.186,1.026.011l-.344.315c-.2.04-.273.146-.173.339" fill="#eba78e"/>
      <path id="Path_1117" data-name="Path 1117" d="M43.332,58.288c.318-.415.42-1.06,1.129-1.054-.094.653-.679.781-1.129,1.054" fill="#ecaa92"/>
      <path id="Path_1118" data-name="Path 1118" d="M24.5,47.15l.329-.168a1.61,1.61,0,0,1,.316,1.024c-.379-.162-.738-.339-.645-.856" fill="#eba68d"/>
      <path id="Path_1119" data-name="Path 1119" d="M57.62,34.732c-.184-.2-.442-.365-.335-.7a.532.532,0,0,0,.325-.52.434.434,0,0,1,.144-.171c.3-.042.212.263.338.377l-.472,1.017" fill="#ecac94"/>
      <path id="Path_1120" data-name="Path 1120" d="M56.749,24.13a.651.651,0,0,1,.3-.67c.132.278.265.557.4.835.043.048.053.089.029.125s-.041.049-.06.049c-.28,0-.438-.236-.664-.339" fill="#e48e74"/>
      <path id="Path_1121" data-name="Path 1121" d="M17.445,29.687c.046.048.092.095.137.143a1,1,0,0,1,0,.856l-.195.159c.129-.381-.837-.817.059-1.158" fill="#e2876d"/>
      <path id="Path_1122" data-name="Path 1122" d="M57.077,37.061l-.316-.15c-.41-.048-.3-.277-.178-.511.55-.571.422.237.65.32l-.156.341" fill="#e7997f"/>
      <path id="Path_1123" data-name="Path 1123" d="M19.739,24.453a.7.7,0,0,1,.141.756c-.067.15-.288-.008-.433-.066a.375.375,0,0,1-.029-.514l.321-.176" fill="#e38b71"/>
      <path id="Path_1124" data-name="Path 1124" d="M36.238,59.1c.275-.185.454-.01.6.183.208.269.386.2.569-.015a.354.354,0,0,1,.12.341c-.056.119-.119.226-.281.16a1.679,1.679,0,0,1-1.012-.669" fill="#e89d83"/>
      <path id="Path_1125" data-name="Path 1125" d="M49.013,50.858h.169c-.306.316-.438.836-1,.849q.083-.255.164-.51.334-.168.667-.338" fill="#e7977e"/>
      <path id="Path_1126" data-name="Path 1126" d="M45.836,18.255c-.006.108-.011.216-.017.324a.735.735,0,0,0-.677.321c-.207.285-.284.068-.33-.137a1.638,1.638,0,0,1,1.024-.508" fill="#f1bda6"/>
      <path id="Path_1127" data-name="Path 1127" d="M35.727,58.6c-.3-.068-.586-.157-.695-.494a.223.223,0,0,1,.02-.248c.678-.194.707-.164.716.717Z" fill="#e99d84"/>
      <path id="Path_1128" data-name="Path 1128" d="M54.232,19.412c-.056.114-.111.227-.167.34-.193.115-.343.138-.34-.162l-.345-.328c0-.052,0-.1.006-.158a1.649,1.649,0,0,1,.846.308" fill="#e69379"/>
      <path id="Path_1129" data-name="Path 1129" d="M38.926,24.28c.012.288.51.81-.331.689-.009-.07-.019-.14-.029-.21-.18-.385.122-.408.36-.479" fill="#e18368"/>
      <path id="Path_1130" data-name="Path 1130" d="M42.294,59.432l.15,0c.08.4.035.717-.5.67-.226-.4.239-.441.346-.668" fill="#e3886e"/>
      <path id="Path_1131" data-name="Path 1131" d="M17.889,27.315c.415.209.441.436.031.682a.353.353,0,0,1-.354-.163c.035-.218-.031-.5.323-.519" fill="#e79980"/>
      <path id="Path_1132" data-name="Path 1132" d="M18.065,26.816l.688-.166c-.045.663-.444.481-.822.345l.134-.179" fill="#e48d74"/>
      <path id="Path_1133" data-name="Path 1133" d="M19.446,38.242l-.345.18c-.055-.23-.111-.46-.166-.69l.49-.153c-.167.226,0,.442.021.663" fill="#f0b9a1"/>
      <path id="Path_1134" data-name="Path 1134" d="M58.092,33.715l-.314-.349a.426.426,0,0,1-.005-.659,1.042,1.042,0,0,0,.158,0,1.554,1.554,0,0,1,.161,1.008" fill="#f4c8b1"/>
      <path id="Path_1135" data-name="Path 1135" d="M17.919,33.887c-.049.148-.1.295-.146.442a.431.431,0,0,1-.2-.673c.109-.15.187.2.347.231" fill="#e48c72"/>
      <path id="Path_1136" data-name="Path 1136" d="M25.634,48.528c.036.265.736.157.366.651-.323-.1-.373-.362-.366-.651" fill="#efb8a1"/>
      <path id="Path_1137" data-name="Path 1137" d="M28.664,52.326c.006-.152.011-.3.017-.456.207.187.689.3.182.679-.066-.075-.133-.149-.2-.223" fill="#eaa38a"/>
      <path id="Path_1138" data-name="Path 1138" d="M34.029,57.113c.366-.077.548.074.552.445a.492.492,0,0,1-.552-.445" fill="#eeb199"/>
      <path id="Path_1139" data-name="Path 1139" d="M21.448,41.949l.175-.014a.992.992,0,0,0,.153.023.366.366,0,0,1,.184.327.327.327,0,0,1-.321.347c-.064-.228-.128-.455-.191-.683" fill="#eaa38b"/>
      <path id="Path_1140" data-name="Path 1140" d="M17.566,27.834c.137.012.277.017.353.162-.087.137-.145.305-.346.319-.056-.16-.228-.318-.007-.481" fill="#f7d3be"/>
      <path id="Path_1141" data-name="Path 1141" d="M57.259,34.89l.322,0a.256.256,0,0,1,.133.326c-.058.133-.17.051-.262.019-.323.032-.3-.132-.193-.342" fill="#eba88f"/>
      <path id="Path_1142" data-name="Path 1142" d="M31.211,20.251c-.275.122-.583.37-.686-.177.23.053.485.009.686.177" fill="#e6947a"/>
      <path id="Path_1143" data-name="Path 1143" d="M23.784,45.663c.007.275.013.55.02.825-.47-.185-.208-.526-.174-.818a.4.4,0,0,1,.154-.007" fill="#f7d4bd"/>
      <path id="Path_1144" data-name="Path 1144" d="M57.414,24.469c.01-.058.021-.116.03-.174.466.216.184.554.14.853-.251-.177-.09-.458-.17-.679" fill="#f5c9b4"/>
      <path id="Path_1145" data-name="Path 1145" d="M27.166,49.854l-.354.156c-.062-.152-.125-.3-.187-.455.384-.269.416.1.541.3" fill="#e9a087"/>
      <path id="Path_1146" data-name="Path 1146" d="M18.429,35.392l-.2.008c-.416-.046-.253-.288-.171-.5a.209.209,0,0,1,.237-.054c.206.143.3.313.138.549" fill="#e89a81"/>
      <path id="Path_1147" data-name="Path 1147" d="M18.927,25.643l-.191-.18q.172-.175.347-.349c.151-.025.235.014.18.187l-.166.342c-.056.073-.113.07-.17,0" fill="#e38c71"/>
      <path id="Path_1148" data-name="Path 1148" d="M35.086,57.907l-.054.2c-.271-.053-.307-.259-.318-.482l.344-.025a.217.217,0,0,1,.028.311" fill="#f4c5af"/>
      <path id="Path_1149" data-name="Path 1149" d="M31.7,20.755l-.345-.449c.313-.067.459.213.682.331l-.337.118" fill="#e79a80"/>
      <path id="Path_1150" data-name="Path 1150" d="M42.48,20.261l.487,0c.01.737-.326.2-.53.143a.671.671,0,0,1,.043-.145" fill="#e7977e"/>
      <path id="Path_1151" data-name="Path 1151" d="M19.263,25.3l-.18-.187a.6.6,0,0,1,.336-.485c.009.172.018.343.028.514l-.184.158" fill="#f2bea7"/>
      <path id="Path_1152" data-name="Path 1152" d="M41.79,21.627c-.056-.117-.111-.234-.167-.35l.172-.174c.2.176.227.351,0,.524" fill="#f1bba4"/>
      <path id="Path_1153" data-name="Path 1153" d="M57.259,34.89a.351.351,0,0,0,.193.342.824.824,0,0,1-.036.162l-.316.169a.476.476,0,0,1-.008-.676l.167,0" fill="#e18369"/>
      <path id="Path_1154" data-name="Path 1154" d="M29.732,20.236c-.23.132-.432.157-.55-.142a.361.361,0,0,1,.55.142" fill="#e08065"/>
      <path id="Path_1155" data-name="Path 1155" d="M37.25,59.769l.168-.168c.152-.046.2.014.172.161l-.015.2-.359.073c.011-.09.023-.18.034-.27" fill="#eba188"/>
      <path id="Path_1156" data-name="Path 1156" d="M39.931,22.77c.007.256.013.512-.356.5a.763.763,0,0,1,.356-.5" fill="#e89d83"/>
      <path id="Path_1157" data-name="Path 1157" d="M18.249,34.888l-.195.01-.161-.166.352-.01a.115.115,0,0,1,.035.11c-.01.037-.02.056-.031.056" fill="#e99e85"/>
      <path id="Path_1158" data-name="Path 1158" d="M34.8,35.064c0-.162.515-.255.064-.477-.063-.287.129-.389.343-.477a.384.384,0,0,1,.362.109c-.038.279-.22.558,0,.837.009.031.018.063.028.094a.456.456,0,0,0,.322.221c.25.037.526.01.686.272a.6.6,0,0,0,.373.553.918.918,0,0,1,.216.512,1.125,1.125,0,0,1-.113.509c-.03.217.126.106.214.115a.368.368,0,0,1,.2.076c.37.445.239,1.007.36,1.51a2.8,2.8,0,0,1-.534.938.708.708,0,0,1-.21.068,4.019,4.019,0,0,0-.753.135.451.451,0,0,1-.317-.1,1.288,1.288,0,0,0-1.017-.7.853.853,0,0,0-.133-.662c-.2-.187.1-.51-.183-.675l-.108-.163a3.092,3.092,0,0,0,.2-2.7" fill="#df7b5f"/>
      <path id="Path_1159" data-name="Path 1159" d="M40.455,27.5a6.822,6.822,0,0,1,1.339,2.331c.027.724-.376,1.377-.334,2.116.014.246-.354.183-.563.2a1.548,1.548,0,0,1-.9-.083c-.174-.106-.391-.119-.56-.241a.754.754,0,0,1-.131-.145.817.817,0,0,0-.283-.252,1.13,1.13,0,0,1-.386-.351c-.107-.219-.138-.423.121-.563.1-.053.188-.149.284-.151.8-.015,1.06-.277.962-1.088-.036-.3-.156-.535.239-.719.281-.131.453-.284-.025-.6-.4-.266.083-.869.066-1.33.461.212.227.558.166.87" fill="#df7c60"/>
      <path id="Path_1160" data-name="Path 1160" d="M37.745,33.375c-.289-.022-.276.311-.484.42-.028-.361-.178-.769-.042-1.026.1-.186-.831-1.017.3-.6.049-.559.9-.385.9-.983a.22.22,0,0,1,.214-.055,1.641,1.641,0,0,1-.568,2.36.4.4,0,0,1-.328-.12" fill="#e07f64"/>
      <path id="Path_1161" data-name="Path 1161" d="M35.258,32.2a13.218,13.218,0,0,1,1.195-3.856,1.312,1.312,0,0,1-.254,1.773.517.517,0,0,0-.153.653c.213.561-.565.863-.476,1.429a.2.2,0,0,1-.312,0" fill="#e18165"/>
      <path id="Path_1162" data-name="Path 1162" d="M36.922,36.235c-.2-.065-.449.167-.583-.036-.048-.072.152-.309.239-.47-.014-.392.339-.784,0-1.176-.13-.32-.1-.428.13-.393a1.308,1.308,0,0,0,.887-.112c.314-.036.309.206.356.4a1.107,1.107,0,0,1-.02.244,4.948,4.948,0,0,1-.192.561c-.386.259-.125.5.028.739a.731.731,0,0,1-.038.457.439.439,0,0,1-.157.166c-.329.063-.465-.2-.649-.385" fill="#e18368"/>
      <path id="Path_1163" data-name="Path 1163" d="M36.578,34.553c.144-.151.317-.276.383.035.092.439.105.881-.383,1.14a1.442,1.442,0,0,0-.84-.168c-.128-.143-.258-.286-.169-.5l0,0c.543.249.887.1,1.007-.5" fill="#df7c60"/>
      <path id="Path_1164" data-name="Path 1164" d="M40.455,27.5c-.055-.29.07-.615-.166-.87q0-.075-.006-.15c.124-.3.417-.372.666-.5.192-.089.286.015.349.179-.239.474-.73.792-.843,1.345" fill="#e9a087"/>
      <path id="Path_1165" data-name="Path 1165" d="M34.916,33.712a.932.932,0,0,1,.178-1.008c.168-.067.241.045.31.165.368.374.305.532-.335.844-.051.081-.1.081-.153,0" fill="#e48f75"/>
      <path id="Path_1166" data-name="Path 1166" d="M32.712,24.3A3.167,3.167,0,0,1,31.2,23.46a.537.537,0,0,1,.081-.433c.136-.1.269-.186.273.1.1.671.685.68,1.159.839l0,.333" fill="#eaa288"/>
      <path id="Path_1167" data-name="Path 1167" d="M34.724,25.817c-.26-.091-.308-.379-.494-.538a.386.386,0,0,1,.67-.113c.355.313-.06.448-.176.651" fill="#df7c60"/>
      <path id="Path_1168" data-name="Path 1168" d="M36.568,27.662c-.328,0-.378-.273-.492-.486,0-.167.076-.454.2-.37.26.181.581.443.3.856" fill="#eba78f"/>
      <path id="Path_1169" data-name="Path 1169" d="M34.916,33.712h.153c.111.056.221.113.331.17.1.191-.071.241-.167.332l-.368.371c-.49-.321.016-.584.051-.874" fill="#e48d72"/>
      <path id="Path_1170" data-name="Path 1170" d="M35.4,32.869l-.31-.165a.548.548,0,0,1,.164-.5h.313c.218.292.038.485-.167.671" fill="#e08165"/>
      <path id="Path_1171" data-name="Path 1171" d="M37.745,33.375l.35,0c.643.213.339.465.03.719-.229.062-.363-.113-.529-.209l.149-.512" fill="#e6937a"/>
      <path id="Path_1172" data-name="Path 1172" d="M36.51,30.522c.051-.268.087-.558.485-.421-.014.319-.295.33-.485.421" fill="#e18165"/>
      <path id="Path_1173" data-name="Path 1173" d="M37.6,33.886l.462.151c.222.355.25.6-.295.524-.024-.182.014-.384-.169-.514a.788.788,0,0,1,0-.161" fill="#eca890"/>
      <path id="Path_1174" data-name="Path 1174" d="M38.647,31.2l-.22-.013c.024-.268-.089-.605.336-.672a.568.568,0,0,0,.014.559.142.142,0,0,1-.13.126" fill="#e2876c"/>
      <path id="Path_1175" data-name="Path 1175" d="M35.233,34.215l.167-.332c.2.037.408.075.17.336l-.337,0" fill="#e48c72"/>
      <path id="Path_1176" data-name="Path 1176" d="M35.906,55.391a3.479,3.479,0,0,1,1.179.972c.284.29.559.588.838.883.066.11.078.247.174.342l-.006,1.172c-.153.136-.248.357-.5.336q-.17-.167-.338-.334c-.009-.175-.117-.351-.007-.523a.12.12,0,0,0-.018-.142.711.711,0,0,1-.2-.176.156.156,0,0,1,.06-.17c-.163-.172-.085-.586-.5-.5a.554.554,0,0,1-.562-.071,1.176,1.176,0,0,1-.44-.649c-.061-.161-.124-.318-.346-.287l-.5.166c-.05-.853.538-.965,1.179-1.015" fill="#e18369"/>
      <path id="Path_1177" data-name="Path 1177" d="M48.178,51.027c-.206.05-.438-.269-.631.208-.161.4-.686.651-1.05.968h-.673l.5-1.351c.35-.444.7-.89,1.016-1.358a.634.634,0,0,1,.332-.317c.343.041.862-.059.376.567-.1.132.1.412-.036.618.124.144.28.278.164.5,0,.054,0,.108,0,.163" fill="#e18166"/>
      <path id="Path_1178" data-name="Path 1178" d="M43.478,52.04l1.686-2.185c.155-.041.209.014.156.168a1.85,1.85,0,0,1-1.842,2.017" fill="#e08064"/>
      <path id="Path_1179" data-name="Path 1179" d="M47.505,49.514a.633.633,0,0,1-.348.678c-.189.093-.3.093-.177.459.157.478-.351.341-.655.2l-.157-.161c-.133-.138-.112-.33-.177-.491-.035-.132-.066-.266-.1-.4-.06-.152-.2-.289-.092-.473h0a.957.957,0,0,1,.716-.236.832.832,0,0,1,.984.42" fill="#df7a5f"/>
      <path id="Path_1180" data-name="Path 1180" d="M37.587,59.1a.536.536,0,0,1,.5-.336c-.026.39.509.777.008,1.17l-.509-.167c-.057-.054-.114-.108-.172-.161,0-.112,0-.223-.007-.334l.176-.172" fill="#e18469"/>
      <path id="Path_1181" data-name="Path 1181" d="M46.161,49.683v.5c-.044.182-.028.425-.34.332l-.335-.491c.055-.448.323-.478.675-.344" fill="#e18166"/>
      <path id="Path_1182" data-name="Path 1182" d="M46.161,49.683a.942.942,0,0,0-.675.344l-.165,0-.157-.168c.083-.333.386-.4.639-.525l.358.353" fill="#e38a70"/>
      <path id="Path_1183" data-name="Path 1183" d="M41.295,55.236a.5.5,0,0,1,.312-.512c.141.069.311.1.381.3l-.693.214" fill="#e9a087"/>
      <path id="Path_1184" data-name="Path 1184" d="M45.821,50.518l.339-.332c.235.166.055.337.007.507-.168.048-.414.248-.346-.175" fill="#e59177"/>
      <path id="Path_1185" data-name="Path 1185" d="M38.428,60.44c-.336-.024-.5-.156-.327-.508.315.037.5.159.327.508" fill="#e18469"/>
      <path id="Path_1186" data-name="Path 1186" d="M38.609,57.867a.46.46,0,0,1,.469.043.384.384,0,0,1,.52.006c-.343.254-.682.434-.989-.049" fill="#e18369"/>
      <path id="Path_1187" data-name="Path 1187" d="M42.809,53.049c.122-.26.1-.619.473-.709-.075.292.092.745-.473.709" fill="#e69279"/>
      <path id="Path_1188" data-name="Path 1188" d="M43.012,57.092a.148.148,0,0,1-.233.113.374.374,0,0,1-.2-.211c-.02-.111.088-.19.2-.182.162.012.2.149.226.28" fill="#e07e63"/>
      <path id="Path_1189" data-name="Path 1189" d="M39.6,57.916l-.52-.006a.309.309,0,0,1,.348-.328c.275,0,.266.145.172.334" fill="#e48d72"/>
      <path id="Path_1190" data-name="Path 1190" d="M45.824,52.2a1.076,1.076,0,0,1-.456.785.909.909,0,0,1,.455-.786Z" fill="#df7b5f"/>
      <path id="Path_1191" data-name="Path 1191" d="M43.3,55.734l-.167.336c-.224.11-.226-.1-.211-.189.038-.217.24-.121.378-.147" fill="#e2866a"/>
      <path id="Path_1192" data-name="Path 1192" d="M38.1,57.588l-.276.008.1-.35a.51.51,0,0,1,.294.344l-.12,0" fill="#e18469"/>
      <path id="Path_1193" data-name="Path 1193" d="M25.482,43.465q.671.924,1.34,1.847a.112.112,0,0,1-.184,0c-.117-.063-.293-.21-.342-.176a.827.827,0,0,1-1.149.005c-.523-.221-.613-.693-.2-1.179a5.811,5.811,0,0,1,.539-.5" fill="#e07f64"/>
      <path id="Path_1194" data-name="Path 1194" d="M27.193,46.1c.585.109.495.741.816,1.055-1.062.189-1.062.189-.816-1.055" fill="#e07e63"/>
      <path id="Path_1195" data-name="Path 1195" d="M33.719,53.387a1.289,1.289,0,0,1,1.028.99l-.6.21c-.1-.261.206-.778-.43-.7a.451.451,0,0,0,0-.5" fill="#e18368"/>
      <path id="Path_1196" data-name="Path 1196" d="M28.006,47.155c.59-.021.591.659,1.007.846-.61.045-.8-.408-1.007-.846" fill="#e07e63"/>
      <path id="Path_1197" data-name="Path 1197" d="M27.509,47.9c-.185-.009-.273-.081-.274-.2a.167.167,0,0,1,.231-.162c.092.027.165.121.246.185l-.2.18" fill="#e07e63"/>
      <path id="Path_1198" data-name="Path 1198" d="M26.638,45.314l.184,0c.285.1.342.263.152.5a.6.6,0,0,1-.336-.5" fill="#e58f75"/>
      <path id="Path_1199" data-name="Path 1199" d="M26.193,46.371c-.046.092-.07.212-.208.2-.017,0-.048-.094-.035-.131.034-.1.063-.215.2-.2.017,0,.027.086.04.133" fill="#e18165"/>
      <path id="Path_1200" data-name="Path 1200" d="M21.616,37.075c.868.308.971,1.18,1.358,1.843-.628-.086-.626-.675-.8-1.109-.377.2-.193.6-.406.813-.345-.142-.151-1.145-.946-.415.06-.644,1-.443.8-1.132" fill="#e18165"/>
      <path id="Path_1201" data-name="Path 1201" d="M18.766,34.558a.476.476,0,0,1,.5.506l-.332-.007a.158.158,0,0,1-.231-.019.363.363,0,0,1,.065-.48" fill="#e69177"/>
      <path id="Path_1202" data-name="Path 1202" d="M22.048,39.461c-.227.106-.448.263-.494-.073-.01-.072.029-.216.05-.217.211-.009.243.264.444.29" fill="#e18165"/>
      <path id="Path_1203" data-name="Path 1203" d="M18.766,35.063c.055,0,.11,0,.165-.007.047.3.162.621-.173.847l-.171-.513a.325.325,0,0,1,.179-.327" fill="#eaa38a"/>
      <path id="Path_1204" data-name="Path 1204" d="M21.961,42.286l-.184-.327c.241-.181.36.044.513.155a.368.368,0,0,1-.329.172" fill="#e3896e"/>
      <path id="Path_1205" data-name="Path 1205" d="M20.324,37.976c.029.058.091.126.087.19s-.074.125-.115.187a.82.82,0,0,1-.088-.188c-.015-.073-.029-.166.116-.189" fill="#e3886e"/>
      <path id="Path_1206" data-name="Path 1206" d="M21.458,35.882c.253.126.287.3.107.514-.243-.128-.224-.311-.107-.514" fill="#e3876d"/>
      <path id="Path_1207" data-name="Path 1207" d="M19.572,36.5c-.126.012-.2-.01-.157-.109a.283.283,0,0,1,.18-.124c.054-.01.121.04.182.063l-.2.17" fill="#e18266"/>
      <path id="Path_1208" data-name="Path 1208" d="M53.418,23.43c-.141-.49-.745-.645-.842-1.166l.642-.658a1.121,1.121,0,0,0,.342,0c.165-.114.251-.346.5-.334a1.46,1.46,0,0,1,.334.833l.34.341c-.771.4-.771.4,0,1.349.076.184-.015.307-.154.412a.434.434,0,0,1-.348-.008c-.278-.248-.662-.384-.811-.769" fill="#e48e73"/>
      <path id="Path_1209" data-name="Path 1209" d="M47.52,20.777l-1.03.618c-.039-.434-.925-.5-.5-1.135-.058-.246.115-.243.274-.255a2.081,2.081,0,0,0,.767.122.4.4,0,0,1,.308.328l.179.322" fill="#e18167"/>
      <path id="Path_1210" data-name="Path 1210" d="M51.076,19.019c.106.367,0,.653-.425.674a.3.3,0,0,1-.3-.457c.055-.133.017-.465.254-.03.25.46.187-.351.47-.187" fill="#e99f85"/>
      <path id="Path_1211" data-name="Path 1211" d="M52.469,20.107c.077.2-.052.215-.2.234-.29.035-.318-.133-.308-.354.006-.118-.134-.272.118-.306.346-.046.3.251.393.426" fill="#e2866b"/>
      <path id="Path_1212" data-name="Path 1212" d="M47.341,20.455,47,20.26a.351.351,0,0,1-.112-.188.588.588,0,0,1,.149-.416c.086-.081.176-.143.3-.072a.617.617,0,0,1,0,.871" fill="#e99f85"/>
      <path id="Path_1213" data-name="Path 1213" d="M47.34,19.584l-.17.175c-.16.139-.3.088-.44-.039-.155-.239-.218-.464.1-.63l.01-.006c.34-.136.522-.043.5.345l0,.155" fill="#e2876c"/>
      <path id="Path_1214" data-name="Path 1214" d="M53.725,19.59a.375.375,0,0,0,.34.162c.148.217-.166.192-.172.329l-.08,0h-.08C53.511,20,53.157,20,53.4,19.6l.324-.008" fill="#eba48c"/>
      <path id="Path_1215" data-name="Path 1215" d="M47.337,19.429a.522.522,0,0,0-.5-.345c.367-.364.591-.065.827.179l-.327.166" fill="#eba78e"/>
      <path id="Path_1216" data-name="Path 1216" d="M53.4,19.6c-.034.26.216.328.33.487-.162.045-.352.261-.474-.018-.069-.159-.263-.425.144-.469" fill="#e2866c"/>
      <path id="Path_1217" data-name="Path 1217" d="M48.517,20.459a.5.5,0,0,1-.507.122c.327-.444.355-.451.507-.122" fill="#e48c72"/>
      <path id="Path_1218" data-name="Path 1218" d="M49.351,20.438c-.167.036-.333.226-.5,0,.166-.306.333-.369.5,0" fill="#eaa289"/>
      <path id="Path_1219" data-name="Path 1219" d="M53.561,21.606c.011.093.129.23-.009.267-.181.049-.257-.131-.334-.267,0-.056,0-.111,0-.167l.346.167" fill="#e79b82"/>
      <path id="Path_1220" data-name="Path 1220" d="M51.869,21.451l-.5-.2c.3-.263.528-.352.5.2" fill="#e7987e"/>
      <path id="Path_1221" data-name="Path 1221" d="M48.724,19.476l-.266.159c-.015-.048-.056-.123-.039-.139a2.216,2.216,0,0,1,.249-.187c.015.046.03.091.056.167" fill="#e2876c"/>
      <path id="Path_1222" data-name="Path 1222" d="M49.348,44.633A10.385,10.385,0,0,1,51.037,42.3c.205,0,.389.032.351.311-.314.334-.593.676-.123,1.275-.526-.253-.818-.484-.782.321a3.932,3.932,0,0,1-.641,1.509c-.243-.157-.089-.476-.331-.581-.14-.14-.27-.284-.163-.5" fill="#e07d62"/>
      <path id="Path_1223" data-name="Path 1223" d="M47.505,49.514c-.3.034-.505-.4-.843-.171-.2-.191-.388-.384-.169-.679a1.794,1.794,0,0,1,.674-1.169.108.108,0,0,1,.177.013l.162.325c.081.143.436.012.336.336s-.517.6-.168,1.008c-.056.113-.113.225-.169.337" fill="#e18065"/>
      <path id="Path_1224" data-name="Path 1224" d="M47.344,47.508l-.178-.013a3.392,3.392,0,0,1,1.292-1.361c.082-.095.157-.09.226.016.14.153.14.46,0,.849a1.386,1.386,0,0,1-.5.329c-.244.216-.58.01-.834.18" fill="#e2856a"/>
      <path id="Path_1225" data-name="Path 1225" d="M47.841,48.169l-.336-.336c.586-.287.963-.087,1.175.5a.359.359,0,0,1,0,.5c-.442-.021-.331-.736-.842-.67" fill="#e2856a"/>
      <path id="Path_1226" data-name="Path 1226" d="M49.348,44.633c.054.168.109.336.163.505-.338.193-.2.759-.669.851-.243-.229.064-.457,0-.686.148-.238.214-.539.505-.67" fill="#e9a087"/>
      <path id="Path_1227" data-name="Path 1227" d="M52.719,42.613c-.487.041-.144.494-.338.681a.531.531,0,0,1-.337-.5c-.008-.038-.015-.075-.023-.113a.638.638,0,0,1,.193-.639c.556-.149.661.1.505.574" fill="#e18267"/>
      <path id="Path_1228" data-name="Path 1228" d="M48.683,48.84l0-.505c.308-.233.625-.414,1.011-.166a1.8,1.8,0,0,0-.842.674v0h-.167" fill="#e38b71"/>
      <path id="Path_1229" data-name="Path 1229" d="M48.842,45.3c.3.229-.045.457,0,.685l-.158.162-.225-.015a1.478,1.478,0,0,1,.384-.832" fill="#e07d62"/>
      <path id="Path_1230" data-name="Path 1230" d="M51.388,42.613l-.352-.311.2-.37a.34.34,0,0,1,.39.16.483.483,0,0,1,.043.332.347.347,0,0,1-.136.175l-.145.014" fill="#eeb299"/>
      <path id="Path_1231" data-name="Path 1231" d="M48.178,47.328c.03-.321.259-.338.5-.33l-.168.5-.336-.168" fill="#df7a5e"/>
      <path id="Path_1232" data-name="Path 1232" d="M51.533,42.6a1.031,1.031,0,0,1,0-.147.5.5,0,0,1,.244-.115c.291.032.415.161.263.451v0c-.237.114-.467.211-.51-.192" fill="#e18267"/>
      <path id="Path_1233" data-name="Path 1233" d="M48.514,47.5c.2.059.4-.132.638.04C48.9,47.877,48.705,47.691,48.514,47.5Z" fill="#e2856a"/>
      <path id="Path_1234" data-name="Path 1234" d="M50.513,46.665c-.011.141-.056.229-.14.174a.449.449,0,0,1-.149-.249c-.021-.08.043-.171.132-.119a.623.623,0,0,1,.157.194" fill="#e2866b"/>
      <path id="Path_1235" data-name="Path 1235" d="M51.489,45.939c-.047-.149-.1-.23-.081-.277a.992.992,0,0,1,.185-.218c.029.063.091.134.078.187a1.411,1.411,0,0,1-.182.308" fill="#e18368"/>
      <path id="Path_1236" data-name="Path 1236" d="M42.8,24.3l-.334.345-.1-.067c-.182-.238-.183-.448.1-.613a1.138,1.138,0,0,0,.341-1.514c.254-.534.656-.558,1.57-.091a1.217,1.217,0,0,1,.138.091c.191.128-.01.24-.015.36A9.35,9.35,0,0,0,42.8,24.3" fill="#e2856a"/>
      <path id="Path_1237" data-name="Path 1237" d="M46.328,20.1a.363.363,0,0,0-.336.158c-.37-.248-.161-.688-.332-1a.32.32,0,0,1,.334.33c.157.075.336.122.394.32a.25.25,0,0,1-.06.194" fill="#e6967d"/>
      <path id="Path_1238" data-name="Path 1238" d="M45.994,21.431l-.662.357c-.008-.542.132-.812.662-.357" fill="#e89d84"/>
      <path id="Path_1239" data-name="Path 1239" d="M41.3,26.157l-.35-.179c.051-.294-.376-.537-.132-.823a.388.388,0,0,1,.636-.022c.072.044.164.069.176.174-.221.24-.028.641-.33.85" fill="#e48c71"/>
      <path id="Path_1240" data-name="Path 1240" d="M41.629,25.307l-.176-.174a.539.539,0,0,0,.34-.491.5.5,0,0,1,.663-.061l.006.061c-.2.313-.391.649-.833.665" fill="#eaa389"/>
      <path id="Path_1241" data-name="Path 1241" d="M42.455,24.581l-.662.061c0-.112,0-.225-.005-.338a.552.552,0,0,1,.337-.343h.331c-.134.206-.03.413,0,.619" fill="#df7d62"/>
      <path id="Path_1242" data-name="Path 1242" d="M40.84,24.513c-.05-.135-.117-.227-.093-.27a.511.511,0,0,1,.22-.193c.048-.024.129.02.195.033l-.322.43" fill="#e18469"/>
      <path id="Path_1243" data-name="Path 1243" d="M42.125,23.961c-.112.114-.224.229-.337.343-.154-.376-.061-.509.337-.343" fill="#e69379"/>
      <path id="Path_1244" data-name="Path 1244" d="M25.164,42.785a.334.334,0,0,1,.141.346c-.1.022-.216.114-.282-.015s.014-.254.141-.331" fill="#e6947a"/>
      <path id="Path_1245" data-name="Path 1245" d="M55.061,28.829a2.745,2.745,0,0,0-.144-1.5.334.334,0,0,1,.485-.006c.054.581.733.882.676,1.512-.34.242-.68.6-1.017,0" fill="#e38b70"/>
      <path id="Path_1246" data-name="Path 1246" d="M55.4,27.32l-.486.006c-.443-.43-.013-1.061-.349-1.516.074-.085.1-.212.224-.253.687,0,.307.687.607.936,0,.276,0,.551,0,.827" fill="#e7987f"/>
      <path id="Path_1247" data-name="Path 1247" d="M55.238,24.466l.168.169c.185.124,0,.374.171.5a.418.418,0,0,1,0,.671c-.288-.14-.575-.281-.868-.411a.42.42,0,0,1-.094-.3.551.551,0,0,1,.078-.195c.106-.134.254-.223.37-.348a.44.44,0,0,1,.178-.086" fill="#e18166"/>
      <path id="Path_1248" data-name="Path 1248" d="M54.751,25.3c.315.1.74.026.824.5-.256.177.018.491-.176.683-.281.1-.335-.05-.332-.284,0-.252.016-.517-.33-.569a.214.214,0,0,1,.014-.335" fill="#e28469"/>
      <path id="Path_1249" data-name="Path 1249" d="M56.913,27.651a.491.491,0,0,1,.352.716c-.025.074-.219.177-.247.155-.305-.236-.012-.553-.105-.871" fill="#e2866b"/>
      <path id="Path_1250" data-name="Path 1250" d="M55.577,25.138c-.18-.126-.167-.318-.171-.5a1.145,1.145,0,0,1,.672-.168c.022.365-.526.305-.5.672" fill="#e48e74"/>
      <path id="Path_1251" data-name="Path 1251" d="M56.079,24.3c-.126-.231-.085-.456.157-.53s.238.227.346.359l-.5.171" fill="#e48e74"/>
      <path id="Path_1252" data-name="Path 1252" d="M19.094,30.684l.167-.334a.373.373,0,0,1,.416-.006.744.744,0,0,1,.177.134.7.7,0,0,1,.167.4c.014.169-.227.293-.085.485-.35.43-.487.032-.673-.174-.12-.147-.094-.343-.169-.5" fill="#e18266"/>
      <path id="Path_1253" data-name="Path 1253" d="M18.766,35.063l-.179.327-.159,0c-.06-.168-.119-.336-.179-.5a1.32,1.32,0,0,0,0-.166l.192-.334.328.17c0,.169,0,.338,0,.506" fill="#e08065"/>
      <path id="Path_1254" data-name="Path 1254" d="M19.068,31.666l1.08.441c-.271.177-.561.205-.6.522a2.672,2.672,0,0,0-.479-.963" fill="#e48d72"/>
      <path id="Path_1255" data-name="Path 1255" d="M18.085,32.871c-.306-.451-.307-.544,0-1a2.446,2.446,0,0,1,0,1" fill="#e9a087"/>
      <path id="Path_1256" data-name="Path 1256" d="M19.936,31.362c-.4-.168-.141-.339,0-.508a.215.215,0,0,1,.321,0c0,.06-.009.12-.013.181l-.307.324" fill="#e6957b"/>
      <path id="Path_1257" data-name="Path 1257" d="M19.094,30.684c.178.128.166.319.169.5l-.505-.5.336,0" fill="#e48c71"/>
      <path id="Path_1258" data-name="Path 1258" d="M17.582,30.687c0-.285,0-.571,0-.857.221.188.153.448.17.688l-.171.169" fill="#e7987f"/>
      <path id="Path_1259" data-name="Path 1259" d="M54.891,33.359a5.3,5.3,0,0,1,.146-2.16.382.382,0,0,1,.373-.183c.512,1,.461,1.55-.172,1.856-.039-.052-.032-.291-.138-.093-.117.22.138.508-.028.762-.163.041-.233-.01-.181-.182" fill="#e2866c"/>
      <path id="Path_1260" data-name="Path 1260" d="M57.256,29.677c.192.045.473-.111.545.168.019.075-.245.223-.379.337-.142.012-.325.3-.411-.057-.053-.219-.079-.432.245-.448" fill="#df7b60"/>
      <path id="Path_1261" data-name="Path 1261" d="M57.09,33.2H56.081c.337-.557.884-.257,1.34-.327a.258.258,0,0,1,.063.3c-.12.154-.258.086-.394.031" fill="#e59378"/>
      <path id="Path_1262" data-name="Path 1262" d="M55.411,31.016a.446.446,0,0,1-.373.184c.028-.284-.2-.575.021-.854a.606.606,0,0,1,.352.67" fill="#e2856a"/>
      <path id="Path_1263" data-name="Path 1263" d="M57.418,33.207l0-.33.169-.176.183.007q0,.328.005.658l-.018.174a.2.2,0,0,1-.2.057c-.136-.1-.227-.213-.137-.39" fill="#e07e62"/>
      <path id="Path_1264" data-name="Path 1264" d="M56.415,32.2l.5.169c-.115.153-.265.289-.455.222-.212-.074-.094-.251-.047-.391" fill="#e2876c"/>
      <path id="Path_1265" data-name="Path 1265" d="M56.418,31.694l-.17.337c-.314.007-.158-.218-.126-.316.058-.171.187-.142.3-.021" fill="#e1866a"/>
      <path id="Path_1266" data-name="Path 1266" d="M31.351,23.116a.366.366,0,0,1-.156.345l-1.522-.475c-.042-.079-.15-.109-.159-.213.195-.556.672-.235,1.016-.326a.563.563,0,0,1,.5-.167c.268.022.6-.084.668.337.065.3-.475.163-.352.5" fill="#e08065"/>
      <path id="Path_1267" data-name="Path 1267" d="M29.515,22.773l.159.212-1.341.1a.906.906,0,0,1,.072-1,.786.786,0,0,1,.608-.309c.056,0,.112,0,.168,0,.238.109.322.27.17.51.058.163-.255.449.164.491" fill="#e48f74"/>
      <path id="Path_1268" data-name="Path 1268" d="M29.351,22.282q-.085-.255-.17-.51c.366.02.677-.673.857-.359.222.387-.5.525-.687.869" fill="#e3886d"/>
      <path id="Path_1269" data-name="Path 1269" d="M31.351,23.116c-.462-.575.315-.276.352-.5a.5.5,0,0,1,.185.559c-.059.14-.223-.02-.339-.052-.062-.106-.128-.113-.2-.008" fill="#de785c"/>
      <path id="Path_1270" data-name="Path 1270" d="M29.013,21.776a.533.533,0,0,1-.5.337c-.214-.01-.393-.056-.349-.335l.012-.173c.274.083.641-.286.84.171" fill="#e3886d"/>
      <path id="Path_1271" data-name="Path 1271" d="M31.035,22.279c-.127.18-.318.166-.5.168a.354.354,0,0,1,.329-.38c.135-.013.156.108.176.212" fill="#e7987e"/>
      <path id="Path_1272" data-name="Path 1272" d="M28.161,21.777l.349.335-.177.974a5.643,5.643,0,0,0-3.548.969c-.709.4-1.836.363-2.14,1.415-.457-.367-.892-.071-1.421.094.109-.376.289-.572.613-.585,1-.039.4-.625.184-.772-.44-.3-.4-.679-.4-1.088a.763.763,0,0,1,.687-.032c-.136-.079-.293-.136-.351-.305a9.62,9.62,0,0,1,1.407-.8.646.646,0,0,0,.457-.7c.467.027,1.008.278,1.244-.406.455.28.932-.3,1.484.145.424.34,1.2.19,1.616.748" fill="#de795d"/>
      <path id="Path_1273" data-name="Path 1273" d="M19.771,30.518H19.6a.521.521,0,0,1-.084-.136c-.051-.105.039-.39-.249-.2-.308,0-.636.034-.749-.358-.1-.35.311-.26.386-.428.206-.455.93-.781.265-1.473-.247-.258,0-1.013.138-1.182.393-.491-.022-.552-.211-.762l-.168-.335H19.1a6.651,6.651,0,0,0,2.862.508l-.366.5a8.262,8.262,0,0,0-.647.843l-.2.311a1.059,1.059,0,0,0-.393.748c-.094.22-.345.453.059.627a.5.5,0,0,0,.021.5c-.251.258-.113.822-.664.844" fill="#e18166"/>
      <path id="Path_1274" data-name="Path 1274" d="M21.953,22.782c.311.257.558,0,.9-.15-.266.707-.782.513-1.234.487l.168-.168c.056-.056.113-.112.169-.169" fill="#e18266"/>
      <path id="Path_1275" data-name="Path 1275" d="M22.291,25.82l-.314.339c-.054-.138-.215-.276-.075-.423s.282-.053.389.084" fill="#e79a80"/>
      <path id="Path_1276" data-name="Path 1276" d="M53.863,36.72a1.486,1.486,0,0,1,.527-1.5A3.244,3.244,0,0,1,54.9,36.4a1.514,1.514,0,0,1-.173.488c-.118.177-.123.42-.318.554a.3.3,0,0,1-.3-.1,1.164,1.164,0,0,1-.249-.619" fill="#e38b70"/>
      <path id="Path_1277" data-name="Path 1277" d="M54.891,33.359l.181.182c.338.636.483,1.227-.312,1.66a.379.379,0,0,1-.373.009c.189-.427.539-.812.256-1.35-.042-.08-.093-.462.248-.5" fill="#e59177"/>
      <path id="Path_1278" data-name="Path 1278" d="M56.583,36.4c0,.19-.007.384.179.511l-.177.164a.616.616,0,0,1-.726.331c-.313-.033-.361-.4-.618-.5.114-.7.84-.345,1.172-.672l.17.167" fill="#e59076"/>
      <path id="Path_1279" data-name="Path 1279" d="M55.241,36.9c.3-.081.6-.173.5.337a.39.39,0,0,1,.165.338l-.34.334a.984.984,0,0,1-.725-.83c.016-.133.063-.227.224-.18h.171" fill="#e2886d"/>
      <path id="Path_1280" data-name="Path 1280" d="M57.092,34.887c0,.225.005.451.008.676-.229-.255-.463.326-.692-.005.19-.262.142-.768.684-.671" fill="#eaa188"/>
      <path id="Path_1281" data-name="Path 1281" d="M55.07,36.9l-.167.169c.007.122-.03.224-.168.149a.385.385,0,0,1-.168-.484c.137-.087.053-.4.337-.335.177.127.165.316.166.5" fill="#df7a5e"/>
      <path id="Path_1282" data-name="Path 1282" d="M57.418,33.207l.175.352c.062.152-.014.177-.142.154a.5.5,0,0,1-.361-.508c.11-.153.219-.027.328,0" fill="#e7967c"/>
      <path id="Path_1283" data-name="Path 1283" d="M57.451,33.713l.141-.154.167-.02c.028.344-.1.539-.474.49.055-.106.111-.211.166-.316" fill="#f7d0ba"/>
      <path id="Path_1284" data-name="Path 1284" d="M19.265,30.181c.211-.158-.058-.481.233-.645.338.3,0,.67.1.981l-.338-.168c0-.056,0-.112,0-.168" fill="#e6947a"/>
      <path id="Path_1285" data-name="Path 1285" d="M34.738,54.374a.891.891,0,0,1,.873.667c-.731.354-.861-.08-.873-.667" fill="#e18469"/>
      <path id="Path_1286" data-name="Path 1286" d="M48.849,48.842l.8-.095c-.288.29-.413.691-.787.613-.221-.046.021-.339-.015-.519Z" fill="#e38b71"/>
      <path id="Path_1287" data-name="Path 1287" d="M48.177,50.864l-.165-.5c.148.021.349-.08.4.169.035.185.012.337-.231.332" fill="#eaa188"/>
      <path id="Path_1288" data-name="Path 1288" d="M55.238,24.466c0,.056,0,.111,0,.167-.225-.066-.314.339-.571.165a.674.674,0,0,1-.1-.677c.053-.109.107-.218.16-.326.19.208.462.354.507.671" fill="#e18469"/>
      <path id="Path_1289" data-name="Path 1289" d="M52.719,42.613c-.115-.221-.07-.6-.508-.5a.331.331,0,0,1-.206.094.834.834,0,0,1-.507-.26.418.418,0,0,1,.148-.436c.451-.249.492-.724.678-1.118.229-.2.193-.362-.086-.475,0-.594.456-.993.642-1.506.552-.219.5-.756.628-1.2.161-.238.347-.269.559-.066.093.191.15.4.241.588a.842.842,0,0,1-.079.508c.035.517.442.487.847.537-.122.23-.232.435-.342.64h-.168c-.146.125-.382-.02-.505.17q-.252.586-.505,1.171a.424.424,0,0,1-.164.34c-.685.329-.162,1.063-.5,1.506H52.8Z" fill="#df7b5f"/>
      <path id="Path_1290" data-name="Path 1290" d="M53.89,43.291c-.06.225-.12.449-.181.674-.7.152-.227-.534-.5-.69a.334.334,0,0,1,0-.462l.174-.193c.126.254.557.281.5.671" fill="#e2866b"/>
      <path id="Path_1291" data-name="Path 1291" d="M54.061,39.6c-.055-.039-.294-.041-.1-.137a.565.565,0,0,1,.6-.033c-.035.174.1.436-.094.51-.226.085-.1-.424-.411-.34" fill="#e3896f"/>
      <path id="Path_1292" data-name="Path 1292" d="M53.89,43.291c-.174-.219-.523-.307-.5-.671l.16,0,.173,0c.033.23.5.351.169.671" fill="#e58e74"/>
      <path id="Path_1293" data-name="Path 1293" d="M54.059,41.79l-.162.158c-.045-.132-.307-.18-.17-.373a.323.323,0,0,1,.275-.1c.2.05.079.2.057.313" fill="#e48b70"/>
      <path id="Path_1294" data-name="Path 1294" d="M53.213,42.813c0,.154,0,.308,0,.462a.507.507,0,0,1-.33-.5l.331.042" fill="#eeb199"/>
      <path id="Path_1295" data-name="Path 1295" d="M53.392,41.108l.165-.339c.1.024.266.028.182.172-.054.092-.227.114-.347.167" fill="#e49075"/>
      <path id="Path_1296" data-name="Path 1296" d="M27.5,20.773c-.143-.1-.373-.193-.216-.41.113-.155.279-.072.389.071-.058.113-.116.226-.173.339" fill="#e2876d"/>
      <path id="Path_1297" data-name="Path 1297" d="M54.229,38.25c-.235-.165-.062-.33,0-.495a2,2,0,0,1,.168-.345c.016-.234-.056-.491.17-.672.114.11.044.405.337.335.479.077.281.691.668.841-.1.033-.272.041-.294.1-.234.641-.643.415-1.048.233" fill="#e07d62"/>
      <path id="Path_1298" data-name="Path 1298" d="M55.911,37.581l-.165-.338a1.468,1.468,0,0,0,.838-.167l0,1.008-.327-.007a.509.509,0,0,0-.343-.5" fill="#eca991"/>
      <path id="Path_1299" data-name="Path 1299" d="M54.4,22.1c-.191-.246-.52-.437-.335-.834l.5-.157c.4.409-.013.678-.168.991" fill="#e07c61"/>
      <path id="Path_1300" data-name="Path 1300" d="M36.075,57.079l.5.168-.812,1.325c-.146-.3-.082-.825-.681-.665-.009-.1-.018-.208-.028-.312l.351-.521c.067-.086.1-.2.211-.25a.442.442,0,0,1,.455.255" fill="#e18368"/>
      <path id="Path_1301" data-name="Path 1301" d="M37.082,57.751c0,.057,0,.113,0,.17.2.285.028.477-.165.665a.232.232,0,0,1-.409-.025.325.325,0,0,1,.017-.455,3.911,3.911,0,0,1,.555-.355" fill="#e2856b"/>
      <path id="Path_1302" data-name="Path 1302" d="M36.919,58.586c.055-.222.11-.443.166-.665h.5c.109.192-.073.242-.165.336-.188.124.095.408-.171.506-.111-.058-.221-.117-.331-.176" fill="#e07f64"/>
      <path id="Path_1303" data-name="Path 1303" d="M46.341,19.933l-.348-.345.333-.165a.672.672,0,0,1,.507.168l.336.168c-.059.112-.118.225-.178.337-.276.183-.468.03-.65-.163" fill="#e48e73"/>
      <path id="Path_1304" data-name="Path 1304" d="M46.833,19.591c-.186,0-.378.01-.506-.167.006-.215-.2-.49.013-.628.232-.148.269.273.487.293a.48.48,0,0,0,.006.5" fill="#e07f64"/>
      <path id="Path_1305" data-name="Path 1305" d="M46.657,18.238c.282-.221.564-.056.846,0,0,.058,0,.116,0,.174a.6.6,0,0,1-.847-.175" fill="#e07f64"/>
      <path id="Path_1306" data-name="Path 1306" d="M35.231,56.239c0-.091-.137-.187.012-.272.039.288.679-.095.495.443a.433.433,0,0,1-.187.112.556.556,0,0,1-.31-.1c0-.062-.007-.123-.01-.185" fill="#df7b60"/>
      <path id="Path_1307" data-name="Path 1307" d="M35.241,56.424l.319-.008a.4.4,0,0,1,.025.5l-.176.157-.168-.65" fill="#eba78e"/>
      <path id="Path_1308" data-name="Path 1308" d="M39.953,31.859c.393.3.833-.116,1.249.087.151.073.151-.137.089-.213-.328-.4.3-.879-.117-1.305-.1-.1.156-.238.343-.209.341.052.243-.216.278-.386A4.879,4.879,0,0,1,42.98,32.7a.153.153,0,0,0,.155.167c.216.11.147.321.175.5.042.387.416.9-.36.98-.178-.114-.314,0-.455.089a.666.666,0,0,1-.563.034c-.328-.23-.265-.5-.11-.807.1-.21.282-.461-.064-.639-.348-.053-.7-.175-1.018.1-.514.047-.673-.369-.905-.692a.6.6,0,0,1-.031-.369.49.49,0,0,1,.149-.2" fill="#e18368"/>
      <path id="Path_1309" data-name="Path 1309" d="M44.435,36.4a5.487,5.487,0,0,1,.377,2.184,1.2,1.2,0,0,1-1.276,1.248c-.119-.325-.462-.243-.689-.374a1.1,1.1,0,0,1-.457-.352c-.027-.5.362-1.047-.158-1.5a.412.412,0,0,1,.191-.272c.222-.081.5-.051.63-.325.415-.308.573-1.2,1.382-.611" fill="#e07f63"/>
      <path id="Path_1310" data-name="Path 1310" d="M41.957,34.383l.5-.169a.24.24,0,0,0,.349,0c.763.069.182-.656.5-.849.627.138.163.767.473,1.048-.229.3.177.306.22.48.1.267.276.519.173.828-.572-.138-1.124-.572-1.735-.112a4.863,4.863,0,0,1-1.251-.38.729.729,0,0,1-.2-.156.906.906,0,0,1-.147-.974.365.365,0,0,1,.195-.139c.377-.014.6.321.921.424" fill="#e38a6f"/>
      <path id="Path_1311" data-name="Path 1311" d="M39.24,45.188a.7.7,0,0,1-.485-.36c-.106-.122-.2-.261-.387-.269a3.3,3.3,0,0,1-.448-.255l0,0c-.54-.55-.528-.584.346-1.048a.885.885,0,0,1,.227-.094,3.442,3.442,0,0,1,1.727.519.605.605,0,0,1,.15.176c.126.306-.081.575-.1.866a.551.551,0,0,1-.148.3,5.684,5.684,0,0,1-.887.167" fill="#e18469"/>
      <path id="Path_1312" data-name="Path 1312" d="M43.476,39.763a2,2,0,0,0,1.336-1.175c.242.479-.046,1.013.161,1.495a.117.117,0,0,1-.119.1c-.088.019-.14.093-.213.14a.342.342,0,0,1-.2,0,1.633,1.633,0,0,0-.229-.133.268.268,0,0,0-.156.174c-.067.307.212.536.181.832a.841.841,0,0,1-.632.731.6.6,0,0,1-.644-.51c.228-.626-.144-.988-.587-1.318a.521.521,0,0,1-.18-.282.436.436,0,0,1,.039-.216c.208-.2.468-.133.715-.139a1.448,1.448,0,0,1,.526.3" fill="#e08065"/>
      <path id="Path_1313" data-name="Path 1313" d="M38.426,43.46c-.251.23-1.016.154-.5.841-.387.063-.541-.2-.68-.486-.191-.172-.237-.49-.547-.542-.327-.114-.27-.545-.567-.684a.721.721,0,0,1-.177-.942.423.423,0,0,1,.185-.13,2.29,2.29,0,0,1,1.009.435c.09.1-.014.411.3.281a1.814,1.814,0,0,1,.8.585c.175.182.04.449.177.642" fill="#e58f75"/>
      <path id="Path_1314" data-name="Path 1314" d="M42.462,35.56c.617-.7.947-.672,1.713.16.409.1.417.363.26.684-.758-.226-.847.588-1.3.836-.433.008-.421-.241-.315-.544.161-.29.255-.571-.113-.788a.6.6,0,0,1-.223-.238l-.021-.11" fill="#e2856a"/>
      <path id="Path_1315" data-name="Path 1315" d="M43.3,43.963a2.047,2.047,0,0,1-1.493.717c-.211-.258-.093-.529-.031-.8.066-.413.547-.412.718-.724a1.189,1.189,0,0,1,.089-.2.536.536,0,0,1,.7-.261c.477.417.564.839.015,1.269" fill="#e2876c"/>
      <path id="Path_1316" data-name="Path 1316" d="M34.8,35.064c.774.843.507,1.732.1,2.617-.027.06-.2.055-.3.08.389-.875-.2-1.823.2-2.7" fill="#e6947a"/>
      <path id="Path_1317" data-name="Path 1317" d="M52.544,40.43c.133.217-.578.428.005.675.121.051-.051.174-.159.169-.481-.019-.594.415-.85.672a.108.108,0,0,1,.042.12c-.015.04-.029.059-.044.059l-.3-.193a3.711,3.711,0,0,1,.805-1.649c.146.124.358.022.5.147" fill="#e18267"/>
      <path id="Path_1318" data-name="Path 1318" d="M35.763,41.583c-.465-.4-.359-.949-.37-1.466-.024-.382.2-.254.394-.194.444.493.816,1,.313,1.671l-.03.022c-.113.092-.218.1-.307-.033" fill="#e59076"/>
      <path id="Path_1319" data-name="Path 1319" d="M42.8,24.3c.295-.711,1.249-1.55,1.695-1.489-.278.822-1.007,1.132-1.695,1.489" fill="#f4c8b2"/>
      <path id="Path_1320" data-name="Path 1320" d="M41.958,43.8a2,2,0,0,1-.154.881.3.3,0,0,1-.181.3.6.6,0,0,1-.453-.318,1,1,0,0,1-.084-.213c-.03-.264-.092-.524-.1-.791.007-.039.015-.077.023-.116a.443.443,0,0,1,.146-.186.682.682,0,0,1,.473-.066.533.533,0,0,1,.372.29.18.18,0,0,1-.037.215" fill="#df7d61"/>
      <path id="Path_1321" data-name="Path 1321" d="M35.741,40.1c-.124-.164-.24-.149-.349.017-.139-.279-.579-.428-.368-.857.448-.522.72.239,1.138.176.132-.02-.043.321-.088.495-.063.151-.149.257-.333.169" fill="#e08369"/>
      <path id="Path_1322" data-name="Path 1322" d="M43.3,43.963a1.679,1.679,0,0,0,.009-1.169c.165-.173.417-.186.6-.326.144-.062.289-.121.436-.009a9.239,9.239,0,0,1-.391,1.091c-.118.239-.229.609-.654.413" fill="#e59177"/>
      <path id="Path_1323" data-name="Path 1323" d="M39.24,45.188c.257-.178.484-.472.854-.229a1.613,1.613,0,0,0,.424-.288.439.439,0,0,1,.3-.122.474.474,0,0,1,.378.387.264.264,0,0,1-.078.207,2.34,2.34,0,0,1-1.877.045" fill="#eaa389"/>
      <path id="Path_1324" data-name="Path 1324" d="M53.557,37.244c.122.591.168,1.139-.677,1.172l.677-1.512a.228.228,0,0,1,0,.34" fill="#e2856b"/>
      <path id="Path_1325" data-name="Path 1325" d="M43.644,41.782l.5-.674a.219.219,0,0,1,.2-.032.618.618,0,0,1,.156.15c.064.13.147.249.218.375a.2.2,0,0,1-.065.192l-.194.321a3.683,3.683,0,0,1-.731.241.281.281,0,0,1-.184-.133.38.38,0,0,1,.1-.44" fill="#e7967d"/>
      <path id="Path_1326" data-name="Path 1326" d="M53.418,23.43c.239.019.359.281.664.243.407-.052.211.258.163.451.014.156-.034.24-.207.177a.684.684,0,0,1-.62-.871" fill="#f2bda5"/>
      <path id="Path_1327" data-name="Path 1327" d="M54.038,24.3l.207-.177.326,0c.217.183.144.439.171.671.055.039.073.079.057.12s-.035.062-.052.062l-.009,0a.235.235,0,0,1-.342,0,1.138,1.138,0,0,1-.358-.669" fill="#e89c82"/>
      <path id="Path_1328" data-name="Path 1328" d="M36.733,43.129c.847-.275.389.422.511.687-.453.107-.5-.441-.832-.521.063-.141.233-.074.321-.166" fill="#e6947a"/>
      <path id="Path_1329" data-name="Path 1329" d="M44.312,41.28c0-.058,0-.116-.005-.174-.064-.353-.573-.556-.338-1.009l.173-.164c.115.1.182.257.333.323l.173.01a.346.346,0,0,1,.17.22,2.457,2.457,0,0,1,.015.284c-.016.064-.031.129-.047.193-.059.254-.1.532-.474.317" fill="#eaa289"/>
      <path id="Path_1330" data-name="Path 1330" d="M35.763,41.583l.307.033c-.05.3-.145.61.172.836a.24.24,0,0,1-.011.355c-.494-.279-.754-.647-.468-1.224" fill="#f5ccb5"/>
      <path id="Path_1331" data-name="Path 1331" d="M19.771,30.518c.328-.2.277-.693.664-.844q-.089.591-.178,1.183l-.322,0-.164-.336" fill="#eaa38a"/>
      <path id="Path_1332" data-name="Path 1332" d="M46.492,48.664c.057.227.113.453.17.679l-.857-.012a.792.792,0,0,1,.687-.667" fill="#e38a70"/>
      <path id="Path_1333" data-name="Path 1333" d="M20.947,27.492c-.093-.518.325-.644.647-.843.133.549-.251.7-.647.843" fill="#eba890"/>
      <path id="Path_1334" data-name="Path 1334" d="M20.413,29.178c-.208-.063-.355.351-.49.156-.252-.361.12-.586.316-.835.167-.061.244-.014.2.171-.011.169-.021.339-.031.508" fill="#e48c72"/>
      <path id="Path_1335" data-name="Path 1335" d="M43.807,42.284c.1-.5.39-.287.652-.169a.308.308,0,0,1-.117.344l-.368.162c-.152-.065-.262-.15-.167-.337" fill="#e48b71"/>
      <path id="Path_1336" data-name="Path 1336" d="M53.557,37.244V36.9c0-.228.11-.28.306-.183a.554.554,0,0,1,.363.519c-.054.084-.115.089-.181.014a.408.408,0,0,0-.488-.01" fill="#e79a80"/>
      <path id="Path_1337" data-name="Path 1337" d="M20.444,28.671l-.2-.171c-.129-.451.163-.593.509-.7-.163.268-.034.638-.305.868" fill="#eeb097"/>
      <path id="Path_1338" data-name="Path 1338" d="M52.544,40.43c-.211.1-.44.259-.5-.147l.2-.361c.451-.041.363.242.306.508" fill="#e7987e"/>
      <path id="Path_1339" data-name="Path 1339" d="M36.231,42.807c0-.118.007-.237.011-.355l.492.677a.317.317,0,0,1-.322.166c-.187-.116-.169-.307-.181-.488" fill="#f6ceb8"/>
      <path id="Path_1340" data-name="Path 1340" d="M44.312,41.28c.236.011.322-.2.474-.317a.389.389,0,0,1,.044.479.194.194,0,0,1-.185.167.315.315,0,0,1-.333-.329" fill="#e2896f"/>
      <path id="Path_1341" data-name="Path 1341" d="M54.4,24.97h.342l.012.333c0,.112-.009.223-.013.335l-.17.171-.171-.84" fill="#eaa48b"/>
      <path id="Path_1342" data-name="Path 1342" d="M37.921,44.3c.186,0,.379-.018.509.164.1.207.138.38-.194.351-.373-.008-.187-.358-.315-.515" fill="#e6957b"/>
      <path id="Path_1343" data-name="Path 1343" d="M38.236,44.819a.409.409,0,0,0,.193-.351c.412-.155.321.145.326.36-.174.027-.35.226-.519-.009" fill="#e48e74"/>
      <path id="Path_1344" data-name="Path 1344" d="M44,34.893c-.182-.111-.589-.118-.22-.481.18.112.346.23.22.481" fill="#e99f86"/>
      <path id="Path_1345" data-name="Path 1345" d="M44.832,40.771l-.185-.168c.165-.121,0-.365.178-.48q.075-.017.147-.039c.007.24.258.53-.14.687" fill="#f4c7b0"/>
      <path id="Path_1346" data-name="Path 1346" d="M43.135,32.866c-.027.128-.056.328-.223.227-.184-.113-.072-.28.068-.394.051.056.1.111.155.167" fill="#e79a81"/>
      <path id="Path_1347" data-name="Path 1347" d="M44.644,41.609l.185-.167c.138.1.253.256.173.4s-.228-.037-.35-.043c0-.062-.005-.124-.008-.185" fill="#e99f86"/>
      <path id="Path_1348" data-name="Path 1348" d="M41.117,45.143c0-.056,0-.113,0-.169a.347.347,0,0,1,.175-.351l.33.361c-.124.2-.323.151-.506.159" fill="#e79a80"/>
      <path id="Path_1349" data-name="Path 1349" d="M34.707,37.923c.422.127.2.429.183.675-.406-.132-.03-.475-.183-.675" fill="#e59177"/>
      <path id="Path_1350" data-name="Path 1350" d="M35.741,40.1l.333-.169h.336c.519-.066.725.3.932.67a.411.411,0,0,1-.033.322c-.323.227.124.5-.035.734a.438.438,0,0,1-.191.289c-.507.384-.632-.3-.983-.352a2.16,2.16,0,0,0-.359-1.494" fill="#e07d62"/>
      <path id="Path_1351" data-name="Path 1351" d="M37.748,38.926c-.422-.437-.141-1.028-.333-1.515a1.978,1.978,0,0,1,.041-.664.481.481,0,0,1,.13-.179v0a.256.256,0,0,1,.26-.039c.765.534.3,1.273.322,1.93-.067.221-.073.5-.419.465" fill="#e3886e"/>
      <path id="Path_1352" data-name="Path 1352" d="M37.748,38.926c.181-.12.172-.306.169-.489.552.089.42.486.381.843a2.466,2.466,0,0,0-.273.67c-.1.324-.287.528-.664.356a.422.422,0,0,1-.114-.539c-.189-.492.391-.526.5-.841" fill="#e48c72"/>
      <path id="Path_1353" data-name="Path 1353" d="M37.587,36.741c.169.281.169.519-.171.67H37.25c-.188.093-.274-.014-.337-.17l.167-.5a.356.356,0,0,1,.507,0" fill="#e18368"/>
      <path id="Path_1354" data-name="Path 1354" d="M37.246,40.608l-.836-.676a.479.479,0,0,1,.674-.167,1.2,1.2,0,0,1,.277.643.346.346,0,0,1-.115.2" fill="#e48c72"/>
      <path id="Path_1355" data-name="Path 1355" d="M37.587,36.741l-.507,0c-.177-.13-.162-.321-.157-.508.28-.006.438.231.664.333v.173" fill="#e69278"/>
      <path id="Path_1356" data-name="Path 1356" d="M36.912,37.24l.338.17c-.05.262-.179.428-.433.219-.157-.129-.228-.331.095-.389" fill="#e3886e"/>
      <path id="Path_1357" data-name="Path 1357" d="M35.569,35.058c.056.168.113.335.169.5-.337-.073-.425-.23-.169-.5" fill="#de785c"/>
      <path id="Path_1358" data-name="Path 1358" d="M37.251,40.435q-.083-.336-.167-.67c.055,0,.109,0,.163,0,.058.167.115.333.172.5s-.016.208-.168.168" fill="#eba68d"/>
      <path id="Path_1359" data-name="Path 1359" d="M39.927,32.051c-.4.2-.534.044-.488-.359l.513.167c-.008.064-.017.128-.025.192" fill="#e9a087"/>
      <path id="Path_1360" data-name="Path 1360" d="M39.4,31.7a.586.586,0,0,1-.285-.393c.6-.233.265.207.285.393" fill="#fadbc6"/>
      <path id="Path_1361" data-name="Path 1361" d="M37.92,35.225c.175.329-.054.574-.175.841a.092.092,0,0,1-.159,0c-.12-.514-.337.205-.524-.121.109-.241.146-.582.527-.716a.217.217,0,0,1,.331,0" fill="#e59177"/>
      <path id="Path_1362" data-name="Path 1362" d="M37.92,35.225h-.331c0-.2,0-.394.191-.52.446.065.26.3.14.519" fill="#e3896f"/>
      <path id="Path_1363" data-name="Path 1363" d="M37.585,36.064l.16,0c.321.141.368.307.046.507l-.206,0v-.506" fill="#e79b81"/>
      <path id="Path_1364" data-name="Path 1364" d="M35.584,56.918l-.024-.5.177-.005.337.668-.49-.161" fill="#e48f75"/>
      <path id="Path_1365" data-name="Path 1365" d="M37.421,58.255l.165-.336c.107.02.256.043.236.166-.037.229-.253.141-.4.17" fill="#e38b70"/>
      <path id="Path_1366" data-name="Path 1366" d="M46.723,49.579c.128-.016.189.028.154.13a.865.865,0,0,1-.132.192c-.051-.051-.144-.1-.141-.152,0-.064.083-.123.119-.17" fill="#e38a70"/>
      <path id="Path_1367" data-name="Path 1367" d="M46.341,19.933l.651.163L47,20.26c-.211-.112-.646.73-.676-.158,0-.056.009-.113.013-.169" fill="#e3896f"/>
      <path id="Path_1368" data-name="Path 1368" d="M52.05,42.117h.161c-.015.234.058.49-.167.671a.324.324,0,0,0-.337-.335c-.209-.441.091-.364.343-.336" fill="#df7b5f"/>
      <path id="Path_1369" data-name="Path 1369" d="M52.05,42.117c-.089.138-.4.045-.343.336h-.17c0-.109,0-.218,0-.327,0-.059,0-.119,0-.179.187.008.382-.009.511.171" fill="#e48e73"/>
      <path id="Path_1370" data-name="Path 1370" d="M54.747,24.974c0-.061,0-.121-.005-.182.154-.089.188-.553.5-.16a.531.531,0,0,1-.492.342" fill="#e48e74"/>
      <path id="Path_1371" data-name="Path 1371" d="M26.492,22.279c-.169.087.018.443-.3.405-.093-.011-.252-.118-.248-.17.016-.211.2-.306.368-.406.159-.047.221.007.176.171" fill="#e2856a"/>
      <path id="Path_1372" data-name="Path 1372" d="M26.492,22.279l-.176-.171c.021-.126-.036-.3.116-.352.044-.016.168.111.219.194.106.174.085.312-.159.329" fill="#e38a70"/>
      <path id="Path_1373" data-name="Path 1373" d="M54.045,37.253l.181-.013.17.17c.034.135.312.164.18.356-.092.133-.231.016-.348-.011-.391-.047-.132-.331-.183-.5" fill="#e69379"/>
      <path id="Path_1374" data-name="Path 1374" d="M41.957,34.383a.564.564,0,0,1-.838-.338.545.545,0,0,1,.052-.833c.186.052.375-.1.62-.51.654.143.576.555.326.977-.137.231-.374.406-.16.7" fill="#e18267"/>
      <path id="Path_1375" data-name="Path 1375" d="M40.089,33.55a.876.876,0,0,1-.13-1.187c.355.128.412.614.817.681.018.037.037.074.055.11a.493.493,0,0,1-.284.507.452.452,0,0,1-.458-.111" fill="#eaa48b"/>
      <path id="Path_1376" data-name="Path 1376" d="M41.791,32.7l-.207.81c-.207.006-.137-.268-.3-.306a.5.5,0,0,1-.512-.163h0c.091-.848.746-.019,1.014-.341" fill="#df7b5f"/>
      <path id="Path_1377" data-name="Path 1377" d="M42.807,34.213c.02.115.125.275-.076.306s-.251-.14-.273-.305c.116-.028.232-.15.349,0" fill="#e9a086"/>
      <path id="Path_1378" data-name="Path 1378" d="M42.967,36.736c-.122.227-.094.4.167.5-.017.891-.473.052-.685.174a.616.616,0,0,1-.653-.3.518.518,0,0,1-.03-.615.973.973,0,0,1,.988-.215.424.424,0,0,1,.213.448" fill="#e07c61"/>
      <path id="Path_1379" data-name="Path 1379" d="M41.962,37.073l.487.341-.154.165c-.079.3.183.681-.236.886-.271.017-.337-.2-.434-.381-.046-.463-.52-.821-.333-1.342.327-.1.425.264.67.331" fill="#e89a80"/>
      <path id="Path_1380" data-name="Path 1380" d="M41.957,38.416c.295-.205.04-.633.338-.837.985.4.4.978.167,1.515.112.078.238.156.152.32-.063.122-.186.08-.291.078a.542.542,0,0,1-.257-.37,2.059,2.059,0,0,0-.175-.511.267.267,0,0,1,.066-.195" fill="#e18368"/>
      <path id="Path_1381" data-name="Path 1381" d="M42.3,39.421c.284.006.244-.151.165-.328l.5.172a.212.212,0,0,1,0,.324c-.219.158-.444.022-.666.015a.143.143,0,0,1,0-.183" fill="#e6947a"/>
      <path id="Path_1382" data-name="Path 1382" d="M42.966,39.589v-.324c.146.191.679-.015.51.5-.256.195-.323-.165-.51-.174" fill="#e59278"/>
      <path id="Path_1383" data-name="Path 1383" d="M41.295,35.058c.407.125.87.119,1.167.5h0a.393.393,0,0,1-.136.459c-.491.242-.84,0-1.16-.341a.543.543,0,0,1,.129-.621" fill="#e2856b"/>
      <path id="Path_1384" data-name="Path 1384" d="M40.774,33.044c.189,0,.381-.016.512.163a1.413,1.413,0,0,0-.167.838l-.167,0a.251.251,0,0,1-.232.013c-.19-.139-.278-.3-.111-.517l.165-.5" fill="#e2866b"/>
      <path id="Path_1385" data-name="Path 1385" d="M40.774,34.037l.178.01a2.275,2.275,0,0,0,.209,1c.018.156-.047.216-.2.174l-.355-.146c.146-.31-.1-.651.078-.959l.091-.083" fill="#f6cdb7"/>
      <path id="Path_1386" data-name="Path 1386" d="M40.96,35.225l.2-.175.135.008q0,.334,0,.669a.3.3,0,0,1-.167.322c-.208-.245-.355-.5-.163-.824" fill="#e6937a"/>
      <path id="Path_1387" data-name="Path 1387" d="M38.092,42.95c-.088-.36-.653-.236-.674-.664.024-.378.3-.184.475-.209.248.044.5-.017.748.009.279.039.53.306.838.1.152,0,.3.026.453.018.382,0,.782.252,1.138-.007.487-.353.719-.057.91.319.214.42-.079.6-.4.765-.149.076-.329.067-.46.183-.226.22-.46.351-.767.127-.085-.062-.179-.049-.073-.014.039.013.046.082.046.141l-.046.082c-.671.034-1.2-.46-1.844-.506-.113-.114-.11-.345-.341-.342" fill="#e07d62"/>
      <path id="Path_1388" data-name="Path 1388" d="M40.771,44.626c-.056.059-.111.118-.167.176a.23.23,0,0,1-.383-.053c-.161-.271.362-.492.058-.774,0-.059,0-.118,0-.177a.772.772,0,0,1,.6-.111.579.579,0,0,1,.208.761.62.62,0,0,1-.313.178" fill="#e07d62"/>
      <path id="Path_1389" data-name="Path 1389" d="M40.279,43.975c.579.225.14.443-.005.664-.056.083-.114.084-.173,0-.3-.318.261-.407.178-.667" fill="#e7997f"/>
      <path id="Path_1390" data-name="Path 1390" d="M40.1,44.642l.173,0a.361.361,0,0,0,.33.163c.087.07.157.177.06.254-.209.168-.384-.03-.569-.1l.006-.317" fill="#e79980"/>
      <path id="Path_1391" data-name="Path 1391" d="M38.092,42.95c.375-.147.325.13.341.342,0,.056,0,.112-.007.169-.111-.171-.223-.341-.334-.511" fill="#e6947a"/>
      <path id="Path_1392" data-name="Path 1392" d="M42.463,39.932c.548.286,1.1.571.671,1.344a.233.233,0,0,1-.206.068c-.313-.169-.829-.087-.816-.659a1.036,1.036,0,0,1,.351-.753" fill="#df7a5e"/>
      <path id="Path_1393" data-name="Path 1393" d="M42.968,41.276h.166a.493.493,0,0,0,.51.507c0,.168,0,.335-.005.5a.294.294,0,0,1-.219.051.973.973,0,0,0-.549-.121c-.267.048-.673.305-.67-.209,0-.392.109-.914.767-.73" fill="#e07e62"/>
      <path id="Path_1394" data-name="Path 1394" d="M42.3,39.421c0,.061,0,.122,0,.183s-.009.107-.013.161c-.091.1-.014.261-.123.356a.13.13,0,0,1-.17-.026c-.309-.159-.327-.4-.181-.677.089-.233.072-.569.48-.493,0,.165,0,.331.005.5" fill="#e6977e"/>
      <path id="Path_1395" data-name="Path 1395" d="M43.969,40.1c.02.367.63.537.338,1.008q-.083,0-.165,0c-.247-.305-.655-.582-.173-1.011" fill="#e59075"/>
      <path id="Path_1396" data-name="Path 1396" d="M42.127,40.113l.16-.348.176.166c-.057.28-.113.559-.17.839-.545-.1-.144-.43-.166-.657" fill="#e6947a"/>
      <path id="Path_1397" data-name="Path 1397" d="M44.826,40.123c-.028.172.023.373-.178.48v-.336c.028-.111.056-.222.083-.333l.1.189" fill="#e07f63"/>
      <path id="Path_1398" data-name="Path 1398" d="M44.475,40.256a.3.3,0,0,1-.333-.323c.468-.26.156.284.333.323" fill="#e07e63"/>
      <path id="Path_1399" data-name="Path 1399" d="M37.918,42.285c-.167.034-.334-.169-.5,0-.085.055-.213.176-.245.154-.184-.123-.05-.328-.09-.494,0-.111,0-.223,0-.334a.963.963,0,0,1,.252-.137c.115-.06.225-.129.339-.193a.976.976,0,0,1,.392-.118.886.886,0,0,1,.527.1c.2.622-.334.758-.674,1.024" fill="#e07e62"/>
      <path id="Path_1400" data-name="Path 1400" d="M42.967,36.736,42.8,36.4a.732.732,0,0,1-.143-.209.435.435,0,0,1,.14-.461c.535.25.6.615.17,1.008" fill="#e7977d"/>
      <path id="Path_1401" data-name="Path 1401" d="M42.8,35.728c0,.167,0,.335,0,.5-.256.023-.525.065-.5-.333.056-.112.112-.224.169-.336l.334.167" fill="#e08065"/>
      <path id="Path_1402" data-name="Path 1402" d="M42.127,40.113c.17.19-.142.5.166.657.017.446.729-.034.675.506-.4.1-.431.515-.825.864.574-.051,1.087-.626,1.328.145-.139.421-.823.3-.84.84,0,.056,0,.112,0,.169a.331.331,0,0,1-.388.1,1.223,1.223,0,0,0-.614.062l-.511,0c.209-.175.408-.363.628-.522.3-.217-.01-.315-.078-.454s-.135-.422-.31-.228c-.486.541-.941.136-1.411.029-.064-.027-.086-.054-.064-.081a.089.089,0,0,1,.066-.04c1.214.03,1.669-.673,2.045-2.071a.88.88,0,0,0,.134.018" fill="#e28469"/>
      <path id="Path_1403" data-name="Path 1403" d="M42.63,43.125c-.115-.676.442-.678.841-.839h.335l.168.336c-.15.341-.389.337-.669.173-.309-.062-.486.147-.675.331" fill="#e07e63"/>
      <path id="Path_1404" data-name="Path 1404" d="M42.122,43.292l.508,0c.089.274.077.52-.291.36-.235-.1-.252.112-.381.145v-.17c-.1-.188-.146-.349.164-.337" fill="#df7b60"/>
      <path id="Path_1405" data-name="Path 1405" d="M40.943,43.8h-.667c-.076-.137-.152-.272-.294-.526a1.812,1.812,0,0,0,1.135.189c0,.056,0,.111,0,.167-.051.065-.067.165-.175.171" fill="#e18469"/>
      <path id="Path_1406" data-name="Path 1406" d="M40.943,43.8l.175-.171a1.4,1.4,0,0,1,.167.842.229.229,0,0,1-.342,0c.164-.222.021-.445,0-.668" fill="#e6967c"/>
      <path id="Path_1407" data-name="Path 1407" d="M40.943,44.468l.342,0c0,.051.007.1.008.153-.058.116-.117.233-.175.351l-.347-.349.172-.158" fill="#e7997f"/>
      <path id="Path_1408" data-name="Path 1408" d="M42.122,43.292c-.055.112-.11.225-.164.337l-.331-.17c.122-.185.225-.422.5-.167" fill="#e89c83"/>
      <path id="Path_1409" data-name="Path 1409" d="M38.088,41.273l-.331.17c-.147-.092-.344-.079-.467-.221-.065-.086-.124-.173-.038-.279l-.006-.335c0-.058,0-.115.005-.173l.168-.168c.311,0,.442-.156.419-.471-.015-.215-.03-.455.258-.535.01.568.491,1.033.353,1.633l-.034.1c-.116.085-.288.108-.327.283" fill="#e89c82"/>
      <path id="Path_1410" data-name="Path 1410" d="M37.253,40.943l.167.167a.608.608,0,0,1,0,.671l-.338-.168c-.062-.65-.062-.65.17-.67" fill="#e48f74"/>
      <path id="Path_1411" data-name="Path 1411" d="M39.947,42.167c0,.04,0,.081,0,.121l-.51,0c-.283.121-.56-.333-.844-.007-.225-.066-.449.163-.674,0,0-.42.657-.508.506-1a.226.226,0,0,1,0-.323l.029-.064c.175.054.42.041.449.278.076.633.568.8,1.049.994" fill="#e58f75"/>
      <path id="Path_1412" data-name="Path 1412" d="M42.293,35.9l.5.333c0,.056,0,.112,0,.168l-1,.172c-.243.146-.337-.129-.51-.181s-.157-.2-.166-.34l.167-.322c.364-.12.621.394,1,.17" fill="#e38b70"/>
      <path id="Path_1413" data-name="Path 1413" d="M40.608,33.543c.055.165.111.33.166.494l.016.021c-.186.038-.044.423-.351.331-.357-.18-.316-.525-.35-.839l.519-.007" fill="#e9a087"/>
      <path id="Path_1414" data-name="Path 1414" d="M41.289,36.39c.3-.305.328.155.51.181l.163.5c-.306.057-.486-.141-.671-.331,0-.117,0-.235,0-.352" fill="#eaa48b"/>
      <path id="Path_1415" data-name="Path 1415" d="M42.292,38.925l-.48.494a.549.549,0,0,1-.021-.665.193.193,0,0,1,.169-.173c.111.114.221.229.332.344" fill="#e59177"/>
      <path id="Path_1416" data-name="Path 1416" d="M40.439,34.389c.139-.087.055-.411.351-.331-.057.341.108.722-.185,1.021-.055-.23-.111-.46-.166-.69" fill="#edad95"/>
      <path id="Path_1417" data-name="Path 1417" d="M41.961,38.58l-.169.174c-.495-.114-.237-.416-.167-.67l.333.332c0,.055,0,.109,0,.164" fill="#e48d73"/>
      <path id="Path_1418" data-name="Path 1418" d="M38.592,42.283c.287-.628.564-.194.844.008-.07.209-.047.62-.415.2a.607.607,0,0,0-.429-.207" fill="#e18166"/>
      <path id="Path_1419" data-name="Path 1419" d="M38.421,40.958c0,.108,0,.215,0,.323-.116.156-.228.144-.337-.008-.156-.388.11-.329.333-.315" fill="#e07d62"/>
      <path id="Path_1420" data-name="Path 1420" d="M37.421,41.781c0-.224,0-.448,0-.671l.338.333-.337.338" fill="#e07d62"/>
    </g>
  </g>
</svg>
