<svg xmlns="http://www.w3.org/2000/svg" xmlns:xlink="http://www.w3.org/1999/xlink" width="77.101" height="77.101" viewBox="0 0 77.101 77.101">
  <defs>
    <clipPath id="clip-path">
      <rect id="Rectangle_64" data-name="Rectangle 64" width="77.101" height="77.101" transform="translate(0 0)" fill="none"/>
    </clipPath>
  </defs>
  <g id="Group_1152" data-name="Group 1152" transform="translate(0 0)">
    <g id="Group_1151" data-name="Group 1151" clip-path="url(#clip-path)">
      <path id="Path_2452" data-name="Path 2452" d="M77.1,38.551A38.551,38.551,0,1,1,38.551,0,38.552,38.552,0,0,1,77.1,38.551" fill="#d3775e"/>
      <path id="Path_2453" data-name="Path 2453" d="M34.668,49.456c-.073,0-.172.025-.215-.012a3.16,3.16,0,0,0-1.48-.754c-.365-.07-.669-.455-1-.7a.342.342,0,0,1-.255-.076,1.548,1.548,0,0,0-.545-.337,6.211,6.211,0,0,0-.69-.481,8.246,8.246,0,0,1-1.848-2.321,1.857,1.857,0,0,1-.233-.657c-.121-.456-.333-.881-.449-1.338h0c-.329-.511-.143-1.12-.316-1.661a12.441,12.441,0,0,1,.462-5.184.336.336,0,0,1,.059-.248.788.788,0,0,0,.127-.495.217.217,0,0,1-.008-.14c.3-.177.192-.5.278-.755a13.473,13.473,0,0,1,1.057-2.562A8.431,8.431,0,0,1,30.8,30c.284-.166.535-.381.816-.551.331-.094.358-.42.5-.659a6.539,6.539,0,0,1,3.868-1.311c.216.164.414-.115.627-.025a2.418,2.418,0,0,0,.633.1.836.836,0,0,0,.281-.036c.1-.012.2,0,.3-.006,1.019-.144,2.022.2,3.039.1.349-.251.6.249.93.124a2.236,2.236,0,0,1,1.184.324,3.519,3.519,0,0,1,1.953.507,4.251,4.251,0,0,0,1.55.535c.106.1.144.259.264.354.083.081.156.168.231.253a.969.969,0,0,0,.251.2c.182.161.293.395.535.489a.671.671,0,0,1,.311.364,1.181,1.181,0,0,0,.233.493c.043.047.082.1.121.149.233.244.39.548.634.782.158.169.314.339.486.494.152.229.454.28.606.508a1.838,1.838,0,0,0,.836.769.465.465,0,0,1,.152.144.822.822,0,0,1,.09.4c-.033.218-.138.436-.006.655,0,.259.174.367.379.451a3.177,3.177,0,0,1,.323.153l.012.008a1.57,1.57,0,0,1,.262.618.722.722,0,0,1,.005.74c-.135.23.2.367.117.588a12.945,12.945,0,0,1-.264,3.577c-.46.277-.326.78-.451,1.185v0a2.19,2.19,0,0,0-.426,1.058v.012c-.73.165-.5.879-.756,1.318a3.739,3.739,0,0,1-1.016,1.49c-.46.193-.567.7-.874,1.029a5.976,5.976,0,0,1-1.269,1.053c-.386.259-.544.758-.995.949a.879.879,0,0,0-.576.7,5.491,5.491,0,0,1-3.14.862,5.708,5.708,0,0,0-.854-.1,4.2,4.2,0,0,0-1.547-.169,17.036,17.036,0,0,1-2.381-.455c-.068.095-.111.245-.277.128l-.291-.009a1.307,1.307,0,0,1-.479-.256c-.36-.016-.8.13-.9-.433-.36-.233-.8-.015-1.164-.194" fill="#f7d9bc"/>
      <path id="Path_2454" data-name="Path 2454" d="M37.024,16.439a5.182,5.182,0,0,1,.029-1.935,3.579,3.579,0,0,1,.742-1.55.771.771,0,0,1,.229-.226,2.283,2.283,0,0,1,1.513.005c.987.887.745,2.092.768,3.2.01.493.131.964.129,1.454a2.1,2.1,0,0,1-.244,1.13c-.188.942-.188.945-1.08.92a.52.52,0,0,0-.406.1.849.849,0,0,1-.493.219A.5.5,0,0,1,38,19.683a.5.5,0,0,1-.127-.174c-.035-.171-.12-.327-.166-.494a2.084,2.084,0,0,1-.628-1.853,2.924,2.924,0,0,1-.058-.723" fill="#f7d9bc"/>
      <path id="Path_2455" data-name="Path 2455" d="M41.771,58.011a6.156,6.156,0,0,1,.1,2.643,2.857,2.857,0,0,1-.07.731.388.388,0,0,1,0,.144c-.2.457.043,1.037-.4,1.424a3.3,3.3,0,0,1-1.822.432c-.4.054-.612-.264-.885-.46a.445.445,0,0,1-.173-.354,24.178,24.178,0,0,1-.076-4.117,1.313,1.313,0,0,1,1.694-1.115c.266-.2.411.119.624.145a.362.362,0,0,0,.138.021.49.49,0,0,0,.473.279c.081.166.31.073.4.227" fill="#f7d9bc"/>
      <path id="Path_2456" data-name="Path 2456" d="M14.979,39.078c-.093.016-.185.166-.279,0a.519.519,0,0,1-.135-.321c-.222-.747.362-1.216.621-1.8.427-.053.8-.312,1.225-.354a7.413,7.413,0,0,0,2.171-.2l.583-.007a2.768,2.768,0,0,0,.64.243c.244-.19.472.046.709.027.135.17.073.428.257.577.048.219.134.428.186.646.035.4.374.755.2,1.193q-.066.083-.135.162a1.113,1.113,0,0,1-1.09.559c-.124.154-.325.008-.46.118a5.4,5.4,0,0,1-2.965-.261c-.332-.029-.561-.467-.957-.241-.3.06-.377-.245-.576-.35" fill="#f7d9bc"/>
      <path id="Path_2457" data-name="Path 2457" d="M62.463,38.941a13.371,13.371,0,0,0-1.874-.138c-.806.112-1.148-.573-1.666-.954.061-.54-.533-1.1.042-1.624a1.689,1.689,0,0,1,1.756-.609,4.722,4.722,0,0,1,3.09.359c.909.289.61,1.1.741,1.722.1.479-.218.645-.587.768l-.6.423c-.3.021-.589.2-.9.053" fill="#f7d8bc"/>
      <path id="Path_2458" data-name="Path 2458" d="M51.614,22.249c.365-.836.958-1.268,1.615-1.179a1.243,1.243,0,0,1,.677,1.283c-.006.364.105.755-.23,1.047l-.859.648c-.467.128-.557.815-1.14.774-.3-.092-.484-.426-.835-.427a.494.494,0,0,1-.186-.093.47.47,0,0,1-.1-.18,2.289,2.289,0,0,1,.025-.3,1.571,1.571,0,0,1,0-.194c.015-.181.187-.248.274-.377L51,22.977c.288-.172.278-.594.611-.728" fill="#f5d5b8"/>
      <path id="Path_2459" data-name="Path 2459" d="M22.885,54.971l1.927-1.787c.393-.106.586-.826,1.16-.377.167.222.037.442,0,.662a.755.755,0,0,0,.073.433c.413.463.2.807-.208,1.116-.063.079-.059.181-.095.269h-.008c-.472.067-.555.669-1.024.741-.5-.226-.917.051-1.358.2-.379.042-.5-.244-.637-.5a.7.7,0,0,1-.113-.305c.019-.2.178-.307.286-.449" fill="#f6d7ba"/>
      <path id="Path_2460" data-name="Path 2460" d="M54.6,52.763c.392-.058.84-.331,1.058.277a1.28,1.28,0,0,0,.72.442l.143.161c-.122.2,0,.528-.321.625-.545-.165-1.15.24-1.67-.175a1.406,1.406,0,0,1-.289-.616,1.112,1.112,0,0,1,.359-.714" fill="#f0c7ab"/>
      <path id="Path_2461" data-name="Path 2461" d="M23.965,26.988l-.009-.293c-.091-.214-.312-.287-.467-.431a.9.9,0,0,1-.71-.617.536.536,0,0,1-.01-.329.565.565,0,0,1,.317-.271,1.583,1.583,0,0,1,.282-.04c.056-.024.114-.044.171-.07a.73.73,0,0,1,.29-.076c.493-.026.717.307.914.679.043.177.109.347.146.526a1.984,1.984,0,0,1,.006.218c-.019.217,0,.448-.213.6a.7.7,0,0,1-.717.108" fill="#f1c9ac"/>
      <path id="Path_2462" data-name="Path 2462" d="M24.55,25.68a2.733,2.733,0,0,0-.766-.607c-.117-.084-.239-.161-.362-.236a.417.417,0,0,1-.217-.373.574.574,0,0,1,.316-.458c.43-.183.7.184,1.034.31l.3.115c.162.438.606.751.573,1.278a.471.471,0,0,1-.37.355c-.258-.01-.341-.252-.507-.384" fill="#f4d2b5"/>
      <path id="Path_2463" data-name="Path 2463" d="M50.869,34.153c-.168.236-.347.6-.5,0a.429.429,0,0,0-.328-.329c-.341-.128-.273-.352-.062-.568-.021-.358.178-.387.452-.3.438.054.521.467.745.736.208.357-.136.35-.3.46" fill="#f4d1b5"/>
      <path id="Path_2464" data-name="Path 2464" d="M40.9,27.9a1.165,1.165,0,0,0-1.117.074c-.354.264-.443-.245-.766-.184a1.935,1.935,0,0,1-1.24-.171c.038-.17.174-.234.317-.291a.82.82,0,0,1,.877-.029c.322.272.72-.08,1.05.129l.741.066c.221.076.3.2.138.406" fill="#f3cfb2"/>
      <path id="Path_2465" data-name="Path 2465" d="M56.846,56.048c-.008.284.282.2.517.42-.577-.142-1.143.212-1.453-.433a.534.534,0,0,1,.023-.3c.1-.183.068-.406.169-.591.146-.164.223-.385.42-.508a.533.533,0,0,1,.536.027.787.787,0,0,1,.226.758c.106.289-.155.332-.3.452-.051.052-.167.053-.135.171" fill="#e6ad92"/>
      <path id="Path_2466" data-name="Path 2466" d="M23.341,24.477l.3.146c.191.283-.07.381-.216.527-.179.072-.463-.078-.524.246l-.117.252a1.039,1.039,0,0,1-.643-.708c0-.033.006-.066.008-.1a2.014,2.014,0,0,1,.148-.485c.2-.16.215-.472.482-.577.471,0,.612.276.567.7" fill="#f0c6aa"/>
      <path id="Path_2467" data-name="Path 2467" d="M39.561,63.166c.6-.034,1.14-.468,1.778-.3a.22.22,0,0,1,.2.174.717.717,0,0,1-.047.127c-.281.231.013.709-.382.891a.587.587,0,0,1-.216.061.794.794,0,0,1-.521-.148,2.454,2.454,0,0,0-.667-.319c-.189-.12-.5-.2-.149-.486" fill="#f4d1b4"/>
      <path id="Path_2468" data-name="Path 2468" d="M55.483,55.87c-.417-.017-.534-.486-.892-.592-.261-.579.134-.8.552-1.009a.634.634,0,0,1,.719.118c.065.468.276.946-.09,1.386a.407.407,0,0,1-.289.1" fill="#f2cbaf"/>
      <path id="Path_2469" data-name="Path 2469" d="M47.144,48.274A6.824,6.824,0,0,0,49,46.512c.075-.1.268-.1.407-.153a6.347,6.347,0,0,1-1.951,2.255c-.181-.044-.319-.126-.315-.34" fill="#f4d1b4"/>
      <path id="Path_2470" data-name="Path 2470" d="M50.73,24.181h.137l.148.146a1.648,1.648,0,0,1,.447.813c-.028.139-.037.288-.183.369-.472.238-.626-.207-.892-.414-.062-.213-.35-.238-.393-.468.047-.3.053-.622.415-.747a.151.151,0,0,1,.174-.042c.121.083.034.257.147.344" fill="#eab69a"/>
      <path id="Path_2471" data-name="Path 2471" d="M64.428,37.724a3.86,3.86,0,0,0-.617-1.749c.47-.021,1.126-.106,1.006.571-.074.412,0,.8-.068,1.192a.246.246,0,0,1-.321-.014" fill="#f1caad"/>
      <path id="Path_2472" data-name="Path 2472" d="M22.136,24.941a2.356,2.356,0,0,1-1.1-.5c-.287-.177-.191-.338-.107-.54a.281.281,0,0,1,.112-.305.46.46,0,0,1,.328-.079,1.1,1.1,0,0,1,.855.488.477.477,0,0,1,.084.2c-.1.226.061.507-.154.708Z" fill="#f0c8ac"/>
      <path id="Path_2473" data-name="Path 2473" d="M57.136,54.843l-.62,0a.222.222,0,0,1-.194.044.334.334,0,0,1-.209-.327.707.707,0,0,0,.11-.47c.08-.162.091-.371.3-.445.113.115.172.266.363.318.47.126.6.432.383.874a.086.086,0,0,1-.135.009" fill="#e9b499"/>
      <path id="Path_2474" data-name="Path 2474" d="M39.561,63.166c0,.2.177.219.3.3.185.246.089.431-.13.588-.418.267-.747.246-.913-.288-.2-.159-.041-.422-.175-.6.01-.151-.033-.32.138-.418.207.242.667.011.783.421" fill="#f0c7aa"/>
      <path id="Path_2475" data-name="Path 2475" d="M25.868,52.9c-.431-.2-.614.521-1.055.284a3.018,3.018,0,0,1,1.157-1.2.566.566,0,0,1,.554.051.453.453,0,0,1,.121.207c-.03.489-.247.759-.777.659" fill="#f0c7aa"/>
      <path id="Path_2476" data-name="Path 2476" d="M37.179,17.184c.048.186.784.148.152.589-.235.163-.027.565.3.665a1.713,1.713,0,0,1,.728.335c-.076.236-.31.095-.433.2a.278.278,0,0,1-.173.093.945.945,0,0,1-.375-.158c-.149-.093-.3-.182-.217-.4-.118-.431-.486-.828-.184-1.317a.142.142,0,0,1,.2,0" fill="#f4d2b6"/>
      <path id="Path_2477" data-name="Path 2477" d="M15.308,36.98c.014.666-.664,1.1-.6,1.783-.141.021-.209-.026-.164-.177-.429-.154-.256-.6-.429-.88a2.021,2.021,0,0,0,.613-.544c.129-.163.243-.356.506-.256.024.025.049.05.074.074" fill="#f5d3b7"/>
      <path id="Path_2478" data-name="Path 2478" d="M18.583,36.412c-.6.6-1.372.366-2.084.413-.127-.15-.42-.043-.471-.308a8.971,8.971,0,0,1,2.555-.1" fill="#f2cbaf"/>
      <path id="Path_2479" data-name="Path 2479" d="M60.721,35.616l-1.662.617a.11.11,0,0,1-.191-.017.654.654,0,0,1,.626-.731c.131-.12.266-.231.463-.156.278.033.592-.027.764.287" fill="#eec2a6"/>
      <path id="Path_2480" data-name="Path 2480" d="M50.426,44.869c0-.367-.009-.735,0-1.1.006-.239-.055-.557.229-.645.308-.1.341.291.527.429a4.088,4.088,0,0,1-.756,1.318" fill="#f3ceb2"/>
      <path id="Path_2481" data-name="Path 2481" d="M47.144,48.274l.314.339c-.389.458-.716.988-1.349,1.164-.24-.2-.245-.4,0-.6l1.036-.907" fill="#f0c7ab"/>
      <path id="Path_2482" data-name="Path 2482" d="M47.892,30.878c-.1-.1-.2-.2-.3-.3a1.792,1.792,0,0,1-.415-.582c-.194.135-.334.153-.33-.15,0-.486.365-.271.6-.312.208.465.884.581.892,1.195a.322.322,0,0,1,.1.28.339.339,0,0,1-.191.225c-.3.067-.289-.187-.362-.354" fill="#eec2a6"/>
      <path id="Path_2483" data-name="Path 2483" d="M23.341,24.477l-.577-.607a.243.243,0,0,1-.114-.143.416.416,0,0,1,.072-.265,2.348,2.348,0,0,1,.321-.325.36.36,0,0,1,.584.174c.227.286.462.571.009.864l-.3.3" fill="#ebbba0"/>
      <path id="Path_2484" data-name="Path 2484" d="M53.728,22.365q-.25-.648-.5-1.3c.578.082,1.068.247.929,1a.368.368,0,0,1-.149.384.212.212,0,0,1-.281-.087" fill="#dd947a"/>
      <path id="Path_2485" data-name="Path 2485" d="M44.919,28.646a11.628,11.628,0,0,1-1.941-.584,1.575,1.575,0,0,1,1.943.44c.051.032.068.065.05.1s-.034.047-.052.047" fill="#e6ac90"/>
      <path id="Path_2486" data-name="Path 2486" d="M38.662,19.413c.088-.041.181-.127.264-.117a1.141,1.141,0,0,0,1.263-.779c.286.623-.147,1.2-.9,1.167a2.09,2.09,0,0,1-.489-.143.228.228,0,0,1-.14-.128" fill="#ebb99d"/>
      <path id="Path_2487" data-name="Path 2487" d="M39.537,12.733c-.461.377-.991-.03-1.471.129-.186-.338.1-.371.3-.461a1.979,1.979,0,0,1,.976-.013c.195.018.322.121.2.345" fill="#f0c8ab"/>
      <path id="Path_2488" data-name="Path 2488" d="M51.615,24.629c.489-.012.666-.669,1.2-.581A2.284,2.284,0,0,1,51.6,25.273c-.224.011-.2-.238-.339-.319a.31.31,0,0,1,0-.195.346.346,0,0,1,.353-.13" fill="#e6ab90"/>
      <path id="Path_2489" data-name="Path 2489" d="M37.916,13.013a4.18,4.18,0,0,1-.863,1.491c-.048-.584-.135-1.182.548-1.5a.235.235,0,0,1,.315.009" fill="#efc5a9"/>
      <path id="Path_2490" data-name="Path 2490" d="M27.643,52.314c.514.455.269.834-.121,1.2-.2,0-.4-.02-.508-.234a.628.628,0,0,1-.07-.351c-.006-.081-.01-.162-.016-.243a.593.593,0,0,1,.153-.325.47.47,0,0,1,.562-.046" fill="#ecbba0"/>
      <path id="Path_2491" data-name="Path 2491" d="M44.919,28.646c0-.048,0-.1,0-.144.674-.03,1.156.533,1.8.586.084.156.067.281-.111.356-.124,0-.212-.037-.208-.183-.108-.046-.242-.158-.321-.128-.555.213-.873-.1-1.165-.487" fill="#efc3a8"/>
      <path id="Path_2492" data-name="Path 2492" d="M46.107,49.181c0,.2,0,.4,0,.6-.075.186-.084.461-.412.31-.152-.06-.445-.164-.325-.285.219-.222.237-.732.736-.621" fill="#efc5aa"/>
      <path id="Path_2493" data-name="Path 2493" d="M25.268,25.669c-.038-.089-.055-.235-.118-.259-.529-.2-.315-.619-.3-.979.349.418.855.736.873,1.366a.142.142,0,0,1,.053.11c0,.043-.007.064-.016.064a.277.277,0,0,1-.266.085c-.188-.063-.215-.222-.23-.387" fill="#eec2a5"/>
      <path id="Path_2494" data-name="Path 2494" d="M21.027,39.253c-.028-.066-.055-.133-.083-.2-.1-.4.107-.6.453-.714.028-.128-.056-.332.125-.357.126-.018.195.224.143.274-.3.282.245,1.1-.638,1" fill="#dd967b"/>
      <path id="Path_2495" data-name="Path 2495" d="M39.562,63.892l.3-.429c.274-.055.528-.068.6.295.186.426.014.66-.408.759a.487.487,0,0,1-.492,0l-.159-.15a.775.775,0,0,1,.165-.471" fill="#f0c6aa"/>
      <path id="Path_2496" data-name="Path 2496" d="M23.636,24.175c-.129-.287.022-.576-.009-.864.488.169.615.672.928,1a2.394,2.394,0,0,1-.919-.14" fill="#efc4a8"/>
      <path id="Path_2497" data-name="Path 2497" d="M25.573,54.833c.753-.179.311-.562.153-.9a.441.441,0,0,1,.336-.19.561.561,0,0,1,.375.11c.17.138.038.373.167.525-.208.284-.364.621-.736.743-.121-.075-.38-.008-.3-.291" fill="#f1caad"/>
      <path id="Path_2498" data-name="Path 2498" d="M31.678,29.539a1.156,1.156,0,0,0-.172.324c-.109.729-.406.417-.7.136.028-.444.328-.576.708-.618.154-.051.189.023.166.158" fill="#f0c6aa"/>
      <path id="Path_2499" data-name="Path 2499" d="M58.868,36.216l.19.017c-.26.52-.025,1.083-.135,1.616a3.5,3.5,0,0,1-.435-1.21c-.037-.225-.123-.625.38-.423" fill="#e8b296"/>
      <path id="Path_2500" data-name="Path 2500" d="M23.043,23.138c.08.191-.024.321-.146.446-.194.126-.368-.027-.553-.038a.732.732,0,0,1-.522-.263.406.406,0,0,1-.067-.191c.022-.237.278-.287.374-.465.305.17.722.138.914.511" fill="#ecbca0"/>
      <path id="Path_2501" data-name="Path 2501" d="M21.4,38.34l-.453.713a4.369,4.369,0,0,1-.133-1.15,1.775,1.775,0,0,1-.088-.655.227.227,0,0,1,.087-.162c.422.312.248.9.587,1.254" fill="#f4d2b5"/>
      <path id="Path_2502" data-name="Path 2502" d="M51.018,35.191c-.4-.2-.131-.408-.005-.614.251-.208.443-.082.624.109a.427.427,0,0,1,.065.192c.293.148.2.3.005.452a.331.331,0,0,1-.159.125c-.24.039-.384-.114-.53-.264" fill="#e9b398"/>
      <path id="Path_2503" data-name="Path 2503" d="M55.17,54.546a1.306,1.306,0,0,0-.579.732l-.754-.869c-.081-.313.093-.393.356-.392.255.306.805.069.977.529" fill="#e9b599"/>
      <path id="Path_2504" data-name="Path 2504" d="M37.474,27.632l-.146.12c-.245-.069-.532.082-.748-.142-.228.091-.454.172-.593-.133.5-.436.994-.238,1.488.012.116.048.116.1,0,.143" fill="#f2ccaf"/>
      <path id="Path_2505" data-name="Path 2505" d="M23.479,57.052c-.3.175-.589-.043-.884-.007-.135-.264-.181-.516.1-.721a.87.87,0,0,1,.545-.14.4.4,0,0,1,.207.077.538.538,0,0,1,.031.791" fill="#eab89c"/>
      <path id="Path_2506" data-name="Path 2506" d="M26.464,51.709c.391-.183.8-.411.895.294.039.242-.153.271-.308.336a.511.511,0,0,1-.571-.2l0,.009a.312.312,0,0,1-.018-.439" fill="#d9896f"/>
      <path id="Path_2507" data-name="Path 2507" d="M24.68,55.876a.894.894,0,0,1,1.051-.588c-.289.306-.413.774-.884.9-.128.058-.193-.008-.234-.12a.269.269,0,0,1,.067-.192" fill="#eec1a6"/>
      <path id="Path_2508" data-name="Path 2508" d="M54.157,54.238c-.168-.058-.249.047-.32.171-.052-.1-.1-.2-.154-.3-.127-.157.03-.309.009-.465-.039-.1-.077-.193-.115-.289.227-.164.38-.493.75-.337.119.128.08.274.048.419-.022.195.11.346.151.522-.035.21-.131.339-.369.281" fill="#efc4a8"/>
      <path id="Path_2509" data-name="Path 2509" d="M22.9,56.462a.7.7,0,0,0-.306.582,1.336,1.336,0,0,1-.6-1.027.363.363,0,0,1,.191-.133,1.047,1.047,0,0,1,.77.243.329.329,0,0,1-.051.335" fill="#ecbca0"/>
      <path id="Path_2510" data-name="Path 2510" d="M21.4,23.728l-.3,0c-.143-.065-.245-.151-.169-.328-.225-.383-.027-.518.329-.559.109.172.314.07.452.157a1.112,1.112,0,0,1,.139.144c.181.448-.064.573-.449.59" fill="#e9b69b"/>
      <path id="Path_2511" data-name="Path 2511" d="M53.728,22.365l.245-.017c.336.073.3.273.171.5-.173.168-.168.488-.468.548-.166-.218.476-.893-.423-.624.077-.328.341-.279.475-.411" fill="#efc3a7"/>
      <path id="Path_2512" data-name="Path 2512" d="M41.543,63.04l-.2-.174c.17-.44.024-.99.463-1.337.182.231-.018.481.037.718-.143.245.126.515-.048.757l-.248.036" fill="#efc3a7"/>
      <path id="Path_2513" data-name="Path 2513" d="M27.952,42.781c.557.309.457.839.449,1.338-.252-.412-.641-.777-.449-1.338" fill="#f2ccb0"/>
      <path id="Path_2514" data-name="Path 2514" d="M40.9,27.9l-.138-.406c.45-.366.716.053,1.037.241-.207.563-.642-.124-.9.165" fill="#eec2a6"/>
      <path id="Path_2515" data-name="Path 2515" d="M51.614,22.249c-.138.3.147.951-.611.728.044-.377.046-.789.611-.728" fill="#efc4a8"/>
      <path id="Path_2516" data-name="Path 2516" d="M40.154,50.675c.538-.287,1.084-.02,1.626-.022a.29.29,0,0,1,0,.443c-.466-.429-1.119-.139-1.623-.421" fill="#e8b196"/>
      <path id="Path_2517" data-name="Path 2517" d="M27.636,41.12c.425.492.2,1.108.317,1.66a1.616,1.616,0,0,1-.317-1.66" fill="#f2ceb1"/>
      <path id="Path_2518" data-name="Path 2518" d="M40,64.327c.325-.051.225-.44.452-.569l.46.165c.173.222.155.41-.1.555a1.842,1.842,0,0,0-.524.151c-.045.014-.091.027-.137.038-.148-.07-.25-.16-.152-.34" fill="#ebba9e"/>
      <path id="Path_2519" data-name="Path 2519" d="M41.041,63.892c.1-.274-.008-.679.455-.725a1.423,1.423,0,0,1-.018,1c-.332.2-.4-.013-.437-.277" fill="#e9b397"/>
      <path id="Path_2520" data-name="Path 2520" d="M50.428,32.957l-.453.3c-.241-.09-.556-.084-.6-.444a.359.359,0,0,1,.107-.273.478.478,0,0,1,.177-.082c.129-.013.257-.01.387-.015a.712.712,0,0,1,.362.075l.018.436" fill="#f3cdb1"/>
      <path id="Path_2521" data-name="Path 2521" d="M23.479,57.052c-.045-.239-.091-.478-.136-.717.282-.288.578-.408.912-.075.094.3-.168.287-.321.37.019.324-.226.364-.455.422" fill="#e19f84"/>
      <path id="Path_2522" data-name="Path 2522" d="M39.562,63.892c.08.205-.029.343-.165.471-.664.254-.543-.25-.582-.6.223.2.456.328.747.129" fill="#e09d83"/>
      <path id="Path_2523" data-name="Path 2523" d="M24.976,27.749c-.422-.009-.623-.342-.878-.6a.851.851,0,0,1,.333-.238.668.668,0,0,1,.2-.047.444.444,0,0,1,.2.057,1.28,1.28,0,0,1,.309.292.339.339,0,0,1-.167.533" fill="#e9b599"/>
      <path id="Path_2524" data-name="Path 2524" d="M46.554,29.418l.17-.33.724.444-.6.312-.3-.152a.178.178,0,0,1,0-.274" fill="#d98b72"/>
      <path id="Path_2525" data-name="Path 2525" d="M54.289,53.049a.911.911,0,0,1-.712.3,1.765,1.765,0,0,1,.272-.749c.191-.094.322.024.457.127l-.017.022a.2.2,0,0,1,0,.3" fill="#e9b59a"/>
      <path id="Path_2526" data-name="Path 2526" d="M15.6,39.363c.437-.3.686-.032.91.305-.371.311-.586-.212-.907-.169-.1-.043-.1-.088,0-.136" fill="#f3d0b4"/>
      <path id="Path_2527" data-name="Path 2527" d="M26.6,54.381l-.268-.439a.786.786,0,0,1-.319-.53c.061-.329.271-.428.579-.376a.486.486,0,0,1,.327.383c.036.253-.152.386-.29.546-.01.139-.019.277-.029.416" fill="#f0c7ab"/>
      <path id="Path_2528" data-name="Path 2528" d="M51.607,42.476c-.055-.473-.264-1.005.452-1.184a2.532,2.532,0,0,1-.452,1.184" fill="#f4d2b6"/>
      <path id="Path_2529" data-name="Path 2529" d="M51.182,43.539c-.123-.459-.139-.875.425-1.058a1.922,1.922,0,0,1-.425,1.058" fill="#f3ceb2"/>
      <path id="Path_2530" data-name="Path 2530" d="M16.028,36.517c.166.088.406.064.471.308-.41-.047-.77.286-1.19.155l-.006-.007c-.072-.173.016-.273.159-.347.242.237.37-.111.566-.109" fill="#f5d3b7"/>
      <path id="Path_2531" data-name="Path 2531" d="M64.428,37.724l.321.014c0,.524-.277.749-.784.727.066-.3.574-.328.463-.741" fill="#de967c"/>
      <path id="Path_2532" data-name="Path 2532" d="M40.015,27.432c-.347-.064-.76.4-1.05-.129.368-.1.735-.2,1.05.129" fill="#df9a80"/>
      <path id="Path_2533" data-name="Path 2533" d="M21.852,23.138H21.71c-.084-.127-.4-.016-.323-.307a.7.7,0,0,1,.742-.2.741.741,0,0,1-.277.511" fill="#eec3a6"/>
      <path id="Path_2534" data-name="Path 2534" d="M57.136,54.843q.067,0,.135-.009c.258.191.558.382.013.59-.553-.065-.115-.383-.148-.581" fill="#d88870"/>
      <path id="Path_2535" data-name="Path 2535" d="M31.678,29.539l-.166-.158a1.184,1.184,0,0,1,.606-.593c.121.407.1.729-.44.751" fill="#f3d0b3"/>
      <path id="Path_2536" data-name="Path 2536" d="M48.192,31.175c.048-.048.095-.1.143-.143A.733.733,0,0,1,48.8,31l.43.352c.131.142.08.262-.046.372-.314.17-.527-.149-.8-.166a.335.335,0,0,1-.187-.082.2.2,0,0,1,0-.3" fill="#f4d2b6"/>
      <path id="Path_2537" data-name="Path 2537" d="M26.633,53.965c.047-.158.1-.317.142-.476a.31.31,0,0,1,.341-.079c.172.1.225.232.1.406-.067.536-.386.1-.579.149" fill="#e4a88d"/>
      <path id="Path_2538" data-name="Path 2538" d="M15.462,36.626c-.053.116-.106.231-.16.347a.791.791,0,0,0-.442.3c-.274.023-.232-.129-.164-.295.2-.237.36-.563.766-.352" fill="#ecbda2"/>
      <path id="Path_2539" data-name="Path 2539" d="M41.778,51.1l0-.443c.247.128.663-.187.775.3l-.778.147" fill="#dd967d"/>
      <path id="Path_2540" data-name="Path 2540" d="M62.463,38.941c.294-.108.58-.354.9-.053-.286.247-.574.458-.9.053" fill="#df9a80"/>
      <path id="Path_2541" data-name="Path 2541" d="M51.7,34.878l-.095-.157a1.28,1.28,0,0,1-.592-.569h-.147c.1-.153.2-.307.3-.46.135.413.62.671.53,1.185" fill="#f1caad"/>
      <path id="Path_2542" data-name="Path 2542" d="M34.668,49.456c.415-.1.83-.193,1.164.194-.394-.025-.809.072-1.164-.194" fill="#eec2a6"/>
      <path id="Path_2543" data-name="Path 2543" d="M22.885,54.971l-.129.46a.355.355,0,0,1-.237.216c-.183.073-.361.119-.493-.089a1.362,1.362,0,0,1,.859-.587" fill="#e8b094"/>
      <path id="Path_2544" data-name="Path 2544" d="M41.041,63.892c.12.133.233.276.437.278-.147.111-.292.223-.439.335-.176.054-.392.224-.427-.143.236-.053.28-.239.3-.439.042-.009.084-.02.125-.031" fill="#d98b71"/>
      <path id="Path_2545" data-name="Path 2545" d="M54.144,22.852l-.171-.5c.061-.094.123-.187.184-.28.251.265.444.529-.013.783" fill="#e7af94"/>
      <path id="Path_2546" data-name="Path 2546" d="M26.163,27.458c-.178.118-.351.256-.585.145-.181.127-.317.081-.372-.124-.063-.233.1-.343.281-.424a.787.787,0,0,1,.505,0c.15.093.291.191.171.4" fill="#d68269"/>
      <path id="Path_2547" data-name="Path 2547" d="M37.916,13.013,37.6,13c.2-.275.206-.785.763-.6l-.3.46-.15.151" fill="#e9b499"/>
      <path id="Path_2548" data-name="Path 2548" d="M49.995,24.627c.153.137.728-.081.393.467a.39.39,0,0,1-.393-.467" fill="#e6ac90"/>
      <path id="Path_2549" data-name="Path 2549" d="M38.662,19.413l.14.129c-.018.192-.018.4-.265.456-.149-.1-.4-.125-.334-.4l.459-.181" fill="#e9b499"/>
      <path id="Path_2550" data-name="Path 2550" d="M20.641,37.3c-.342-.146-.233-.384-.126-.621.343-.039.284.212.3.412l.01.043c-.068.047-.08.154-.18.166" fill="#e8b398"/>
      <path id="Path_2551" data-name="Path 2551" d="M31.224,47.542l.595.312c.038.144-.02.184-.154.141-.216-.35-.83-.089-.936-.608.219-.119.338.078.5.155" fill="#eab79c"/>
      <path id="Path_2552" data-name="Path 2552" d="M25.571,27.187c.045.138-.447.284.007.415a.879.879,0,0,1-.6.147.44.44,0,0,0,0-.445.327.327,0,0,1,.207-.312.358.358,0,0,1,.286.032.266.266,0,0,1,.1.163" fill="#dd9379"/>
      <path id="Path_2553" data-name="Path 2553" d="M40.762,57.484c-.257.165-.408-.128-.624-.145.234-.421.234-.421.624.145" fill="#e3a489"/>
      <path id="Path_2554" data-name="Path 2554" d="M52.2,36.387a.441.441,0,0,1-.262-.619c.369.087.411.313.262.619" fill="#e2a388"/>
      <path id="Path_2555" data-name="Path 2555" d="M38.2,19.594c.119.129.318.191.335.405a.484.484,0,0,1-.617-.162c-.052-.146.02-.219.15-.257a.449.449,0,0,1,.132.014" fill="#d68167"/>
      <path id="Path_2556" data-name="Path 2556" d="M40,64.327c.051.113.1.227.152.34-.26.185-.456.116-.6-.154L40,64.327" fill="#e2a288"/>
      <path id="Path_2557" data-name="Path 2557" d="M37.179,17.184l-.2,0a.715.715,0,0,1,.047-.748,1.091,1.091,0,0,1,.155.745" fill="#efc5a9"/>
      <path id="Path_2558" data-name="Path 2558" d="M22.026,55.559l.446-.132a.37.37,0,0,1,.1.381c-.083.213-.3.115-.442.195l-.137.015a.336.336,0,0,1,.035-.459" fill="#d47c63"/>
      <path id="Path_2559" data-name="Path 2559" d="M49.075,31.628c.051-.094.1-.188.152-.281.252.107.477.23.34.569a.317.317,0,0,1-.531-.05.266.266,0,0,1,.039-.238" fill="#f0c7ab"/>
      <path id="Path_2560" data-name="Path 2560" d="M53.692,53.643c.589.166-.018.31-.009.465-.362-.161-.218-.314.009-.465" fill="#eec1a5"/>
      <path id="Path_2561" data-name="Path 2561" d="M56.383,53.482c-.354.039-.728.11-.72-.442l.72.442" fill="#e1a085"/>
      <path id="Path_2562" data-name="Path 2562" d="M26.169,26.262a.535.535,0,0,1,.136.45.422.422,0,0,1-.534.249.385.385,0,0,1-.168-.139.4.4,0,0,1-.009-.327.474.474,0,0,1,.465-.252l.11.019" fill="#e8b297"/>
      <path id="Path_2563" data-name="Path 2563" d="M38.778,62.745a.389.389,0,0,1-.138.418c-.185-.168-.336-.343-.12-.592l.258.174" fill="#dc9177"/>
      <path id="Path_2564" data-name="Path 2564" d="M25.71,26.866l.6-.154V27c-.072.189-.273.1-.4.185-.113.193-.226.009-.339,0l.01-.057c-.071-.144.007-.215.129-.264" fill="#e8b196"/>
      <path id="Path_2565" data-name="Path 2565" d="M28.555,34.3c.142.338.21.648-.277.755.159-.227.035-.558.277-.755" fill="#eec0a5"/>
      <path id="Path_2566" data-name="Path 2566" d="M52.323,37.714c-.2-.163-.293-.349-.117-.588.314.141.382.331.117.588" fill="#edc0a5"/>
      <path id="Path_2567" data-name="Path 2567" d="M14.544,38.586l.164.178c0,.1-.005.21-.008.315-.208-.048-.425-.1-.449-.357,0-.036.191-.09.293-.136" fill="#f1caae"/>
      <path id="Path_2568" data-name="Path 2568" d="M49.688,32.661h-.154l-.1-.029c-.259-.271-.071-.416.154-.55l.1-.035.29.093a.26.26,0,0,1,.1.276c-.086.148-.157.322-.386.246" fill="#eec0a4"/>
      <path id="Path_2569" data-name="Path 2569" d="M48.8,31a.317.317,0,0,1-.462.036c0-.1,0-.2.005-.3.2.015.394.027.457.268" fill="#ebb99d"/>
      <path id="Path_2570" data-name="Path 2570" d="M54.289,53.049v-.3l.315.01c-.049.255-.1.51-.148.765-.077.061-.131.046-.162-.047,0-.144,0-.288,0-.432" fill="#de967c"/>
      <path id="Path_2571" data-name="Path 2571" d="M25.91,27.187a.445.445,0,0,1,.4-.185c.156.215.1.366-.142.456-.084-.091-.169-.181-.253-.271" fill="#d98a70"/>
      <path id="Path_2572" data-name="Path 2572" d="M49.959,32.409l.018-.27c.267-.012.384.145.433.381l-.313.141c-.214.008-.206-.1-.138-.252" fill="#efc4a8"/>
      <path id="Path_2573" data-name="Path 2573" d="M27.051,52.171c.1-.056.206-.111.307-.167a.317.317,0,0,1,.284.311l-.433.138c-.243.013-.24-.112-.158-.282" fill="#e4a88c"/>
      <path id="Path_2574" data-name="Path 2574" d="M23.489,26.264c.29,0,.509.074.467.431a.682.682,0,0,1-.467-.431" fill="#f0c7ab"/>
      <path id="Path_2575" data-name="Path 2575" d="M14.7,36.978l.164.295a1.21,1.21,0,0,1-.745.433q.291-.363.581-.728" fill="#d88970"/>
      <path id="Path_2576" data-name="Path 2576" d="M41.771,58.011c-.269.278-.422.229-.455-.161a.1.1,0,0,1-.032-.122c.019-.035.036-.053.052-.053a.713.713,0,0,1,.435.336" fill="#e09b80"/>
      <path id="Path_2577" data-name="Path 2577" d="M50.549,23.87c-.047,0-.093,0-.139.009-.054-.354.07-.581.447-.626l-.129.454a.167.167,0,0,1-.179.163" fill="#efc4a8"/>
      <path id="Path_2578" data-name="Path 2578" d="M55.483,55.87l.146-.153a.362.362,0,0,1,.3-.091c.109.045.187.109.147.244l-.169.165-.427-.165" fill="#e4a98d"/>
      <path id="Path_2579" data-name="Path 2579" d="M54.307,52.731,53.85,52.6c-.041-.163.049-.208.185-.188.178.025.313.1.272.315" fill="#d47d64"/>
      <path id="Path_2580" data-name="Path 2580" d="M41.791,63c-.049-.256-.182-.518.048-.757a.681.681,0,0,1-.048.757" fill="#edbda1"/>
      <path id="Path_2581" data-name="Path 2581" d="M51.6,35.339c.036,0,.073-.006.11-.009.073.143.147.287.219.43l-.315.2c-.311-.243-.312-.306-.014-.617" fill="#e4a78b"/>
      <path id="Path_2582" data-name="Path 2582" d="M41.336,57.675c-.006.058-.013.116-.019.175-.432.238-.4-.08-.417-.345l.436.17" fill="#e9b499"/>
      <path id="Path_2583" data-name="Path 2583" d="M31.224,47.542l-.494-.155a.382.382,0,0,1-.248-.289.8.8,0,0,1,.742.444" fill="#e4a68c"/>
      <path id="Path_2584" data-name="Path 2584" d="M27.212,53.816l-.123-.328c-.155-.178-.11-.277.119-.3l.314.327-.31.3" fill="#f1caad"/>
      <path id="Path_2585" data-name="Path 2585" d="M37.16,18.5c.107.117.215.233.323.35,0,.112-.035.187-.169.132-.446-.034-.288-.262-.154-.482" fill="#edbfa3"/>
      <path id="Path_2586" data-name="Path 2586" d="M15.6,39.363l0,.136c-.306,0-.551-.082-.625-.422l.622.286" fill="#ecbea2"/>
      <path id="Path_2587" data-name="Path 2587" d="M24.681,56.015l.166.173c-.065.24-.318.176-.463.286a.387.387,0,0,1-.1-.216c.028-.248.128-.378.393-.243" fill="#e9b498"/>
      <path id="Path_2588" data-name="Path 2588" d="M19.805,36.648a.537.537,0,0,1-.639-.243.642.642,0,0,1,.639.243" fill="#ebbba0"/>
      <path id="Path_2589" data-name="Path 2589" d="M38.071,19.579l-.15.258a.585.585,0,0,1-.3-.419c.024-.025.048-.05.071-.076a.291.291,0,0,1,.373.081c0,.052,0,.1,0,.156" fill="#e9b499"/>
      <path id="Path_2590" data-name="Path 2590" d="M25.719,25.976c0-.06.005-.12.008-.18.3.013.408.2.442.466l-.059,0c-.182.14-.315.06-.431-.1a.185.185,0,0,1,.04-.188" fill="#f1c9ad"/>
      <path id="Path_2591" data-name="Path 2591" d="M20.933,23.4c.056.109.112.218.169.327l-.174.183c-.149-.172-.554-.346.005-.51" fill="#e7af94"/>
      <path id="Path_2592" data-name="Path 2592" d="M36.727,50.083c.207,0,.4.024.479.256-.265.113-.42.017-.479-.256" fill="#df9b81"/>
      <path id="Path_2593" data-name="Path 2593" d="M24.54,27l-.442.147c-.045-.054-.089-.108-.133-.163l.577-.268a.2.2,0,0,1,0,.284" fill="#ebb99e"/>
      <path id="Path_2594" data-name="Path 2594" d="M37.474,27.632a1.138,1.138,0,0,1,0-.143c.14-.3.412-.093.613-.158l-.317.292-.3.009" fill="#e1a287"/>
      <path id="Path_2595" data-name="Path 2595" d="M40.612,64.362l.428.143a.95.95,0,0,1-.747.124l.319-.267" fill="#df9a80"/>
      <path id="Path_2596" data-name="Path 2596" d="M28.285,35.193c.142.207.049.4-.035.594-.155.04-.2-.033-.178-.175l.213-.419" fill="#edbfa3"/>
      <path id="Path_2597" data-name="Path 2597" d="M26.464,51.709l.018.439-.512-.165.494-.274" fill="#eec1a6"/>
      <path id="Path_2598" data-name="Path 2598" d="M37.5,50.348l.277-.128c0,.106.221.2.065.29a.244.244,0,0,1-.342-.162" fill="#edbfa3"/>
      <path id="Path_2599" data-name="Path 2599" d="M37.314,18.986l.169-.132.287.118a.427.427,0,0,1-.1.414l-.052.033-.309-.433" fill="#e6ad92"/>
      <path id="Path_2600" data-name="Path 2600" d="M49.08,31.771l.487.146.12.129c-.009.024-.02.047-.031.07a.753.753,0,0,1-.211.094.533.533,0,0,1-.548-.084.322.322,0,0,1-.016-.333.127.127,0,0,1,.2-.022" fill="#e8b297"/>
      <path id="Path_2601" data-name="Path 2601" d="M41.805,61.384a.982.982,0,0,1,.07-.731.855.855,0,0,1-.07.731" fill="#efc3a7"/>
      <path id="Path_2602" data-name="Path 2602" d="M59.957,35.329l-.464.156c.014-.469.263-.241.464-.156" fill="#e6ad91"/>
      <path id="Path_2603" data-name="Path 2603" d="M28.072,35.611l.179.175-.151.149c-.1.023-.206.041-.234-.081-.034-.152.1-.2.206-.243" fill="#e4a78c"/>
      <path id="Path_2604" data-name="Path 2604" d="M24.372,56.3l.012.17a.287.287,0,0,1-.449.156c.1-.1.2-.2.3-.3a.1.1,0,0,1,.142-.022" fill="#e9b59a"/>
      <path id="Path_2605" data-name="Path 2605" d="M19.477,39.93l.461-.119c-.032.515-.328,0-.461.119" fill="#f3cfb2"/>
      <path id="Path_2606" data-name="Path 2606" d="M25.573,54.833l.3.291-.129.164c-.1-.135-.312-.23-.166-.455" fill="#ebbba0"/>
      <path id="Path_2607" data-name="Path 2607" d="M31.665,47.995l.155-.141.152.137c-.02.089-.028.215-.14.2-.064-.009-.112-.126-.167-.194" fill="#e7b095"/>
      <path id="Path_2608" data-name="Path 2608" d="M56.846,56.048c-.1-.046-.281-.093-.222-.2.084-.153.232.034.357.03l-.135.171" fill="#f2cdb1"/>
      <path id="Path_2609" data-name="Path 2609" d="M51.318,24.932l.285.34-.323.236.006-.423a.107.107,0,0,1,.032-.153" fill="#d57f67"/>
      <path id="Path_2610" data-name="Path 2610" d="M21.387,22.831l.323.308c-.192-.038-.5.092-.448-.3a.865.865,0,0,1,.125-.006" fill="#de987e"/>
      <path id="Path_2611" data-name="Path 2611" d="M33.9,38.908c-.012.624.517,1.05.6,1.64-.248.194-.215.411-.161.708.108.59-.264.83-.882.631a7.82,7.82,0,0,0-.274-1.5c-.225-.582-.317-1.016.418-1.239.069-.021.1-.157.154-.239a.09.09,0,0,1,.146,0" fill="#f4d1b5"/>
      <path id="Path_2612" data-name="Path 2612" d="M33.459,41.887c.48-.082.75-.318.648-.851-.059-.305.1-.454.4-.488.473.2-.017.4,0,.594.156.17-.031.513.3.6l.147.447c-.1.1-.119.281-.3.3-.344-.145-.713.141-1.076-.1-.251-.166-.348-.267-.112-.5" fill="#f6d6b9"/>
      <path id="Path_2613" data-name="Path 2613" d="M51.6,35.339a.76.76,0,0,0,.014.616c-.387.011-.535-.179-.593-.764.234-.112.406.024.579.148" fill="#f2cdb0"/>
      <path id="Path_2614" data-name="Path 2614" d="M48.949,31.767c0,.1,0,.192,0,.289a.222.222,0,0,1-.019.311c-.625.013-.44-.638-.734-.9l.17,0c.341-.183.4.174.587.3" fill="#f5d4b8"/>
      <path id="Path_2615" data-name="Path 2615" d="M34.647,42.484a.456.456,0,0,1,.3-.3c.136.305.438.539.382,1.012l-.382-.413c-.283.082-.213-.187-.3-.3Z" fill="#f1cbaf"/>
      <path id="Path_2616" data-name="Path 2616" d="M47.181,29.994c.27.1.526.21.415.582-.441.021-.424-.283-.415-.582" fill="#df997e"/>
      <path id="Path_2617" data-name="Path 2617" d="M48.926,32.367l.018-.311.588.018c.091.2-.444.393,0,.588v0l-.157.156a.806.806,0,0,1-.451-.449" fill="#f0c7ab"/>
      <path id="Path_2618" data-name="Path 2618" d="M33.9,38.908l-.146,0c-.189-.036-.4-.042-.39-.374a.524.524,0,0,1,.536.37" fill="#f1c9ad"/>
      <path id="Path_2619" data-name="Path 2619" d="M48.192,31.175v.3c-.29-.1-.633-.177-.3-.593l.3.3" fill="#f5d4b8"/>
      <path id="Path_2620" data-name="Path 2620" d="M36.581,27.61a1.178,1.178,0,0,1,.747.142c-.279.112-.558.223-.747-.142" fill="#f4d2b6"/>
      <path id="Path_2621" data-name="Path 2621" d="M51.015,34.152l.592.569c-.236.111-.4-.092-.594-.144,0-.142,0-.283,0-.425" fill="#f4d1b5"/>
      <path id="Path_2622" data-name="Path 2622" d="M34.8,41.738c-.644.075-.195-.4-.3-.6l.3.6" fill="#f4d1b4"/>
      <path id="Path_2623" data-name="Path 2623" d="M46.554,29.418c0,.091,0,.183,0,.274-.158-.05-.375-.046-.415-.232-.023-.1.141-.177.268-.2l.149.157" fill="#da8b73"/>
      <path id="Path_2624" data-name="Path 2624" d="M34.648,42.484l.3.3c-.151.239-.3.129-.446,0l.147-.3" fill="#f6d6b9"/>
      <path id="Path_2625" data-name="Path 2625" d="M50.624,42.523c.035.024.093.043.1.072s-.032.077-.052.116c-.035-.023-.1-.042-.1-.07s.033-.078.053-.118" fill="#f3ceb2"/>
      <path id="Path_2626" data-name="Path 2626" d="M34.444,42.886a1.015,1.015,0,0,1-.125.076c-.007,0-.044-.058-.066-.09.059-.028.117-.061.178-.085.077-.031.093-.009.013.1" fill="#f6d6b9"/>
      <path id="Path_2627" data-name="Path 2627" d="M37.675,19.385a.511.511,0,0,1,.1-.414h.154c.048.15.1.3.143.452l-.392-.038" fill="#f1c9ad"/>
      <path id="Path_2628" data-name="Path 2628" d="M15.674,37.955c.364.008.232-.609.63-.5a.267.267,0,0,1,.117.235c-.12.361-.45.272-.747.267" fill="#f5d3b7"/>
      <path id="Path_2629" data-name="Path 2629" d="M20.641,37.3l.18-.166c0,.258-.007.515-.009.774a.561.561,0,0,1-.171-.608" fill="#e8b296"/>
      <path id="Path_2630" data-name="Path 2630" d="M51.615,24.629l-.3.162c-.372.043-.342-.278-.437-.485,0-.042,0-.084-.006-.125a.82.82,0,0,1,.747.448" fill="#f1cbae"/>
      <path id="Path_2631" data-name="Path 2631" d="M50.549,23.87l.179-.163c.04.012.081.022.122.03.149.17-.053.207-.113.3,0,.049-.006.1-.007.146l-.181-.311" fill="#e1a186"/>
      <path id="Path_2632" data-name="Path 2632" d="M50.737,24.036c.038-.1.076-.2.113-.3.126.161.029.238-.113.3" fill="#efc6ab"/>
      <path id="Path_2633" data-name="Path 2633" d="M27.051,52.171l.158.282,0,.293c-.073.073-.09.18-.154.257a.741.741,0,0,1-.454.2.45.45,0,0,0-.437.3c.075.195-.062.228-.2.261-.19,0-.267-.173-.4-.265-.1-.3.271-.36.3-.594.223-.238.529-.41.612-.762l.571.032" fill="#eec1a6"/>
      <path id="Path_2634" data-name="Path 2634" d="M24.372,56.3c-.047.008-.095.015-.142.021l-.886.01v-.022a.2.2,0,0,1,0-.293c.413-.365.839-.6,1.339-.144,0,.046,0,.093,0,.14a.488.488,0,0,0-.309.288" fill="#efc5a9"/>
      <path id="Path_2635" data-name="Path 2635" d="M23.341,56.02c0,.1,0,.195,0,.293l-.442.149-.009-.293c-.114-.078-.245-.142-.254-.307a.287.287,0,0,1,.257-.283c.214.081.2.392.447.441" fill="#efc4a8"/>
      <path id="Path_2636" data-name="Path 2636" d="M22.894,55.579l-.149.3a.233.233,0,0,1-.339-.018l.066-.434.284.005.138.148" fill="#f0c6aa"/>
      <path id="Path_2637" data-name="Path 2637" d="M25.573,53.494a.209.209,0,0,1,.3.16c.081.113.383,0,.294.284h-.445c-.05-.148-.1-.3-.152-.443" fill="#ebba9e"/>
      <path id="Path_2638" data-name="Path 2638" d="M54.157,54.238l.279-.29a.2.2,0,0,1,.3-.008c.477.236,1.022-.222,1.485.147a.268.268,0,0,1,.009.45c-.155.249-.306.276-.452-.008a.551.551,0,0,0-.61.017c-.316-.175-.779.135-1.013-.308" fill="#f2cbaf"/>
      <path id="Path_2639" data-name="Path 2639" d="M54.738,53.94l-.3.008c-.047-.156-.1-.311-.142-.467l.161.047.283.412" fill="#f5d4b7"/>
      <path id="Path_2640" data-name="Path 2640" d="M24.679,26.257l.006-.152a.3.3,0,0,1,.327-.048.471.471,0,0,1,.276.215.67.67,0,0,1,.024.363c-.135.252-.225.58-.631.373h0c-.046-.25.082-.5,0-.75" fill="#eec1a5"/>
      <path id="Path_2641" data-name="Path 2641" d="M23.636,25.215c.107.1.373.2.222.353-.2.2-.368-.039-.512-.19.041-.152.122-.235.29-.163" fill="#f5d4b7"/>
      <path id="Path_2642" data-name="Path 2642" d="M23.636,25.215l-.29.163-.16-.144c.007-.1.1-.114.156-.171l.294-.44c.05.15.1.3.148.45l-.148.142" fill="#edbda2"/>
      <path id="Path_2643" data-name="Path 2643" d="M24.679,26.257a.683.683,0,0,1,0,.75l-.144,0c0-.094,0-.189,0-.284.046-.154.091-.309.137-.463" fill="#e3a68b"/>
      <path id="Path_2644" data-name="Path 2644" d="M24.968,26.1h-.284l-.135-.426a.55.55,0,0,1,.43.283.086.086,0,0,1,.028.1c-.014.029-.028.044-.039.044" fill="#e5a98f"/>
      <path id="Path_2645" data-name="Path 2645" d="M23.342,25.063l-.156.171-.29.162c-.083-.42.258-.274.446-.333" fill="#e9b498"/>
      <path id="Path_2646" data-name="Path 2646" d="M24.968,26.1l.011-.142c.1-.1.194-.2.289-.294.169.039.2.147.156.3l0,.1c-.049.14-.114.253-.294.2-.055-.055-.111-.11-.165-.165" fill="#f1c9ad"/>
      <path id="Path_2647" data-name="Path 2647" d="M56.078,55.869c-.05-.048-.1-.1-.151-.143-.1-.318.078-.436.348-.489l.093.044c.006.246,0,.486-.29.588" fill="#da8c73"/>
      <path id="Path_2648" data-name="Path 2648" d="M56.37,54.827l.146.013c.018.17.1.359-.147.441l.005,0c-.165-.148-.338-.3,0-.45" fill="#de997f"/>
      <path id="Path_2649" data-name="Path 2649" d="M22.153,24.918c-.118-.245-.23-.49,0-.735.241-.047.341.05.3.293.119.293.005.43-.3.442" fill="#ecbda2"/>
      <path id="Path_2650" data-name="Path 2650" d="M22.448,24.476l-.3-.293v0a.367.367,0,0,1,.077-.417.429.429,0,0,1,.524-.034c0,.048.008.095.013.143a.742.742,0,0,1-.315.6" fill="#f4d1b5"/>
      <path id="Path_2651" data-name="Path 2651" d="M56.37,54.827c0,.15,0,.3,0,.45q-.222.225-.446.449l-.3-.009c.2-.377-.205-.83.152-1.187a.579.579,0,0,0,.451.008l.138.289" fill="#eec2a7"/>
      <path id="Path_2652" data-name="Path 2652" d="M50.873,24.306c.146.162.292.323.437.485,0,.047,0,.094.008.141s-.022.1-.032.153a.649.649,0,0,1-.413-.779" fill="#e2a186"/>
      <path id="Path_2653" data-name="Path 2653" d="M22.3,23.893l-.15.286-.747-.451.449-.591.581.154c.165.247.018.425-.133.6" fill="#eec3a6"/>
      <path id="Path_2654" data-name="Path 2654" d="M22.3,23.893q.068-.3.133-.6l.464.293-.147.144-.45.165" fill="#eab89c"/>
      <path id="Path_2655" data-name="Path 2655" d="M26.6,53.2c.068-.236.254-.294.467-.313.058-.051.1-.042.137.027,0,.091,0,.182,0,.273l-.12.3-.314,0L26.6,53.2" fill="#e09d83"/>
      <path id="Path_2656" data-name="Path 2656" d="M27.208,52.912c-.046-.008-.092-.017-.137-.027l.141-.14c0,.056,0,.111,0,.167" fill="#f0c9ad"/>
      <path id="Path_2657" data-name="Path 2657" d="M25.719,25.976c0,.046,0,.091,0,.137a.245.245,0,0,1,.029.311.227.227,0,0,1-.216.031.321.321,0,0,1-.112-.488h0l.294.008" fill="#f6d6ba"/>
      <path id="Path_2658" data-name="Path 2658" d="M26.17,53.938l-.294-.285.292-.154q.083.22.167.443c-.057.106-.113.135-.165,0" fill="#e2a186"/>
      <path id="Path_2659" data-name="Path 2659" d="M22.405,55.86l.34.018c.048.1.1.194.146.291A1.545,1.545,0,0,1,22.127,56c.047-.137.129-.206.278-.142" fill="#e6ac91"/>
      <path id="Path_2660" data-name="Path 2660" d="M49.959,32.409c.046.084.092.168.139.252-.137.164-.274.152-.41,0l.271-.252" fill="#e09e83"/>
      <path id="Path_2661" data-name="Path 2661" d="M24.681,27.008c.25-.049.329-.267.444-.449a.262.262,0,0,1,.3-.055.331.331,0,0,1,.1.184.765.765,0,0,1-.248.465l-.3.151-.3-.3" fill="#df9a80"/>
      <path id="Path_2662" data-name="Path 2662" d="M48.949,31.767l-.588-.3c.3-.221.492.042.715.162,0,.048,0,.095,0,.142-.044,0-.087,0-.131,0" fill="#ebb99d"/>
      <path id="Path_2663" data-name="Path 2663" d="M25.279,27.154a.6.6,0,0,1,.145-.44.318.318,0,0,1,.3.151l-.009,0c-.043.088-.087.176-.13.263l-.3.024" fill="#f1c9ad"/>
      <path id="Path_2664" data-name="Path 2664" d="M25.719,26.864l-.3-.151,0-.148a.236.236,0,0,1,.146-.134c.049.005.1.009.146.012.053.025.071.052.055.08s-.032.043-.049.043v.3" fill="#e4a98d"/>
      <path id="Path_2665" data-name="Path 2665" d="M25.719,26.566a.838.838,0,0,1-.006-.122c0-.11.005-.22.007-.33l.39.146-.391.306" fill="#f2ccaf"/>
      <path id="Path_2666" data-name="Path 2666" d="M49.534,32.662c-.485-.195-.3-.392,0-.589a.6.6,0,0,1,.124.042c-.029.185-.216.335-.122.547" fill="#f6d6ba"/>
      <path id="Path_2667" data-name="Path 2667" d="M33.563,40.458c-.269-.358-.26-.591-.079-.788.091-.1.247-.033.311.075.179.3-.157.4-.232.713" fill="#e6ab91"/>
      <path id="Path_2668" data-name="Path 2668" d="M25.567,26.431l-.146.134-.3-.007.009-.289c.1-.1.192-.2.287-.3l.146.464" fill="#e9b69a"/>
    </g>
  </g>
</svg>
