<?xml version="1.0" encoding="UTF-8"?>
<svg width="599px" height="74px" viewBox="0 0 599 74" version="1.1" xmlns="http://www.w3.org/2000/svg" xmlns:xlink="http://www.w3.org/1999/xlink">
    <!-- Generator: Sketch 56.3 (81716) - https://sketch.com -->
    <title>Group 29</title>
    <desc>Created with Sketch.</desc>
    <defs>
        <polygon id="path-1" points="0 0.4625 90.6824789 0.4625 90.6824789 72.5226909 0 72.5226909"></polygon>
        <polygon id="path-3" points="0 74 598.627606 74 598.627606 0.4625 0 0.4625"></polygon>
    </defs>
    <g id="Styleguide" stroke="none" stroke-width="1" fill="none" fill-rule="evenodd">
        <g id="Logos" transform="translate(-60.000000, -154.000000)">
            <g id="Group-29" transform="translate(60.000000, 154.000000)">
                <polygon id="Fill-1" fill="#CE0E2D" points="581 73 599 73 599 55 581 55"></polygon>
                <g id="Group-28">
                    <g id="Group-4">
                        <mask id="mask-2" fill="white">
                            <use xlink:href="#path-1"></use>
                        </mask>
                        <g id="Clip-3"></g>
                        <path d="M80.2103662,56.4461909 L80.2103662,16.5383273 C79.872338,4.2291 80.5500845,3.79014545 90.2329014,3.01314545 L90.2329014,0.461827273 L71.8627606,0.461827273 L45.3461408,57.5595545 L18.3799437,0.461827273 L-0.000338028169,0.461827273 L-0.000338028169,3.01314545 C10.4717746,3.79014545 10.6982535,4.61087273 10.6982535,19.8666455 L10.6982535,43.1480545 C10.6982535,54.2665545 10.4379718,59.1219636 9.36473239,64.2027364 C8.50614085,68.2845091 6.24642254,69.4197364 -0.000338028169,69.9713727 L-0.000338028169,72.5226909 L26.1867042,72.5226909 L26.1867042,69.9713727 C18.9444507,69.4197364 16.2672676,68.3063727 15.7145915,64.2027364 C15.4762817,62.4048727 15.3647324,59.8871909 15.3748732,56.4024636 L14.8221972,13.3226909 L15.0469859,13.3226909 L40.7709296,71.2966455 L43.5613521,71.2966455 L70.8571268,11.7720545 L71.2982535,11.7720545 L70.8571268,56.4461909 C70.9585352,68.8580091 70.6306479,69.1943727 61.2774085,69.9713727 L61.2774085,72.5226909 L90.6824789,72.5226909 L90.6824789,69.9713727 C80.8779718,69.1943727 80.5500845,68.8580091 80.2103662,56.4461909" id="Fill-2" fill="#000000" mask="url(#mask-2)"></path>
                    </g>
                    <path d="M196.657521,68.0209682 C194.014141,65.4242409 193.234986,61.4450591 193.234986,57.8812864 L193.234986,27.0670136 L206.145972,27.0670136 L206.145972,22.8523773 L193.234986,22.8523773 L193.234986,11.3739682 L184.534141,11.3739682 L184.534141,22.8523773 L175.960056,22.8523773 L175.960056,27.0670136 L184.534141,27.0670136 L184.534141,60.4326045 C184.534141,64.0754227 185.336958,68.1908318 188.115549,70.7757864 C191.833859,74.2369682 197.830479,73.6634682 202.441183,73.3271045 C202.836676,73.2934682 207.864845,72.5854227 207.864845,72.5299227 L207.864845,69.96515 C203.786535,70.5066955 199.593296,70.8985591 196.657521,68.0209682" id="Fill-5" fill="#000000"></path>
                    <path d="M335.148338,65.6452318 C332.695944,68.3092318 326.019887,68.8608682 319.681859,68.8608682 C314.439042,68.8608682 312.020451,68.8608682 309.897634,67.5355955 C307.784958,66.1968682 307.119042,62.86855 307.119042,56.5634136 L307.119042,36.9349136 L319.713972,36.9349136 C324.505521,36.9349136 326.956225,37.1585955 328.402986,38.3728682 C329.848056,39.5989136 330.186085,41.8138682 330.742141,45.9175045 L333.520732,45.9175045 L333.520732,23.9613682 L330.742141,23.9613682 C329.621577,32.1669591 329.283549,32.8312773 319.713972,32.8312773 L307.119042,32.8312773 L307.119042,7.55859545 C307.119042,4.34464091 307.33369,4.11927727 310.463831,4.11927727 L321.48862,4.11927727 C328.279606,4.11927727 331.960732,4.89459545 333.747211,6.78327727 C335.418761,8.56095909 336.639042,11.43855 337.746085,16.9801409 L340.490873,17.0591864 L340.490873,0.466368182 L287.957915,0.466368182 L287.957915,3.01768636 C296.873408,3.68032273 297.764113,4.45732273 297.764113,16.5411864 L297.764113,56.44905 C297.764113,68.5228227 296.873408,69.2998227 286.839042,69.9742318 L286.839042,72.5137773 L343.281296,72.5137773 L343.281296,54.7857318 L340.490873,54.7857318 C339.361859,60.2499591 337.044676,63.6556409 335.148338,65.6452318" id="Fill-7" fill="#000000"></path>
                    <path d="M495.028394,22.2333 C484.725296,22.2333 470.016,30.4506636 470.016,49.3711182 C470.016,61.0849818 479.178254,73.8096182 495.141634,73.8096182 C506.575437,73.8096182 519.702761,64.8051636 519.702761,47.2352091 C519.702761,33.1600727 509.399662,22.2333 495.028394,22.2333 M496.385577,70.4392545 C486.533746,70.4392545 480.308958,59.5108 480.308958,45.2119818 C480.308958,33.3854364 486.09262,25.6171182 493.672901,25.6171182 C503.964169,25.6171182 509.399662,37.2065273 509.399662,49.7074818 C509.399662,64.9178455 503.399662,70.4392545 496.385577,70.4392545" id="Fill-9" fill="#000000"></path>
                    <path d="M392.598423,62.5411 L392.598423,0.463509091 L376.895324,0.463509091 L376.895324,2.79114545 C376.895324,2.79114545 377.753915,2.9156 380.431099,3.34278182 C383.108282,3.75819091 383.909408,3.94991818 383.909408,7.86182727 L383.909408,62.5411 C383.909408,68.7470091 383.356732,69.3087364 375.776451,69.9713727 L375.776451,72.5126 L400.73138,72.5126 L400.73138,69.9713727 C393.151099,69.3087364 392.598423,68.7470091 392.598423,62.5411" id="Fill-11" fill="#000000"></path>
                    <path d="M110.816958,62.5411 L110.816958,54.0092364 L110.816958,22.8586 L95.1138592,22.8586 L95.1138592,25.5562364 L98.5583662,26.1179636 C101.124,26.4442364 102.127944,27.3322364 102.127944,31.4358727 L102.127944,44.7020545 L102.127944,62.5411 C102.127944,68.7470091 101.575268,69.3087364 94.2214648,69.9713727 L94.2214648,72.5126 L118.838366,72.5126 L118.838366,69.9713727 C111.369634,69.3087364 110.816958,68.7470091 110.816958,62.5411" id="Fill-13" fill="#000000"></path>
                    <path d="M420.61031,62.5411 L420.61031,54.0092364 L420.61031,22.8586 L404.905521,22.8586 L404.905521,25.5562364 L408.351718,26.1179636 C410.917352,26.4442364 411.921296,27.3322364 411.921296,31.4358727 L411.921296,44.7020545 L411.921296,62.5411 C411.921296,68.7470091 411.36862,69.3087364 404.014817,69.9713727 L404.014817,72.5126 L428.630028,72.5126 L428.630028,69.9713727 C421.162986,69.3087364 420.61031,68.7470091 420.61031,62.5411" id="Fill-15" fill="#000000"></path>
                    <path d="M565.90631,61.7323136 L565.90631,37.0112682 C565.90631,28.2540409 560.889972,22.2734955 551.761521,22.2734955 C548.305183,22.2734955 545.524901,23.4877682 542.181803,25.4891318 C539.289972,27.2533591 536.837577,28.8056773 534.714761,30.3563136 L534.714761,22.8587682 L519.009972,22.8587682 L519.009972,25.11745 L522.468,25.6690864 C525.031944,26.00545 526.025746,26.8833591 526.025746,30.9853136 L526.025746,62.5412682 C526.025746,68.7471773 525.47307,69.3089045 517.777859,69.9715409 L517.777859,72.5127682 L541.853915,72.5127682 L541.853915,69.9715409 C535.267437,69.3089045 534.714761,67.9382227 534.714761,61.7323136 L534.714761,33.6846318 C538.056169,30.8053591 542.519831,28.4794045 546.858423,28.4794045 C555.10462,28.4794045 557.217296,34.0209955 557.217296,40.4522682 L557.217296,61.7323136 C557.217296,67.9382227 556.66462,69.3089045 549.310817,69.9715409 L549.310817,72.5127682 L572.932225,72.5127682 L572.932225,69.9715409 C566.470817,69.3089045 565.90631,67.9382227 565.90631,61.7323136" id="Fill-17" fill="#000000"></path>
                    <path d="M169.786141,61.7323136 L169.786141,37.0112682 C169.786141,28.2540409 164.769803,22.2734955 155.641352,22.2734955 C152.185014,22.2734955 149.404732,23.4877682 146.061634,25.4891318 C143.169803,27.2533591 140.717408,28.8056773 138.594592,30.3563136 L138.594592,22.8587682 L122.891493,22.8587682 L122.891493,25.11745 L126.347831,25.6690864 C128.901634,26.00545 129.905577,26.8833591 129.905577,30.9853136 L129.905577,62.5412682 C129.905577,68.7471773 129.352901,69.3089045 121.65769,69.9715409 L121.65769,72.5127682 L145.733746,72.5127682 L145.733746,69.9715409 C139.147268,69.3089045 138.594592,67.9382227 138.594592,61.7323136 L138.594592,33.6846318 C141.93769,30.8053591 146.399662,28.4794045 150.738254,28.4794045 C158.984451,28.4794045 161.097127,34.0209955 161.097127,40.4522682 L161.097127,61.7323136 C161.097127,67.9382227 160.544451,69.3089045 153.190648,69.9715409 L153.190648,72.5127682 L176.812056,72.5127682 L176.812056,69.9715409 C170.350648,69.3089045 169.786141,67.9382227 169.786141,61.7323136" id="Fill-19" fill="#000000"></path>
                    <mask id="mask-4" fill="white">
                        <use xlink:href="#path-3"></use>
                    </mask>
                    <g id="Clip-22"></g>
                    <polygon id="Fill-21" fill="#000000" mask="url(#mask-4)" points="411.520563 9.51404545 420.613521 9.51404545 420.613521 0.464181818 411.520563 0.464181818"></polygon>
                    <polygon id="Fill-23" fill="#000000" mask="url(#mask-4)" points="101.732958 9.51404545 110.827606 9.51404545 110.827606 0.464181818 101.732958 0.464181818"></polygon>
                    <path d="M281.57307,22.2597045 C276.228845,22.2597045 270.568563,30.1625682 268.00462,34.4915682 L267.982648,33.45725 L267.982648,22.8550682 L252.279549,22.8550682 L252.279549,25.1827045 L255.735887,25.7444318 C258.28969,26.0707045 259.293634,26.9587045 259.293634,31.0623409 L259.293634,62.53925 C259.293634,68.7451591 258.729127,69.3068864 251.601803,69.9712045 L251.601803,72.5225227 L277.236169,72.5225227 L277.236169,69.9712045 C268.547155,69.3068864 267.982648,68.7451591 267.982648,62.53925 L267.982648,38.3362045 C270.874479,32.56925 273.778141,30.4669773 276.455324,30.4669773 C278.454761,30.4669773 279.686873,31.4558864 281.245183,32.7946136 C281.505465,33.0082045 281.934761,33.4791136 282.53307,33.77175 L287.978704,27.3858864 C287.187718,25.1490682 284.409127,22.2597045 281.57307,22.2597045" id="Fill-24" fill="#000000" mask="url(#mask-4)"></path>
                    <path d="M364.38169,62.5411 L364.38169,0.463509091 L348.678592,0.463509091 L348.678592,2.79114545 C348.678592,2.79114545 349.537183,2.9156 352.214366,3.34278182 C354.90338,3.75819091 355.694366,3.94991818 355.694366,7.86182727 L355.694366,62.5411 C355.694366,68.7470091 355.14,69.3087364 347.559718,69.9713727 L347.559718,72.5126 L372.514648,72.5126 L372.514648,69.9713727 C364.946197,69.3087364 364.38169,68.7470091 364.38169,62.5411" id="Fill-25" fill="#000000" mask="url(#mask-4)"></path>
                    <path d="M242.483662,64.1761636 C239.896056,66.1321182 236.449859,67.3800273 232.687606,67.3800273 C220.792394,67.3800273 216.239155,56.1387545 215.549577,46.0545727 L250.50338,46.0545727 C250.50338,21.8733909 231.490986,22.2665453 230.372113,22.2665453 C223.513521,22.2665453 217.956338,24.8754364 213.685352,30.0907545 C209.416056,35.3077545 207.279718,41.5018909 207.279718,48.6849364 C207.279718,55.2843909 209.110141,61.1287091 212.794648,66.2010727 C216.475775,71.2700727 221.684789,73.7995273 228.430141,73.7995273 C234.279718,73.7995273 239.228451,71.8772091 243.262817,68.0090273 C247.297183,64.1425273 250.053803,59.9497545 251.520845,55.3970727 L249.644789,54.7563 C247.98507,58.9591636 245.069577,62.2202091 242.483662,64.1761636 M217.876901,31.5976636 C220.035211,27.9884818 223.151831,26.1788455 227.241972,26.1788455 C233.885915,26.1788455 240.088732,30.7533909 240.506197,42.6253455 L215.448169,42.6253455 C215.527606,37.7463909 216.487606,33.5317545 217.876901,31.5976636" id="Fill-26" fill="#000000" mask="url(#mask-4)"></path>
                    <path d="M452.406085,43.2528318 C447.425239,41.2296045 442.555944,38.0694682 442.555944,33.4495136 C442.555944,29.7394227 444.939042,25.7955591 450.034817,25.7955591 C454.201014,25.7955591 457.75031,28.2560591 461.059606,35.20365 L463.714817,35.20365 L463.714817,25.6711045 C460.608338,23.6024682 456.078761,22.4100591 451.921014,22.4100591 C442.621859,22.4100591 435.200451,28.8177864 435.200451,37.1713773 C435.200451,44.60165 441.425239,48.4361955 448.779042,51.7073318 C455.003831,54.4049682 457.615099,57.6643318 457.615099,62.2859682 C457.615099,67.8056955 453.648338,70.6261045 449.581859,70.6261045 C443.10862,70.6261045 438.137915,63.8584682 436.182423,57.49615 L433.087775,57.49615 L433.087775,68.8164682 C435.516507,70.8968773 442.102986,73.9998318 447.886648,73.9998318 C456.484394,73.9998318 466.109746,68.9409227 466.109746,58.5758773 C466.109746,51.02115 460.677634,46.63665 452.406085,43.2528318" id="Fill-27" fill="#000000" mask="url(#mask-4)"></path>
                </g>
            </g>
        </g>
    </g>
</svg>